<svg width="63" height="13" viewBox="0 0 63 13" fill="none" xmlns="http://www.w3.org/2000/svg">
<path d="M6.05181 1.99163C6.23523 1.62004 6.7651 1.62004 6.94852 1.99163L8.05769 4.23869C8.13046 4.38611 8.27105 4.48834 8.43373 4.51212L10.9149 4.87479C11.3249 4.93471 11.4883 5.43863 11.1915 5.72771L9.39689 7.47565C9.27895 7.59052 9.22512 7.75609 9.25295 7.91835L9.67638 10.3871C9.74644 10.7956 9.31766 11.1071 8.95085 10.9142L6.73289 9.74778C6.5872 9.67117 6.41313 9.67117 6.26744 9.74778L4.04948 10.9142C3.68266 11.1071 3.25389 10.7956 3.32395 10.3871L3.74737 7.91835C3.7752 7.75609 3.72137 7.59052 3.60344 7.47565L1.80884 5.72771C1.51204 5.43863 1.67543 4.93471 2.08539 4.87479L4.5666 4.51212C4.72927 4.48834 4.86987 4.38612 4.94264 4.23869L6.05181 1.99163Z" fill="#2B33AE"/>
<path d="M18.5583 1.91385C18.7464 1.56011 19.2533 1.56011 19.4413 1.91385L20.682 4.24785C20.7576 4.38993 20.8969 4.48697 21.0563 4.50861L23.7672 4.87655C24.1886 4.93375 24.3507 5.45755 24.0353 5.74283L22.1235 7.47194C21.9948 7.5883 21.9357 7.76301 21.9672 7.93359L22.4247 10.4105C22.4993 10.8142 22.0825 11.1307 21.7136 10.9506L19.2192 9.73254C19.0808 9.66492 18.9189 9.66492 18.7804 9.73254L16.2861 10.9506C15.9172 11.1307 15.5004 10.8142 15.575 10.4105L16.0325 7.93359C16.064 7.76301 16.0048 7.5883 15.8762 7.47194L13.9644 5.74283C13.6489 5.45755 13.8111 4.93375 14.2325 4.87655L16.9434 4.50861C17.1028 4.48697 17.2421 4.38993 17.3176 4.24785L18.5583 1.91385Z" fill="#2B33AE"/>
<path d="M31.0518 1.99163C31.2352 1.62004 31.7651 1.62004 31.9485 1.99163L33.0577 4.23869C33.1305 4.38611 33.2711 4.48834 33.4337 4.51212L35.9149 4.87479C36.3249 4.93471 36.4883 5.43863 36.1915 5.72771L34.3969 7.47565C34.279 7.59052 34.2251 7.75609 34.253 7.91835L34.6764 10.3871C34.7464 10.7956 34.3177 11.1071 33.9508 10.9142L31.7329 9.74778C31.5872 9.67117 31.4131 9.67117 31.2674 9.74778L29.0495 10.9142C28.6827 11.1071 28.2539 10.7956 28.3239 10.3871L28.7474 7.91835C28.7752 7.75609 28.7214 7.59052 28.6034 7.47565L26.8088 5.72771C26.512 5.43863 26.6754 4.93471 27.0854 4.87479L29.5666 4.51212C29.7293 4.48834 29.8699 4.38612 29.9426 4.23869L31.0518 1.99163Z" fill="#2B33AE"/>
<path d="M43.5583 1.91385C43.7464 1.56011 44.2533 1.56011 44.4413 1.91385L45.682 4.24785C45.7576 4.38993 45.8969 4.48697 46.0563 4.50861L48.7672 4.87655C49.1886 4.93375 49.3507 5.45755 49.0353 5.74283L47.1235 7.47194C46.9948 7.5883 46.9357 7.76301 46.9672 7.93359L47.4247 10.4105C47.4993 10.8142 47.0825 11.1307 46.7136 10.9506L44.2192 9.73254C44.0808 9.66492 43.9189 9.66492 43.7804 9.73254L41.2861 10.9506C40.9172 11.1307 40.5004 10.8142 40.575 10.4105L41.0325 7.93359C41.064 7.76301 41.0048 7.5883 40.8762 7.47194L38.9644 5.74283C38.6489 5.45755 38.8111 4.93375 39.2325 4.87655L41.9434 4.50861C42.1028 4.48697 42.2421 4.38993 42.3176 4.24785L43.5583 1.91385Z" fill="#2B33AE"/>
<path d="M56.0518 1.99163C56.2352 1.62004 56.7651 1.62004 56.9485 1.99163L58.0577 4.23869C58.1305 4.38611 58.2711 4.48834 58.4337 4.51212L60.9149 4.87479C61.3249 4.93471 61.4883 5.43863 61.1915 5.72771L59.3969 7.47565C59.279 7.59052 59.2251 7.75609 59.253 7.91835L59.6764 10.3871C59.7464 10.7956 59.3177 11.1071 58.9508 10.9142L56.7329 9.74778C56.5872 9.67117 56.4131 9.67117 56.2674 9.74778L54.0495 10.9142C53.6827 11.1071 53.2539 10.7956 53.3239 10.3871L53.7474 7.91835C53.7752 7.75609 53.7214 7.59052 53.6034 7.47565L51.8088 5.72771C51.512 5.43863 51.6754 4.93471 52.0854 4.87479L54.5666 4.51212C54.7293 4.48834 54.8699 4.38611 54.9426 4.23869L56.0518 1.99163Z" fill="#2B33AE"/>
</svg>
