<svg width="282" height="222" viewBox="0 0 282 222" fill="none" xmlns="http://www.w3.org/2000/svg">
<path opacity="0.11" d="M238.623 126.11C228.81 142 230.649 163.649 234.959 180.718C236.401 186.433 238.062 192.466 236.829 198.862C235.321 206.683 229.823 212.824 224.259 216.341C214.115 222.737 202.531 222.56 194.096 215.873C186.812 210.096 182.016 200.022 174.578 194.556C162.143 185.405 145.066 190.951 130.239 199.503C119.754 205.539 108.213 213.219 98.521 208.87C91.7027 205.817 87.4509 197.201 85.4665 187.826C84.5087 183.3 83.9293 178.355 81.7333 174.907C80.4262 172.857 78.6297 171.485 76.767 170.36C59.7676 160.1 36.7674 168.678 20.3738 157.059C9.30101 149.215 3.00658 133.012 0.93754 115.686C-1.1315 98.3597 0.569769 79.8208 2.69966 61.5679C4.21572 48.5906 6.26624 34.7076 13.0713 24.1537C20.2706 12.9906 31.6186 7.99834 41.4822 9.05771C51.3459 10.1171 59.9104 16.3726 67.2923 24.0186C76.5183 33.5741 84.8395 45.778 96.7801 48.8608C104.913 50.961 113.795 48.5297 122.445 47.1552C136.886 44.8564 151.125 45.5158 165.265 46.3792C178.801 47.2055 192.419 48.2331 205.032 53.0003C213.956 56.377 220.806 63.4059 229.135 67.9771C234.564 70.9565 240.689 71.3353 245.748 75.3079C251.979 80.2022 257.371 89.2359 254.876 100.656C252.498 111.52 243.83 117.677 238.623 126.11Z" fill="#6C63FF"/>
<g opacity="0.5">
<path opacity="0.5" d="M175.86 3.00001L73.1706 3.24927C72.0514 3.25174 70.979 3.69825 70.1894 4.49058C69.3997 5.28291 68.9575 6.35615 68.96 7.47421L69.4271 199.343C69.43 200.461 69.8775 201.532 70.671 202.321C71.4645 203.109 72.539 203.551 73.6582 203.548L176.348 203.299C176.902 203.297 177.451 203.187 177.962 202.974C178.474 202.761 178.938 202.45 179.329 202.057C179.72 201.665 180.03 201.199 180.241 200.688C180.452 200.176 180.56 199.627 180.559 199.074L180.091 7.20446C180.089 6.08641 179.641 5.01532 178.848 4.22684C178.054 3.43835 176.98 2.99705 175.86 3.00001Z" fill="url(#paint0_linear)"/>
</g>
<g filter="url(#filter0_d)">
<path d="M176.114 5.61101L72.3894 5.8629C69.9699 5.86877 68.0131 7.757 68.0188 10.0804L68.4728 196.639C68.4784 198.963 70.4444 200.842 72.8639 200.836L176.589 200.584C179.008 200.578 180.965 198.69 180.959 196.366L180.505 9.80722C180.5 7.48384 178.534 5.60513 176.114 5.61101Z" fill="#F7F7FD"/>
</g>
<path opacity="0.3" d="M151.697 10.5644C151.389 12.6326 150.35 14.5225 148.769 15.8924C147.188 17.2624 145.168 18.0219 143.075 18.0337L105.727 18.1244C103.634 18.1228 101.611 17.3731 100.023 16.0108C98.4352 14.6486 97.3876 12.7637 97.0698 10.6971L77.2873 10.7451C76.1981 10.7478 75.1546 11.1825 74.3862 11.9538C73.6179 12.7251 73.1878 13.7696 73.1904 14.8577L73.6211 191.849C73.6224 192.388 73.73 192.921 73.9376 193.419C74.1452 193.916 74.4488 194.367 74.831 194.747C75.2133 195.127 75.6668 195.429 76.1656 195.634C76.6643 195.839 77.1986 195.943 77.7379 195.942L172.231 195.713C172.77 195.711 173.304 195.604 173.802 195.396C174.299 195.189 174.751 194.886 175.132 194.504C175.512 194.122 175.814 193.669 176.019 193.171C176.224 192.672 176.329 192.139 176.328 191.6L175.897 14.6083C175.896 14.0696 175.788 13.5363 175.581 13.0391C175.373 12.5418 175.069 12.0903 174.687 11.7102C174.305 11.3302 173.851 11.0291 173.353 10.8241C172.854 10.6192 172.319 10.5143 171.78 10.5156L151.697 10.5644Z" fill="#6C63FF"/>
<path d="M71.2354 39.7327L177.786 144.169L177.169 42.6637L71.2354 39.7327ZM71.2354 39.7327L71.6986 64.2606L181.029 76.2932L74.9754 120.258L177.786 163.915V186.283L72.4707 179.033L72.4707 197.082H120.65L152.461 9.80554" stroke="white" stroke-width="4" stroke-miterlimit="10"/>
<path d="M134.98 12.7994L112.122 13.1427C111.781 13.1478 111.509 13.4282 111.514 13.769L111.518 14.0392C111.523 14.38 111.804 14.6521 112.145 14.647L135.003 14.3037C135.344 14.2985 135.616 14.0182 135.611 13.6774L135.607 13.4071C135.602 13.0664 135.321 12.7943 134.98 12.7994Z" fill="#DBDBDB"/>
<path d="M140.726 14.2177C141.225 14.2177 141.629 13.8135 141.629 13.315C141.629 12.8165 141.225 12.4124 140.726 12.4124C140.227 12.4124 139.822 12.8165 139.822 13.315C139.822 13.8135 140.227 14.2177 140.726 14.2177Z" fill="#DBDBDB"/>
<g opacity="0.5">
<path opacity="0.5" d="M55.2356 28.0889H54.3091V33.3338H55.2356V28.0889Z" fill="#47E6B1"/>
<path opacity="0.5" d="M57.3975 31.1742V30.2487H52.1471V31.1742H57.3975Z" fill="#47E6B1"/>
</g>
<g opacity="0.5">
<path opacity="0.5" d="M62.6477 60.972H61.7212V66.217H62.6477V60.972Z" fill="#47E6B1"/>
<path opacity="0.5" d="M64.8096 64.0573V63.1317H59.5592V64.0573H64.8096Z" fill="#47E6B1"/>
</g>
<g opacity="0.5">
<path opacity="0.5" d="M204.716 18.2159H203.789V23.4609H204.716V18.2159Z" fill="#47E6B1"/>
<path opacity="0.5" d="M206.878 21.3014V20.3759H201.627V21.3014H206.878Z" fill="#47E6B1"/>
</g>
<g opacity="0.5">
<path opacity="0.5" d="M279.456 37.524H278.529V42.769H279.456V37.524Z" fill="#47E6B1"/>
<path opacity="0.5" d="M281.618 40.6094V39.6838H276.367V40.6094H281.618Z" fill="#47E6B1"/>
</g>
<path opacity="0.5" d="M27.4692 58.5983C27.2139 58.4872 27.0083 58.2862 26.8917 58.0336C26.7751 57.7809 26.7556 57.4943 26.8368 57.2282C26.85 57.1874 26.8583 57.1452 26.8615 57.1024C26.8689 56.9805 26.8369 56.8594 26.77 56.7571C26.7032 56.6549 26.6052 56.5768 26.4904 56.5345C26.3757 56.4922 26.2504 56.488 26.1331 56.5224C26.0158 56.5569 25.9127 56.6281 25.8391 56.7256C25.8138 56.7603 25.7927 56.7977 25.7761 56.8373C25.6649 57.0923 25.4637 57.2977 25.2108 57.4141C24.9579 57.5306 24.6709 57.5502 24.4046 57.469C24.3637 57.4559 24.3215 57.4476 24.2787 57.4443C24.1566 57.4369 24.0355 57.4689 23.9331 57.5357C23.8307 57.6025 23.7525 57.7004 23.7102 57.815C23.6679 57.9296 23.6637 58.0548 23.6981 58.172C23.7326 58.2892 23.8039 58.3922 23.9015 58.4657C23.9362 58.491 23.9737 58.5121 24.0133 58.5286C24.2686 58.6397 24.4741 58.8407 24.5907 59.0933C24.7073 59.346 24.7269 59.6327 24.6456 59.8988C24.6325 59.9396 24.6242 59.9818 24.621 60.0245C24.6135 60.1464 24.6456 60.2675 24.7124 60.3698C24.7793 60.4721 24.8773 60.5501 24.992 60.5924C25.1067 60.6347 25.232 60.6389 25.3493 60.6045C25.4667 60.5701 25.5698 60.4988 25.6434 60.4013C25.6687 60.3667 25.6898 60.3292 25.7063 60.2897C25.8175 60.0346 26.0187 59.8293 26.2717 59.7128C26.5246 59.5963 26.8115 59.5768 27.0779 59.658C27.1187 59.6711 27.161 59.6794 27.2038 59.6826C27.3258 59.69 27.447 59.658 27.5494 59.5912C27.6518 59.5244 27.7299 59.4265 27.7722 59.3119C27.8146 59.1973 27.8188 59.0722 27.7843 58.955C27.7499 58.8378 27.6786 58.7348 27.5809 58.6612C27.5463 58.6359 27.5088 58.6148 27.4692 58.5983Z" fill="#4D8AF0"/>
<path opacity="0.5" d="M260.955 117.527C260.699 117.416 260.494 117.215 260.377 116.962C260.261 116.71 260.241 116.423 260.322 116.157C260.336 116.116 260.344 116.074 260.347 116.031C260.355 115.909 260.322 115.788 260.256 115.686C260.189 115.584 260.091 115.506 259.976 115.463C259.861 115.421 259.736 115.417 259.619 115.451C259.501 115.486 259.398 115.557 259.325 115.654C259.299 115.689 259.278 115.726 259.262 115.766C259.151 116.021 258.949 116.226 258.696 116.343C258.444 116.459 258.157 116.479 257.89 116.398C257.849 116.385 257.807 116.376 257.764 116.373C257.642 116.366 257.521 116.398 257.419 116.464C257.316 116.531 257.238 116.629 257.196 116.744C257.153 116.858 257.149 116.983 257.184 117.101C257.218 117.218 257.29 117.321 257.387 117.394C257.422 117.42 257.459 117.441 257.499 117.457C257.754 117.568 257.96 117.769 258.076 118.022C258.193 118.275 258.212 118.561 258.131 118.827C258.118 118.868 258.11 118.91 258.107 118.953C258.099 119.075 258.131 119.196 258.198 119.298C258.265 119.401 258.363 119.479 258.478 119.521C258.592 119.563 258.718 119.568 258.835 119.533C258.952 119.499 259.055 119.428 259.129 119.33C259.154 119.295 259.175 119.258 259.192 119.218C259.303 118.963 259.504 118.758 259.757 118.641C260.01 118.525 260.297 118.505 260.564 118.587C260.604 118.6 260.647 118.608 260.689 118.611C260.811 118.619 260.933 118.587 261.035 118.52C261.137 118.453 261.216 118.355 261.258 118.241C261.3 118.126 261.304 118.001 261.27 117.884C261.236 117.766 261.164 117.663 261.067 117.59C261.032 117.565 260.994 117.544 260.955 117.527Z" fill="#4D8AF0"/>
<path opacity="0.5" d="M244.586 23.4263C244.331 23.3152 244.125 23.1142 244.008 22.8616C243.892 22.6089 243.872 22.3223 243.954 22.0562C243.967 22.0154 243.975 21.9732 243.978 21.9304C243.986 21.8085 243.954 21.6874 243.887 21.5851C243.82 21.4829 243.722 21.4048 243.607 21.3625C243.492 21.3203 243.367 21.316 243.25 21.3504C243.133 21.3849 243.029 21.4561 242.956 21.5536C242.931 21.5883 242.909 21.6257 242.893 21.6653C242.782 21.9203 242.58 22.1257 242.328 22.2421C242.075 22.3586 241.788 22.3781 241.521 22.297C241.48 22.2838 241.438 22.2756 241.395 22.2723C241.273 22.2649 241.152 22.2969 241.05 22.3637C240.947 22.4305 240.869 22.5284 240.827 22.643C240.785 22.7576 240.78 22.8828 240.815 23C240.849 23.1172 240.921 23.2202 241.018 23.2937C241.053 23.319 241.09 23.3401 241.13 23.3566C241.385 23.4677 241.591 23.6687 241.707 23.9213C241.824 24.174 241.844 24.4607 241.762 24.7268C241.749 24.7676 241.741 24.8098 241.738 24.8525C241.73 24.9744 241.762 25.0955 241.829 25.1978C241.896 25.3001 241.994 25.3781 242.109 25.4204C242.223 25.4627 242.349 25.4669 242.466 25.4325C242.583 25.3981 242.686 25.3268 242.76 25.2293C242.785 25.1947 242.807 25.1572 242.823 25.1176C242.934 24.8626 243.135 24.6573 243.388 24.5408C243.641 24.4243 243.928 24.4048 244.195 24.4859C244.235 24.4991 244.278 24.5074 244.32 24.5106C244.443 24.518 244.564 24.486 244.666 24.4192C244.769 24.3524 244.847 24.2545 244.889 24.1399C244.931 24.0253 244.936 23.9001 244.901 23.783C244.867 23.6658 244.795 23.5628 244.698 23.4892C244.663 23.4639 244.625 23.4428 244.586 23.4263Z" fill="#4D8AF0"/>
<path opacity="0.5" d="M251.998 77.1099C251.743 76.9988 251.537 76.7978 251.421 76.5452C251.304 76.2925 251.285 76.0059 251.366 75.7397C251.379 75.699 251.387 75.6567 251.391 75.614C251.398 75.4921 251.366 75.371 251.299 75.2687C251.232 75.1665 251.134 75.0884 251.02 75.0461C250.905 75.0038 250.779 74.9996 250.662 75.034C250.545 75.0685 250.442 75.1397 250.368 75.2372C250.343 75.2718 250.322 75.3093 250.305 75.3489C250.194 75.6039 249.993 75.8093 249.74 75.9257C249.487 76.0422 249.2 76.0617 248.934 75.9806C248.893 75.9674 248.851 75.9592 248.808 75.9559C248.686 75.9485 248.565 75.9805 248.462 76.0473C248.36 76.1141 248.282 76.212 248.239 76.3266C248.197 76.4412 248.193 76.5664 248.227 76.6836C248.262 76.8008 248.333 76.9037 248.431 76.9773C248.465 77.0026 248.503 77.0237 248.542 77.0402C248.798 77.1513 249.003 77.3523 249.12 77.6049C249.236 77.8576 249.256 78.1442 249.175 78.4104C249.162 78.4512 249.153 78.4934 249.15 78.5361C249.143 78.658 249.175 78.7791 249.241 78.8814C249.308 78.9836 249.406 79.0617 249.521 79.104C249.636 79.1463 249.761 79.1505 249.878 79.1161C249.996 79.0817 250.099 79.0104 250.172 78.9129C250.198 78.8783 250.219 78.8408 250.235 78.8012C250.347 78.5462 250.548 78.3408 250.801 78.2244C251.054 78.1079 251.341 78.0884 251.607 78.1695C251.648 78.1827 251.69 78.1909 251.733 78.1942C251.855 78.2016 251.976 78.1696 252.078 78.1028C252.181 78.036 252.259 77.9381 252.301 77.8235C252.344 77.7089 252.348 77.5837 252.313 77.4665C252.279 77.3494 252.208 77.2464 252.11 77.1728C252.075 77.1475 252.038 77.1264 251.998 77.1099Z" fill="#4D8AF0"/>
<path opacity="0.5" d="M45.9707 119.284C46.9942 119.284 47.8238 118.455 47.8238 117.433C47.8238 116.411 46.9942 115.582 45.9707 115.582C44.9473 115.582 44.1177 116.411 44.1177 117.433C44.1177 118.455 44.9473 119.284 45.9707 119.284Z" fill="#F55F44"/>
<path opacity="0.5" d="M204.098 58.1955C205.121 58.1955 205.951 57.3667 205.951 56.3443C205.951 55.322 205.121 54.4932 204.098 54.4932C203.075 54.4932 202.245 55.322 202.245 56.3443C202.245 57.3667 203.075 58.1955 204.098 58.1955Z" fill="#4D8AF0"/>
<path opacity="0.5" d="M219.231 105.092C220.255 105.092 221.085 104.263 221.085 103.24C221.085 102.218 220.255 101.389 219.231 101.389C218.208 101.389 217.378 102.218 217.378 103.24C217.378 104.263 218.208 105.092 219.231 105.092Z" fill="#47E6B1"/>
<path opacity="0.5" d="M27.7483 7.59698C28.7717 7.59698 29.6014 6.76819 29.6014 5.74582C29.6014 4.72345 28.7717 3.89465 27.7483 3.89465C26.7249 3.89465 25.8953 4.72345 25.8953 5.74582C25.8953 6.76819 26.7249 7.59698 27.7483 7.59698Z" fill="#F55F44"/>
<path d="M181.05 58.4338L174.186 58.6997L174.528 67.5161L181.392 67.2502L181.05 58.4338Z" fill="#6C63FF"/>
<path d="M150.085 89.3109C150.085 89.3109 140.579 84.7738 140.731 88.6922C140.883 92.6106 150.313 95.1885 150.313 95.1885L150.085 89.3109Z" fill="#FFB9B9"/>
<path d="M155.301 122.465C155.301 122.465 150.816 133.431 149.159 141.343C147.502 149.256 144.978 160.146 148.224 167.869C151.471 175.592 160.699 198.289 160.794 200.738C160.889 203.187 160.004 205.674 161.965 205.598C163.926 205.522 174.599 202.166 175.032 200.677C175.465 199.189 171.391 195.422 171.391 195.422L161.33 163.927L171.827 143.409L179.399 174.019L180.882 212.224C180.882 212.224 188.16 209.979 189.217 211.901C189.217 211.901 192.478 207.36 192.892 205.381C193.306 203.403 191.352 165.707 191.352 165.707C191.352 165.707 198.033 122.772 192.64 122.981C187.246 123.19 166.121 110.273 155.301 122.465Z" fill="#2F2E41"/>
<path d="M161.889 203.639C161.889 203.639 156.914 214.624 156.443 215.133C155.971 215.641 152.729 220.672 155.181 220.577C157.632 220.482 163.421 217.805 167.682 213.716C171.942 209.627 177.56 202.542 177.05 202.071C176.541 201.6 173.052 200.264 173.052 200.264L161.889 203.639Z" fill="#2F2E41"/>
<path d="M181.767 209.737C181.767 209.737 181.467 214.654 180.562 216.651C179.658 218.648 179.772 221.587 182.223 221.492C184.675 221.397 191.011 220.17 191.011 220.17C191.011 220.17 191.387 217.213 190.878 216.742C190.368 216.271 188.198 210.959 189.122 209.452C190.045 207.944 181.767 209.737 181.767 209.737Z" fill="#2F2E41"/>
<path d="M185.394 50.1716C185.394 50.1716 190.62 58.3083 192.657 60.1915C194.695 62.0748 188.963 66.2211 188.963 66.2211L178.705 67.5995C178.705 67.5995 178.834 58.2743 178.306 57.3137C177.777 56.3531 185.394 50.1716 185.394 50.1716Z" fill="#FFB9B9"/>
<path d="M176.478 60.8182C176.478 60.8182 178.591 64.6607 180.552 64.5847C182.513 64.5087 192.658 60.1914 193.091 58.703C193.524 57.2146 196.451 69.3647 196.451 69.3647L171.629 113.003L165.574 108.823L168.508 83.2011L170.917 69.3728L176.478 60.8182Z" fill="#6C63FF"/>
<path d="M194.006 99.8726C193.016 101.942 192.398 104.1 192.483 106.309C192.487 106.407 192.491 106.505 192.5 106.602C192.735 111.136 194.406 116.378 195.006 120.191C195.441 122.926 195.317 124.923 193.715 125.392C189.831 126.523 194.282 127.332 179.253 132.329C164.225 137.326 161.602 133.013 161.564 132.033C161.526 131.054 163.693 123.612 163.183 123.141C162.674 122.67 156.057 129.303 154.058 128.4C152.059 127.496 153.83 122.522 153.83 122.522C153.83 122.522 158.333 112.046 158.238 109.597C158.143 107.148 165.06 95.598 165.06 95.598L169.765 65.0025C169.765 65.0025 171.574 61.0081 174.007 60.4233C176.439 59.8385 178.458 61.2319 178.458 61.2319L174.387 70.2193L170.093 86.0829L170.811 91.9415C170.811 91.9415 175.805 81.4468 179.085 77.3954C182.365 73.344 189.358 63.7529 189.358 63.7529C189.358 63.7529 190.991 58.2496 189.759 56.605C188.526 54.9555 194.9 54.7086 197.617 61.4708C199.058 65.0548 201.396 70.3994 202.861 75.3755C204.167 79.7839 204.783 83.9051 203.49 86.2607C201.513 89.8593 196.541 94.5894 194.006 99.8726Z" fill="#575A89"/>
<path opacity="0.1" d="M203.49 86.2609C201.513 89.8595 196.541 94.5896 194.006 99.8728C193.344 97.4899 192.536 95.0243 192.536 95.0243C192.536 95.0243 189.438 78.4661 198.602 74.1868C200.12 74.0401 201.639 74.464 202.861 75.3757C204.167 79.7841 204.783 83.9052 203.49 86.2609Z" fill="black"/>
<path d="M167.113 85.2174L159.344 87.4805L148.557 87.8984L147.448 97.2616L165.175 98.537C165.175 98.537 169.602 86.102 167.113 85.2174Z" fill="#575A89"/>
<path d="M179.781 116.699C179.781 116.699 169.388 118.422 171.76 121.546C174.132 124.671 183.339 121.386 183.339 121.386L179.781 116.699Z" fill="#FFB9B9"/>
<path opacity="0.1" d="M192.5 106.602C192.735 111.136 194.406 116.379 195.006 120.191C191.695 123.322 188.547 126.083 187.36 126.129C184.909 126.224 180.968 125.886 179.516 126.433C178.064 126.979 177.212 117.692 177.212 117.692C177.212 117.692 178.079 114.715 181.944 113.094C184.553 111.997 189.554 109.022 192.5 106.602Z" fill="black"/>
<path d="M198.488 71.248C198.488 71.248 206.785 69.9455 206.337 83.6979C205.889 97.4503 207.212 106.229 203.874 108.811C200.537 111.393 189.698 123.095 187.246 123.19C184.795 123.285 180.853 122.947 179.401 123.494C177.949 124.041 177.098 114.753 177.098 114.753C177.098 114.753 177.964 111.777 181.83 110.155C185.695 108.534 194.802 102.785 194.726 100.826C194.65 98.8668 192.422 92.0855 192.422 92.0855C192.422 92.0855 189.324 75.5273 198.488 71.248Z" fill="#575A89"/>
<path d="M178.077 62.2198C184.039 62.2198 188.872 57.3917 188.872 51.4361C188.872 45.4804 184.039 40.6523 178.077 40.6523C172.116 40.6523 167.283 45.4804 167.283 51.4361C167.283 57.3917 172.116 62.2198 178.077 62.2198Z" fill="#FFB9B9"/>
<path d="M170.809 35.9797C170.549 36.2038 170.237 36.3602 169.902 36.4348C169.733 36.4647 169.56 36.427 169.419 36.3297C169.279 36.2323 169.182 36.0834 169.151 35.9154C168.904 36.427 168.625 36.9724 168.121 37.2349C167.617 37.4974 166.837 37.2773 166.765 36.7139C166.691 37.1417 166.502 37.5411 166.217 37.869C165.904 38.167 165.337 38.2422 165.063 37.9075C165.284 39.1131 165.148 40.3529 165.217 41.5765C165.287 42.8001 165.613 44.0973 166.539 44.9019C167.888 46.0753 169.918 45.7857 171.693 45.5634C171.962 45.5071 172.24 45.5224 172.501 45.6076C173.166 45.8905 173.135 46.8149 173.144 47.5366C173.199 48.803 173.7 50.0092 174.56 50.941C175.421 51.8729 176.583 52.4701 177.843 52.6265C178.547 52.7352 179.266 52.5599 179.842 52.1392C180.346 51.7124 180.603 51.0168 181.181 50.6961C182.12 50.1746 183.26 50.9352 183.947 51.761C184.633 52.5869 185.31 53.6027 186.375 53.7539C187.782 53.9538 188.854 52.521 189.38 51.2017C190.105 49.3526 190.453 47.377 190.402 45.3916C190.351 43.4061 189.903 41.4509 189.084 39.6413C186.145 33.2421 176.107 32.2299 170.809 35.9797Z" fill="#2F2E41"/>
<path d="M160.98 65.0467C159.547 75.3772 138.275 96.9812 138.275 96.9812C138.275 96.9812 122.192 70.2051 123.625 59.8747C123.96 57.42 124.776 55.0554 126.027 52.9163C127.278 50.7772 128.939 48.9056 130.915 47.4086C132.891 45.9117 135.143 44.8188 137.542 44.1926C139.942 43.5663 142.441 43.4191 144.897 43.7592C147.354 44.0993 149.719 44.9201 151.857 46.1746C153.996 47.4291 155.865 49.0927 157.359 51.07C158.853 53.0474 159.942 55.2998 160.563 57.6981C161.185 60.0964 161.326 62.5936 160.98 65.0467Z" fill="url(#paint1_linear)"/>
<path d="M159.755 65.3734C158.411 75.0632 138.458 95.3274 138.458 95.3274C138.458 95.3274 123.372 70.2119 124.716 60.5221C125.03 58.2193 125.795 56.0009 126.968 53.9941C128.142 51.9872 129.7 50.2312 131.553 48.8267C133.407 47.4222 135.519 46.3969 137.77 45.8093C140.021 45.2217 142.366 45.0835 144.67 45.4025C146.974 45.7216 149.193 46.4916 151.199 47.6686C153.205 48.8456 154.959 50.4063 156.36 52.2614C157.761 54.1165 158.783 56.2296 159.365 58.4796C159.948 60.7296 160.08 63.0722 159.755 65.3734Z" fill="#6C63FF"/>
<path d="M151.19 62.7572C151.862 57.9123 148.485 53.4417 143.647 52.7719C138.809 52.1021 134.343 55.4866 133.67 60.3315C132.998 65.1764 136.375 69.647 141.213 70.3168C146.051 70.9867 150.518 67.6021 151.19 62.7572Z" fill="white"/>
<defs>
<filter id="filter0_d" x="59.0188" y="0.610962" width="130.941" height="213.225" filterUnits="userSpaceOnUse" color-interpolation-filters="sRGB">
<feFlood flood-opacity="0" result="BackgroundImageFix"/>
<feColorMatrix in="SourceAlpha" type="matrix" values="0 0 0 0 0 0 0 0 0 0 0 0 0 0 0 0 0 0 127 0"/>
<feOffset dy="4"/>
<feGaussianBlur stdDeviation="4.5"/>
<feColorMatrix type="matrix" values="0 0 0 0 0.4875 0 0 0 0 0.4875 0 0 0 0 0.4875 0 0 0 0.25 0"/>
<feBlend mode="normal" in2="BackgroundImageFix" result="effect1_dropShadow"/>
<feBlend mode="normal" in="SourceGraphic" in2="effect1_dropShadow" result="shape"/>
</filter>
<linearGradient id="paint0_linear" x1="81.073" y1="207.026" x2="168.293" y2="-0.543188" gradientUnits="userSpaceOnUse">
<stop stop-color="#808080" stop-opacity="0.25"/>
<stop offset="0.53514" stop-color="#808080" stop-opacity="0.12"/>
<stop offset="1" stop-color="#808080" stop-opacity="0.1"/>
</linearGradient>
<linearGradient id="paint1_linear" x1="18190.2" y1="24349.7" x2="19463.3" y2="15154.9" gradientUnits="userSpaceOnUse">
<stop stop-color="#808080" stop-opacity="0.25"/>
<stop offset="0.53514" stop-color="#808080" stop-opacity="0.12"/>
<stop offset="1" stop-color="#808080" stop-opacity="0.1"/>
</linearGradient>
</defs>
</svg>
