<svg width="262" height="231" viewBox="0 0 262 231" fill="none" xmlns="http://www.w3.org/2000/svg">
<path d="M103.349 199.778C103.349 199.778 107.697 186.832 80.1352 171.226C80.1352 171.226 52.1496 163.056 55.0114 135C55.0114 135 22.7504 158.658 44.5805 188.795C66.4106 218.932 85.2528 212.354 85.2528 212.354L103.349 199.778Z" fill="#300099"/>
<path d="M94.6187 205.32C94.6187 205.32 81.3621 190.9 68.6554 185.326C66.1171 184.176 63.7847 182.612 61.7522 180.698C53.6513 173.247 50.119 162.005 52.2077 151.161L55.2614 135.32" stroke="white" stroke-miterlimit="10"/>
<g filter="url(#filter0_d)">
<path d="M183 56.2008C183 55.8782 182.739 55.6168 182.416 55.6168C182.093 55.6168 181.832 55.3553 181.832 55.0327V23.5559C181.832 18.6346 179.881 13.9148 176.408 10.4349C172.935 6.955 168.224 5.00001 163.312 5H95.5197C90.608 4.99999 85.8974 6.95497 82.4243 10.4349C78.9512 13.9148 77 18.6345 77 23.5559V199.444C77 204.365 78.9512 209.085 82.4243 212.565C85.8974 216.045 90.6079 218 95.5197 218H163.312C168.224 218 172.934 216.045 176.408 212.565C179.881 209.085 181.832 204.365 181.832 199.444V79.0222C181.832 78.6997 182.093 78.4382 182.416 78.4382C182.738 78.4382 183 78.1767 183 77.8542L183 56.2008Z" fill="#F7F7FD"/>
</g>
<path opacity="0.11" d="M241.623 127.191C231.81 143.082 233.649 164.73 237.959 181.799C239.401 187.514 241.062 193.547 239.829 199.943C238.321 207.764 232.823 213.906 227.259 217.423C217.115 223.819 205.531 223.641 197.096 216.954C189.812 211.178 185.016 201.103 177.578 195.637C165.143 186.487 148.066 192.032 133.239 200.584C122.754 206.62 111.213 214.3 101.521 209.952C94.7027 206.898 90.4509 198.283 88.4665 188.907C87.5087 184.381 86.9293 179.436 84.7333 175.988C83.4262 173.938 81.6297 172.566 79.767 171.441C62.7676 161.181 39.7674 169.759 23.3738 158.141C12.301 150.296 6.00658 134.093 3.93754 116.767C1.8685 99.441 3.56977 80.9021 5.69966 62.6492C7.21572 49.6719 9.26624 35.7889 16.0713 25.235C23.2706 14.0719 34.6186 9.07964 44.4822 10.139C54.3459 11.1984 62.9104 17.4539 70.2923 25.0999C79.5183 34.6554 87.8394 46.8593 99.7801 49.9421C107.913 52.0423 116.795 49.611 125.445 48.2365C139.886 45.9377 154.125 46.5971 168.265 47.4605C181.801 48.2868 195.419 49.3144 208.032 54.0816C216.956 57.4583 223.806 64.4872 232.135 69.0584C237.564 72.0378 243.689 72.4166 248.748 76.3892C254.979 81.2835 260.371 90.3172 257.876 101.737C255.498 112.601 246.83 118.759 241.623 127.191Z" fill="#6C63FF"/>
<path d="M178 23.8345V199.166C178 202.835 176.539 206.353 173.94 208.948C171.34 211.542 167.814 213 164.137 213H95.8628C92.1861 213 88.6601 211.542 86.0604 208.948C83.4606 206.353 82.0001 202.835 82 199.166V23.8345C82.0001 20.1654 83.4606 16.6465 86.0604 14.0521C88.6601 11.4576 92.1861 10.0001 95.8628 10H104.145C103.738 10.9981 103.583 12.0806 103.694 13.1525C103.805 14.2244 104.177 15.2527 104.78 16.147C105.382 17.0413 106.195 17.7741 107.148 18.2811C108.101 18.7881 109.164 19.0537 110.244 19.0545H149.171C150.25 19.0537 151.313 18.7881 152.266 18.2811C153.219 17.7741 154.032 17.0412 154.635 16.1469C155.237 15.2527 155.61 14.2244 155.72 13.1525C155.831 12.0806 155.676 10.9981 155.269 10H164.137C167.814 10.0001 171.34 11.4576 173.94 14.0521C176.539 16.6465 178 20.1654 178 23.8345Z" fill="white"/>
<path d="M156 99.9469C155.551 100.19 155.095 100.42 154.63 100.637C154.208 100.835 153.778 101.022 153.342 101.196C153.183 101.259 153.021 101.322 152.859 101.385C151.577 101.867 150.26 102.243 148.921 102.511C148.258 102.646 147.587 102.752 146.906 102.829C146.345 102.895 145.777 102.942 145.204 102.97C144.796 102.991 144.387 103 143.976 103C142.348 103.001 140.724 102.843 139.124 102.529C138.707 102.451 138.299 102.358 137.89 102.255C135.916 101.765 134.004 101.033 132.196 100.076C132.034 99.9919 131.871 99.9018 131.709 99.8148C131.469 99.6827 131.235 99.5446 131 99.4005C131.113 99.2384 131.235 99.0793 131.359 98.9231C132.714 97.1823 134.407 95.7569 136.329 94.7401C138.25 93.7232 140.357 93.1376 142.511 93.0215C144.666 92.9053 146.819 93.2613 148.832 94.0661C150.845 94.8708 152.672 96.1064 154.193 97.6923C154.721 98.2418 155.211 98.8297 155.658 99.4515C155.777 99.6136 155.89 99.7787 156 99.9469Z" fill="#6C63FF"/>
<path d="M144 86C151.18 86 157 80.4036 157 73.5C157 66.5964 151.18 61 144 61C136.82 61 131 66.5964 131 73.5C131 80.4036 136.82 86 144 86Z" fill="#2F2E41"/>
<path d="M147.787 86.762C152.433 84.2225 154.14 78.3978 151.601 73.7522C149.061 69.1066 143.236 67.3993 138.591 69.9388C133.945 72.4783 132.238 78.303 134.777 82.9486C137.317 87.5942 143.142 89.3015 147.787 86.762Z" fill="#A0616A"/>
<path d="M154 71.9552C151.656 73.4126 148.874 74.1882 146.028 74.178C147.043 74.8132 148.199 75.2422 149.416 75.4356C145.631 76.168 141.719 76.1878 137.926 75.4938C137.083 75.3718 136.269 75.1197 135.52 74.7485C135.148 74.5606 134.823 74.304 134.567 73.9954C134.311 73.6867 134.13 73.333 134.036 72.9572C133.784 71.6579 134.906 70.4775 136.072 69.682C137.858 68.4826 139.916 67.6562 142.099 67.2627C144.282 66.8692 146.535 66.9183 148.694 67.4065C150.104 67.7353 151.516 68.2909 152.432 69.3124C153.348 70.3339 153.619 71.9088 152.747 72.9607L154 71.9552Z" fill="#2F2E41"/>
<path d="M144 49C138.33 48.9991 132.815 50.9235 128.295 54.4799C123.776 58.0363 120.501 63.0295 118.968 68.6987C117.435 74.3678 117.729 80.4019 119.806 85.8813C121.882 91.3607 125.626 95.9849 130.468 99.049L130.636 99.151C130.775 99.238 130.913 99.322 131.052 99.403C131.286 99.547 131.52 99.685 131.76 99.817C131.922 99.904 132.083 99.994 132.245 100.078C134.05 101.035 135.957 101.766 137.928 102.256C138.335 102.358 138.742 102.451 139.158 102.529C140.754 102.843 142.375 103.001 144 103C144.41 103 144.818 102.991 145.225 102.97C145.797 102.943 146.363 102.896 146.924 102.829C147.602 102.751 148.273 102.645 148.934 102.511C150.27 102.244 151.584 101.868 152.863 101.386C153.025 101.323 153.187 101.26 153.346 101.197C153.782 101.023 154.21 100.837 154.631 100.639C155.093 100.423 155.549 100.193 155.998 99.949C160.495 97.5032 164.212 93.7546 166.698 89.158C166.71 89.134 166.724 89.11 166.736 89.086C168.062 86.6144 169.003 83.9403 169.523 81.163C170.254 77.2532 170.143 73.224 169.199 69.3639C168.255 65.5037 166.5 61.9081 164.061 58.8346C161.622 55.761 158.559 53.2855 155.091 51.5853C151.623 49.8851 147.835 49.0023 144 49H144ZM166.262 88.735C166.239 88.777 166.218 88.819 166.195 88.858C163.759 93.3867 160.094 97.0715 155.657 99.454C155.215 99.694 154.765 99.919 154.308 100.129C153.929 100.306 153.542 100.474 153.152 100.63C152.987 100.696 152.82 100.762 152.652 100.822C151.547 101.241 150.415 101.578 149.264 101.83C148.41 102.019 147.546 102.16 146.678 102.253C146.144 102.313 145.6 102.355 145.054 102.376C144.705 102.391 144.352 102.4 144 102.4C142.428 102.402 140.859 102.25 139.314 101.947C138.375 101.767 137.446 101.531 136.532 101.239C135.141 100.793 133.789 100.224 132.491 99.538C132.34 99.457 132.19 99.376 132.043 99.292C131.832 99.175 131.618 99.055 131.41 98.926C131.254 98.836 131.098 98.74 130.945 98.644C130.856 98.59 130.766 98.533 130.676 98.476C126.431 95.7686 123.045 91.8264 120.937 87.1385C118.83 82.4506 118.094 77.2234 118.821 72.1052C119.548 66.987 121.707 62.2032 125.028 58.3472C128.35 54.4913 132.688 51.7328 137.506 50.4141C142.323 49.0954 147.407 49.2745 152.128 50.9291C156.848 52.5838 160.996 55.6412 164.059 59.722C167.121 63.8029 168.962 68.7275 169.354 73.8851C169.745 79.0427 168.67 84.2062 166.262 88.735H166.262Z" fill="#3F3D56"/>
<path d="M138.207 61.1712C138.041 59.61 135.904 58.6488 134.232 59.1204C132.561 59.592 131.464 61.098 131.132 62.6379C130.972 63.2865 130.957 63.9568 131.088 64.6105C131.218 65.2643 131.492 65.8885 131.892 66.4475C132.737 67.5355 134.29 68.2145 135.738 67.9383C137.391 67.623 138.536 66.1786 138.864 64.6949C139.191 63.2111 138.866 61.6814 138.541 60.1971L138.207 61.1712Z" fill="#2F2E41"/>
<path d="M157.306 63.1712C157.161 61.61 155.291 60.6488 153.828 61.1204C152.366 61.592 151.406 63.098 151.115 64.6379C150.976 65.2865 150.963 65.9568 151.077 66.6105C151.191 67.2643 151.43 67.8885 151.781 68.4475C152.52 69.5355 153.879 70.2145 155.146 69.9383C156.592 69.623 157.594 68.1786 157.881 66.6949C158.167 65.2111 157.883 63.6814 157.599 62.1971L157.306 63.1712Z" fill="#2F2E41"/>
<path d="M97.73 86C97.5481 85.9998 97.3683 85.9626 97.202 85.8906C97.0356 85.8186 96.8865 85.7134 96.7641 85.5819L82.2698 70.1259C82.1053 69.9509 81.9055 69.8112 81.683 69.7155C81.4605 69.6198 81.2201 69.5702 80.9769 69.57H4.38412C3.22178 69.5687 2.10742 69.1168 1.28552 68.3134C0.46362 67.51 0.00130501 66.4207 0 65.2846V38.2854C0.00130424 37.1492 0.46362 36.06 1.28552 35.2566C2.10742 34.4532 3.22178 34.0013 4.38412 34H103.616C104.778 34.0013 105.893 34.4532 106.714 35.2566C107.536 36.06 107.999 37.1492 108 38.2854V65.2846C107.999 66.4207 107.536 67.51 106.714 68.3134C105.893 69.1168 104.778 69.5687 103.616 69.57H100.803C100.338 69.5705 99.8918 69.7513 99.563 70.0727C99.2342 70.3941 99.0492 70.8299 99.0487 71.2845V84.7132C99.0498 84.9725 98.9702 85.2259 98.8205 85.4399C98.6708 85.6539 98.4579 85.8183 98.2104 85.9112C98.0573 85.9697 97.8944 85.9998 97.73 86Z" fill="white"/>
<path d="M97.73 86C97.5481 85.9998 97.3683 85.9626 97.202 85.8906C97.0356 85.8186 96.8865 85.7134 96.7641 85.5819L82.2698 70.1259C82.1053 69.9509 81.9055 69.8112 81.683 69.7155C81.4605 69.6198 81.2201 69.5702 80.9769 69.57H4.38412C3.22178 69.5687 2.10742 69.1168 1.28552 68.3134C0.46362 67.51 0.00130501 66.4207 0 65.2846V38.2854C0.00130424 37.1492 0.46362 36.06 1.28552 35.2566C2.10742 34.4532 3.22178 34.0013 4.38412 34H103.616C104.778 34.0013 105.893 34.4532 106.714 35.2566C107.536 36.06 107.999 37.1492 108 38.2854V65.2846C107.999 66.4207 107.536 67.51 106.714 68.3134C105.893 69.1168 104.778 69.5687 103.616 69.57H100.803C100.338 69.5705 99.8918 69.7513 99.563 70.0727C99.2342 70.3941 99.0492 70.8299 99.0487 71.2845V84.7132C99.0498 84.9725 98.9702 85.2259 98.8205 85.4399C98.6708 85.6539 98.4579 85.8183 98.2104 85.9112C98.0573 85.9697 97.8944 85.9998 97.73 86ZM4.38412 34.571C3.37667 34.5721 2.4108 34.9638 1.69842 35.6602C0.986037 36.3565 0.585326 37.3006 0.584188 38.2854V65.2846C0.585327 66.2693 0.986042 67.2135 1.69842 67.9098C2.4108 68.6061 3.37667 68.9978 4.38412 68.9989H80.9769C81.301 68.9993 81.6215 69.0653 81.9182 69.1929C82.2148 69.3205 82.4812 69.5068 82.7004 69.74L97.1947 85.196C97.2943 85.3021 97.4242 85.3764 97.5677 85.409C97.7111 85.4417 97.8613 85.4312 97.9985 85.3791C98.1358 85.3269 98.2537 85.2354 98.3368 85.1166C98.42 84.9978 98.4645 84.8572 98.4645 84.7132V71.2845C98.4652 70.6785 98.7117 70.0976 99.1501 69.6691C99.5884 69.2406 100.183 68.9996 100.803 68.9989H103.616C104.623 68.9978 105.589 68.6061 106.302 67.9098C107.014 67.2135 107.415 66.2693 107.416 65.2846V38.2854C107.415 37.3006 107.014 36.3565 106.302 35.6602C105.589 34.9638 104.623 34.5721 103.616 34.571H4.38412Z" fill="#DADADA"/>
<path d="M10.5 46C12.9853 46 15 44.2091 15 42C15 39.7909 12.9853 38 10.5 38C8.01472 38 6 39.7909 6 42C6 44.2091 8.01472 46 10.5 46Z" fill="#6C63FF"/>
<path d="M98.9428 63H8.06208C7.7914 63.0003 7.52332 62.9488 7.27315 62.8484C7.02298 62.7481 6.79564 62.6008 6.60412 62.4151C6.41261 62.2293 6.26067 62.0087 6.15701 61.7659C6.05335 61.5231 6 61.2628 6 61C6 60.7372 6.05335 60.4769 6.15701 60.2341C6.26067 59.9913 6.41261 59.7707 6.60412 59.5849C6.79564 59.3992 7.02298 59.2519 7.27315 59.1516C7.52332 59.0512 7.7914 58.9997 8.06208 59H98.9428C99.4887 59.0006 100.012 59.2116 100.398 59.5866C100.783 59.9616 101 60.47 101 61C101 61.53 100.783 62.0384 100.398 62.4134C100.012 62.7884 99.4887 62.9994 98.9428 63Z" fill="#E6E6E6"/>
<path d="M69.9213 54H8.08115C7.80796 54.0003 7.5374 53.9488 7.28492 53.8484C7.03244 53.7481 6.80299 53.6008 6.60971 53.4151C6.41642 53.2293 6.26308 53.0087 6.15847 52.7659C6.05385 52.5231 6 52.2628 6 52C6 51.7372 6.05385 51.4769 6.15847 51.2341C6.26308 50.9913 6.41642 50.7707 6.60971 50.5849C6.80299 50.3992 7.03244 50.2519 7.28492 50.1516C7.5374 50.0512 7.80796 49.9997 8.08115 50H69.9213C70.4726 50 71.0014 50.2107 71.3912 50.5858C71.781 50.9609 72 51.4696 72 52C72 52.5304 71.781 53.0391 71.3912 53.4142C71.0014 53.7893 70.4726 54 69.9213 54Z" fill="#E6E6E6"/>
<path d="M162.88 180.908C162.63 180.811 162.416 180.641 162.264 180.418C162.113 180.196 162.033 179.933 162.034 179.664V165.718C162.034 165.246 161.847 164.794 161.515 164.46C161.183 164.126 160.733 163.939 160.264 163.938H157.425C156.252 163.937 155.127 163.467 154.297 162.633C153.468 161.799 153.001 160.668 153 159.488V131.45C153.001 130.27 153.468 129.139 154.297 128.305C155.127 127.471 156.252 127.001 157.425 127H257.575C258.748 127.001 259.873 127.471 260.703 128.305C261.532 129.139 261.999 130.27 262 131.45V159.488C261.999 160.668 261.532 161.799 260.703 162.633C259.873 163.467 258.748 163.937 257.575 163.938H180.273C180.028 163.938 179.785 163.99 179.561 164.089C179.336 164.189 179.134 164.334 178.968 164.515L164.34 180.566C164.216 180.702 164.066 180.812 163.898 180.886C163.73 180.961 163.549 181 163.365 181C163.199 181 163.035 180.969 162.88 180.908Z" fill="white"/>
<path d="M162.88 180.908C162.63 180.811 162.416 180.641 162.264 180.418C162.113 180.196 162.033 179.933 162.034 179.664V165.718C162.034 165.246 161.847 164.794 161.515 164.46C161.183 164.126 160.733 163.939 160.264 163.938H157.425C156.252 163.937 155.127 163.467 154.297 162.633C153.468 161.799 153.001 160.668 153 159.488V131.45C153.001 130.27 153.468 129.139 154.297 128.305C155.127 127.471 156.252 127.001 157.425 127H257.575C258.748 127.001 259.873 127.471 260.703 128.305C261.532 129.139 261.999 130.27 262 131.45V159.488C261.999 160.668 261.532 161.799 260.703 162.633C259.873 163.467 258.748 163.937 257.575 163.938H180.273C180.028 163.938 179.785 163.99 179.561 164.089C179.336 164.189 179.134 164.334 178.968 164.515L164.34 180.566C164.216 180.702 164.066 180.812 163.898 180.886C163.73 180.961 163.549 181 163.365 181C163.199 181 163.035 180.969 162.88 180.908ZM157.425 127.593C156.408 127.594 155.433 128.001 154.714 128.724C153.995 129.447 153.591 130.428 153.59 131.45V159.488C153.591 160.51 153.995 161.491 154.714 162.214C155.433 162.937 156.408 163.344 157.425 163.345H160.264C160.89 163.346 161.489 163.596 161.932 164.041C162.374 164.486 162.623 165.089 162.624 165.718V179.664C162.624 179.813 162.669 179.959 162.753 180.083C162.837 180.206 162.956 180.301 163.094 180.355C163.233 180.409 163.384 180.42 163.529 180.386C163.674 180.352 163.805 180.275 163.905 180.165L178.534 164.115C178.755 163.872 179.024 163.679 179.323 163.546C179.623 163.414 179.946 163.345 180.273 163.345H257.575C258.592 163.344 259.567 162.937 260.286 162.214C261.005 161.491 261.409 160.51 261.41 159.488V131.45C261.409 130.428 261.005 129.447 260.286 128.724C259.567 128.001 258.592 127.594 257.575 127.593H157.425Z" fill="#DADADA"/>
<path d="M131 189.881C127.132 192.494 122.651 193.92 118.059 193.997C113.467 194.074 108.945 192.8 105 190.317C105.694 188.954 106.573 187.706 107.61 186.611C109.209 184.915 111.156 183.629 113.3 182.851C115.444 182.073 117.729 181.824 119.978 182.123C122.228 182.422 124.383 183.261 126.277 184.576C128.171 185.891 129.755 187.647 130.906 189.708C130.936 189.764 130.969 189.822 131 189.881Z" fill="#6C63FF"/>
<path d="M117 175C124.18 175 130 169.18 130 162C130 154.82 124.18 149 117 149C109.82 149 104 154.82 104 162C104 169.18 109.82 175 117 175Z" fill="#2F2E41"/>
<path d="M126.524 171.573C129.08 166.897 127.361 161.034 122.685 158.477C118.008 155.921 112.145 157.639 109.589 162.316C107.032 166.992 108.751 172.856 113.427 175.412C118.104 177.969 123.967 176.25 126.524 171.573Z" fill="#FFB8B8"/>
<path d="M107 160.955C109.344 162.413 112.126 163.188 114.972 163.178C113.957 163.813 112.801 164.242 111.584 164.436C115.369 165.168 119.281 165.188 123.074 164.494C123.917 164.372 124.731 164.12 125.48 163.749C125.852 163.561 126.177 163.304 126.433 162.995C126.689 162.687 126.87 162.333 126.964 161.957C127.216 160.658 126.094 159.478 124.928 158.682C123.142 157.483 121.084 156.656 118.901 156.263C116.718 155.869 114.465 155.918 112.306 156.407C110.896 156.735 109.484 157.291 108.568 158.312C107.652 159.334 107.381 160.909 108.253 161.961L107 160.955Z" fill="#2F2E41"/>
<path d="M117.492 194C111.357 193.998 105.428 191.697 100.793 187.52C96.1576 183.342 93.1273 177.568 92.2576 171.257C91.3878 164.945 92.737 158.519 96.0576 153.158C99.3782 147.796 104.448 143.859 110.336 142.067C116.224 140.276 122.536 140.751 128.115 143.405C133.693 146.059 138.164 150.715 140.707 156.517C143.25 162.32 143.694 168.881 141.958 174.996C140.223 181.112 136.424 186.372 131.258 189.812C127.15 192.549 122.372 194.003 117.492 194ZM117.492 141.573C112.559 141.572 107.736 143.092 103.633 145.94C99.5311 148.788 96.3337 152.837 94.4455 157.573C92.5573 162.31 92.0631 167.522 93.0255 172.551C93.9879 177.579 96.3636 182.198 99.8521 185.824C103.341 189.449 107.785 191.918 112.624 192.918C117.463 193.918 122.478 193.404 127.036 191.442C131.594 189.48 135.49 186.157 138.23 181.894C140.971 177.631 142.434 172.619 142.433 167.492C142.426 160.62 139.796 154.032 135.12 149.173C130.444 144.314 124.105 141.58 117.492 141.573Z" fill="#3F3D56"/>
<path d="M165.5 139C167.433 139 169 137.433 169 135.5C169 133.567 167.433 132 165.5 132C163.567 132 162 133.567 162 135.5C162 137.433 163.567 139 165.5 139Z" fill="#6C63FF"/>
<path d="M253.94 157H163.062C162.791 157 162.523 156.936 162.273 156.811C162.023 156.685 161.796 156.501 161.604 156.269C161.413 156.037 161.261 155.761 161.157 155.457C161.053 155.154 161 154.829 161 154.5C161 154.171 161.053 153.846 161.157 153.543C161.261 153.239 161.413 152.963 161.604 152.731C161.796 152.499 162.023 152.315 162.273 152.189C162.523 152.064 162.791 152 163.062 152H253.94C254.487 152 255.011 152.263 255.397 152.732C255.783 153.201 256 153.837 256 154.5C256 155.163 255.783 155.799 255.397 156.268C255.011 156.737 254.487 157 253.94 157Z" fill="#E6E6E6"/>
<path d="M224.924 148H163.081C162.808 148 162.537 147.949 162.285 147.848C162.032 147.748 161.803 147.601 161.61 147.415C161.416 147.229 161.263 147.009 161.158 146.766C161.054 146.523 161 146.263 161 146C161 145.737 161.054 145.477 161.158 145.234C161.263 144.991 161.416 144.771 161.61 144.585C161.803 144.399 162.032 144.252 162.285 144.152C162.537 144.051 162.808 144 163.081 144H224.924C225.475 144.001 226.003 144.212 226.392 144.587C226.781 144.962 227 145.47 227 146C227 146.53 226.781 147.038 226.392 147.413C226.003 147.788 225.475 147.999 224.924 148Z" fill="#E6E6E6"/>
<path d="M162.5 184C166.09 184 169 183.552 169 183C169 182.448 166.09 182 162.5 182C158.91 182 156 182.448 156 183C156 183.552 158.91 184 162.5 184Z" fill="#F2F2F2"/>
<path d="M99 89C102.866 89 106 88.7761 106 88.5C106 88.2239 102.866 88 99 88C95.134 88 92 88.2239 92 88.5C92 88.7761 95.134 89 99 89Z" fill="#F2F2F2"/>
<defs>
<filter id="filter0_d" x="68" y="0" width="124" height="231" filterUnits="userSpaceOnUse" color-interpolation-filters="sRGB">
<feFlood flood-opacity="0" result="BackgroundImageFix"/>
<feColorMatrix in="SourceAlpha" type="matrix" values="0 0 0 0 0 0 0 0 0 0 0 0 0 0 0 0 0 0 127 0"/>
<feOffset dy="4"/>
<feGaussianBlur stdDeviation="4.5"/>
<feColorMatrix type="matrix" values="0 0 0 0 0.4875 0 0 0 0 0.4875 0 0 0 0 0.4875 0 0 0 0.25 0"/>
<feBlend mode="normal" in2="BackgroundImageFix" result="effect1_dropShadow"/>
<feBlend mode="normal" in="SourceGraphic" in2="effect1_dropShadow" result="shape"/>
</filter>
</defs>
</svg>
