<svg width="247" height="223" viewBox="0 0 247 223" fill="none" xmlns="http://www.w3.org/2000/svg">
<path opacity="0.4" d="M65.0003 220.987L3.51502 185.55C-1.69342 182.548 -1.04236 177.306 4.99469 173.841L153.499 88.2713C159.517 84.8261 168.612 84.4323 173.82 87.4297L235.305 122.866C240.514 125.864 239.858 131.105 233.826 134.57L85.326 220.13C79.3037 223.595 70.2087 223.974 65.0003 220.987Z" fill="#D6D8E5"/>
<path d="M72.7884 216.306L11.3032 180.869C6.09472 177.872 6.75071 172.63 12.7828 169.165L161.283 83.6103C167.3 80.1651 176.395 79.7664 181.603 82.7687L243.089 118.205C248.297 121.208 247.646 126.449 241.609 129.914L93.1092 215.469C87.0919 218.934 77.9968 219.308 72.7884 216.306Z" fill="#B1B4C4"/>
<path d="M7.78638 175.726V170.076L14.4252 172.576L7.78638 175.726Z" fill="#B1B4C4"/>
<path d="M246.61 123.083V117.649L241.328 121.045L246.61 123.083Z" fill="#B1B4C4"/>
<path d="M72.7884 211.527L11.3032 176.09C6.09472 173.088 6.75071 167.846 12.7828 164.381L161.283 78.8264C167.3 75.3811 176.395 74.9874 181.603 77.9847L243.089 113.421C248.297 116.419 247.646 121.66 241.609 125.125L93.1092 210.685C87.0919 214.15 77.9968 214.529 72.7884 211.527Z" fill="#616E84"/>
<path d="M18.722 183.358C19.0381 183.176 19.0393 182.588 18.7247 182.044C18.4101 181.5 17.8987 181.207 17.5826 181.389C17.2665 181.571 17.2653 182.16 17.5799 182.704C17.8945 183.247 18.4059 183.541 18.722 183.358Z" fill="#757B89"/>
<path d="M21.6819 185.064C21.998 184.882 21.9993 184.293 21.6846 183.75C21.37 183.206 20.8587 182.913 20.5426 183.095C20.2265 183.277 20.2253 183.865 20.5399 184.409C20.8545 184.953 21.3658 185.246 21.6819 185.064Z" fill="#757B89"/>
<path d="M24.6443 186.77C24.9604 186.588 24.9617 185.999 24.647 185.456C24.3324 184.912 23.8211 184.619 23.505 184.801C23.1889 184.983 23.1877 185.571 23.5023 186.115C23.8169 186.659 24.3282 186.952 24.6443 186.77Z" fill="#757B89"/>
<path d="M27.6043 188.475C27.9204 188.293 27.9216 187.705 27.607 187.161C27.2924 186.617 26.7811 186.324 26.465 186.506C26.1488 186.688 26.1476 187.277 26.4623 187.82C26.7769 188.364 27.2882 188.657 27.6043 188.475Z" fill="#757B89"/>
<path d="M53.014 203.115C53.3301 202.933 53.3313 202.345 53.0167 201.801C52.702 201.257 52.1907 200.964 51.8746 201.146C51.5585 201.328 51.5573 201.917 51.8719 202.461C52.1865 203.004 52.6979 203.298 53.014 203.115Z" fill="#757B89"/>
<path d="M55.9739 204.821C56.29 204.639 56.2912 204.05 55.9766 203.507C55.662 202.963 55.1507 202.67 54.8346 202.852C54.5185 203.034 54.5173 203.622 54.8319 204.166C55.1465 204.71 55.6578 205.003 55.9739 204.821Z" fill="#757B89"/>
<path d="M58.9312 206.527C59.2473 206.345 59.2485 205.756 58.9339 205.213C58.6193 204.669 58.108 204.376 57.7919 204.558C57.4757 204.74 57.4745 205.328 57.7892 205.872C58.1038 206.416 58.6151 206.709 58.9312 206.527Z" fill="#757B89"/>
<path d="M61.8914 208.233C62.2075 208.05 62.2087 207.462 61.8941 206.918C61.5795 206.374 61.0682 206.081 60.7521 206.263C60.4359 206.445 60.4347 207.034 60.7494 207.578C61.064 208.121 61.5753 208.415 61.8914 208.233Z" fill="#757B89"/>
<path d="M43.8064 198.391L35.678 193.705C35.3965 193.505 35.1656 193.241 35.0038 192.936C34.842 192.631 34.7537 192.293 34.7458 191.948C34.7458 191.264 35.1602 190.964 35.678 191.244L43.8064 195.93C44.0906 196.132 44.3231 196.398 44.485 196.707C44.647 197.016 44.7338 197.358 44.7386 197.706C44.7386 198.371 44.3242 198.686 43.8064 198.391Z" fill="#757B89"/>
<path d="M228.001 136.534L220.44 140.89C219.946 141.165 219.572 140.89 219.572 140.235C219.576 139.911 219.658 139.592 219.808 139.305C219.959 139.018 220.175 138.77 220.44 138.581L228.001 134.226C228.494 133.95 228.864 134.226 228.864 134.88C228.859 135.204 228.779 135.522 228.629 135.809C228.479 136.097 228.264 136.345 228.001 136.534Z" fill="#757B89"/>
<path d="M216.42 143.223L208.859 147.578C208.366 147.854 207.991 147.578 207.991 146.924C207.996 146.6 208.077 146.283 208.228 145.996C208.379 145.71 208.595 145.463 208.859 145.275L216.42 140.919C216.913 140.644 217.283 140.919 217.283 141.574C217.279 141.897 217.198 142.215 217.048 142.501C216.898 142.787 216.683 143.035 216.42 143.223Z" fill="#757B89"/>
<path d="M72.7884 210.651L11.3032 175.214C6.09472 172.217 6.75071 166.975 12.7828 163.51L161.283 77.9601C167.3 74.5148 176.395 74.1162 181.603 77.1185L243.089 112.555C248.297 115.557 247.646 120.799 241.609 124.264L93.1092 209.819C87.0919 213.284 77.9968 213.658 72.7884 210.651Z" fill="#20232D"/>
<path d="M233.535 115.43L209.53 101.599L209.47 101.634C206.634 103.268 202.038 103.268 199.201 101.634C196.365 99.9999 196.365 97.352 199.201 95.7278L199.261 95.6933L175.255 81.8632C171.611 79.7616 165.697 79.7616 162.052 81.8632L17.3943 165.193C13.7494 167.295 13.7494 170.701 17.3943 172.798L75.6687 206.374C79.3186 208.475 85.2274 208.475 88.8723 206.374L233.535 123.044C237.18 120.937 237.18 117.531 233.535 115.43Z" fill="#F2F5F9"/>
<path d="M205.717 99.6947C207.24 99.6947 208.474 98.983 208.474 98.105C208.474 97.227 207.24 96.5153 205.717 96.5153C204.194 96.5153 202.96 97.227 202.96 98.105C202.96 98.983 204.194 99.6947 205.717 99.6947Z" fill="#2B303F"/>
<path opacity="0.1" d="M204.903 98.5773C204.803 98.5462 204.715 98.4838 204.652 98.3992C204.59 98.3146 204.556 98.2124 204.556 98.1073C204.556 98.0023 204.59 97.9 204.652 97.8154C204.715 97.7309 204.803 97.6684 204.903 97.6373C205.156 97.5085 205.436 97.4414 205.719 97.4414C206.003 97.4414 206.283 97.5085 206.536 97.6373C206.636 97.6684 206.724 97.7309 206.787 97.8154C206.849 97.9 206.883 98.0023 206.883 98.1073C206.883 98.2124 206.849 98.3146 206.787 98.3992C206.724 98.4838 206.636 98.5462 206.536 98.5773C206.283 98.7061 206.003 98.7732 205.719 98.7732C205.436 98.7732 205.156 98.7061 204.903 98.5773Z" fill="white"/>
<path d="M136.868 172.074L85.6021 201.821L64.8127 189.846L116.083 160.099L136.868 172.074Z" fill="#B9CC00"/>
<path d="M189.302 98.9121L100.867 150.344L76.655 137.115L165.085 85.6824L189.302 98.9121Z" fill="#B9CC00"/>
<path d="M101.652 129.983H99.2449V138.429C99.254 138.535 99.2913 138.636 99.3528 138.723C99.4144 138.809 99.498 138.878 99.5951 138.921C99.8587 139.055 100.15 139.124 100.446 139.124C100.742 139.124 101.033 139.055 101.297 138.921C101.395 138.879 101.48 138.811 101.542 138.724C101.605 138.637 101.643 138.535 101.652 138.429V129.983Z" fill="#443D31"/>
<path d="M100.508 130.111C103.992 130.111 106.816 127.293 106.816 123.816C106.816 120.339 103.992 117.521 100.508 117.521C97.0236 117.521 94.1992 120.339 94.1992 123.816C94.1992 127.293 97.0236 130.111 100.508 130.111Z" fill="#C6E800"/>
<path d="M116.399 121.537H113.992V129.978C114.001 130.085 114.039 130.187 114.101 130.273C114.164 130.36 114.249 130.428 114.347 130.47C114.611 130.604 114.902 130.674 115.198 130.674C115.494 130.674 115.785 130.604 116.049 130.47C116.146 130.427 116.229 130.358 116.291 130.272C116.352 130.185 116.39 130.084 116.399 129.978V121.537Z" fill="#443D31"/>
<path d="M115.255 121.665C118.739 121.665 121.563 118.847 121.563 115.37C121.563 111.894 118.739 109.075 115.255 109.075C111.771 109.075 108.946 111.894 108.946 115.37C108.946 118.847 111.771 121.665 115.255 121.665Z" fill="#C6E800"/>
<path d="M147.092 105.458H144.686V113.904C144.695 114.01 144.732 114.112 144.795 114.199C144.857 114.285 144.942 114.354 145.041 114.396C145.304 114.53 145.596 114.599 145.891 114.599C146.187 114.599 146.479 114.53 146.742 114.396C146.839 114.352 146.923 114.284 146.985 114.197C147.046 114.111 147.083 114.009 147.092 113.904V105.458Z" fill="#443D31"/>
<path d="M145.948 105.586C149.432 105.586 152.256 102.768 152.256 99.2913C152.256 95.8147 149.432 92.9963 145.948 92.9963C142.464 92.9963 139.64 95.8147 139.64 99.2913C139.64 102.768 142.464 105.586 145.948 105.586Z" fill="#C6E800"/>
<path d="M192.725 108.716L58.1346 186.258L53.01 183.305L187.601 105.763L192.725 108.716Z" fill="#FF6161"/>
<path d="M202.856 135.761L181.5 123.457V72.2704L202.856 84.5748V135.761Z" fill="#E4E7EF"/>
<path d="M202.856 84.575L181.5 72.2706L202.856 59.9662L224.213 72.2706L202.856 84.575Z" fill="#EDF1F9"/>
<path d="M199.014 95.1566L185.347 87.2818V80.3914L199.014 88.2662V95.1566Z" fill="#300099"/>
<path d="M224.213 123.457L202.856 135.766V84.5799L224.213 72.2755V123.457Z" fill="#DADCE5"/>
<path d="M211.828 92.2087L206.698 95.1618V88.2713L211.828 85.3182V92.2087Z" fill="#300099"/>
<path d="M220.37 87.2867L215.241 90.2398V83.3493L220.37 80.3962V87.2867Z" fill="#300099"/>
<path d="M211.828 102.544L206.698 105.497V98.6069L211.828 95.6538V102.544Z" fill="#300099"/>
<path d="M220.37 97.6225L215.241 100.576V93.6851L220.37 90.7321V97.6225Z" fill="#300099"/>
<path d="M211.828 112.88L206.698 115.833V108.942L211.828 105.989V112.88Z" fill="#300099"/>
<path d="M220.37 107.958L215.241 110.911V104.021L220.37 101.068V107.958Z" fill="#300099"/>
<path d="M211.828 123.708L206.698 126.661V119.771L211.828 116.818V123.708Z" fill="#300099"/>
<path d="M220.37 118.786L215.241 121.739V114.849L220.37 111.896V118.786Z" fill="#300099"/>
<path d="M199.014 105.492L185.347 97.6174V90.7269L199.014 98.6017V105.492Z" fill="#300099"/>
<path d="M199.014 115.828L185.347 107.953V101.063L199.014 108.938V115.828Z" fill="#300099"/>
<path d="M199.014 126.656L185.347 118.781V111.891L199.014 119.766V126.656Z" fill="#300099"/>
<path d="M202.856 79.166L190.535 72.0688V69.8688L202.856 76.9709V79.166Z" fill="#E4E7EF"/>
<path d="M202.856 79.166L215.182 72.0688V69.8688L202.856 76.9709V79.166Z" fill="#DADCE5"/>
<path d="M75.2101 165.149L53.8535 152.845V72.1327L75.2101 84.4371V165.149Z" fill="#E4E7EF"/>
<path d="M75.2101 84.4373L53.8535 72.1329L75.2101 59.8285L96.5667 72.1329L75.2101 84.4373Z" fill="#EDF1F9"/>
<path d="M71.363 95.0189L57.6958 87.1441V80.2537L71.363 88.1285V95.0189Z" fill="#84A6F4"/>
<path d="M96.5665 152.85L75.21 165.154V84.4371L96.5665 72.1327V152.85Z" fill="#DADCE5"/>
<path d="M84.1768 92.0658L79.0522 95.0188V88.1283L84.1768 85.1753V92.0658Z" fill="#84A6F4"/>
<path d="M92.7193 87.1441L87.5947 90.0972V83.2067L92.7193 80.2537V87.1441Z" fill="#84A6F4"/>
<path d="M84.1768 102.401L79.0522 105.354V98.464L84.1768 95.511V102.401Z" fill="#84A6F4"/>
<path d="M92.7193 97.4797L87.5947 100.433V93.5423L92.7193 90.5892V97.4797Z" fill="#84A6F4"/>
<path d="M84.1768 112.737L79.0522 115.69V108.8L84.1768 105.847V112.737Z" fill="#84A6F4"/>
<path d="M92.7193 107.816L87.5947 110.769V103.878L92.7193 100.925V107.816Z" fill="#84A6F4"/>
<path d="M84.1768 123.565L79.0522 126.518V119.628L84.1768 116.675V123.565Z" fill="#84A6F4"/>
<path d="M92.7193 118.643L87.5947 121.596V114.706L92.7193 111.753V118.643Z" fill="#84A6F4"/>
<path d="M84.1768 135.126L79.0522 138.079V131.194L84.1768 128.241V135.126Z" fill="#84A6F4"/>
<path d="M92.7193 130.205L87.5947 133.158V126.272L92.7193 123.319V130.205Z" fill="#84A6F4"/>
<path d="M84.1768 146.948L79.0522 149.902V143.011L84.1768 140.058V146.948Z" fill="#84A6F4"/>
<path d="M92.7193 142.027L87.5947 144.98V138.089L92.7193 135.136V142.027Z" fill="#84A6F4"/>
<path d="M71.363 105.355L57.6958 97.4797V90.5892L71.363 98.464V105.355Z" fill="#84A6F4"/>
<path d="M71.363 115.69L57.6958 107.816V100.925L71.363 108.8V115.69Z" fill="#84A6F4"/>
<path d="M71.363 126.518L57.6958 118.643V111.753L71.363 119.628V126.518Z" fill="#84A6F4"/>
<path d="M71.363 138.079L57.6958 130.205V123.319L71.363 131.194V138.079Z" fill="#84A6F4"/>
<path d="M71.363 149.901L57.6958 142.027V135.136L71.363 143.011V149.901Z" fill="#84A6F4"/>
<path d="M75.2099 79.0279L62.8843 71.9307V69.7307L75.2099 76.8328V79.0279Z" fill="#E4E7EF"/>
<path d="M75.21 79.0279L87.5356 71.9307V69.7307L75.21 76.8328V79.0279Z" fill="#DADCE5"/>
<path d="M75.2101 165.149L53.8535 152.845V72.1327L75.2101 84.4371V165.149Z" fill="#E4E7EF"/>
<path d="M75.2101 84.4373L53.8535 72.1329L75.2101 59.8285L96.5667 72.1329L75.2101 84.4373Z" fill="#EDF1F9"/>
<path d="M71.3679 95.0189L57.6958 87.1441V80.2537L71.3679 88.1285V95.0189Z" fill="#300099"/>
<path d="M96.5665 152.85L75.21 165.154V84.4371L96.5665 72.1327V152.85Z" fill="#DADCE5"/>
<path d="M84.1818 92.0658L79.0522 95.0188V88.1283L84.1818 85.1753V92.0658Z" fill="#300099"/>
<path d="M92.7242 87.1441L87.5947 90.0972V83.2067L92.7242 80.2537V87.1441Z" fill="#300099"/>
<path d="M84.1818 102.401L79.0522 105.354V98.464L84.1818 95.511V102.401Z" fill="#300099"/>
<path d="M92.7242 97.4797L87.5947 100.433V93.5423L92.7242 90.5892V97.4797Z" fill="#300099"/>
<path d="M84.1818 112.737L79.0522 115.69V108.8L84.1818 105.847V112.737Z" fill="#300099"/>
<path d="M92.7242 107.816L87.5947 110.769V103.878L92.7242 100.925V107.816Z" fill="#300099"/>
<path d="M84.1818 123.565L79.0522 126.518V119.628L84.1818 116.675V123.565Z" fill="#300099"/>
<path d="M92.7242 118.643L87.5947 121.596V114.706L92.7242 111.753V118.643Z" fill="#300099"/>
<path d="M84.1818 135.126L79.0522 138.079V131.194L84.1818 128.241V135.126Z" fill="#300099"/>
<path d="M92.7242 130.205L87.5947 133.158V126.272L92.7242 123.319V130.205Z" fill="#300099"/>
<path d="M84.1818 146.948L79.0522 149.902V143.011L84.1818 140.058V146.948Z" fill="#300099"/>
<path d="M92.7242 142.027L87.5947 144.98V138.089L92.7242 135.136V142.027Z" fill="#300099"/>
<path d="M71.3679 105.355L57.6958 97.4797V90.5892L71.3679 98.464V105.355Z" fill="#300099"/>
<path d="M71.3679 115.69L57.6958 107.816V100.925L71.3679 108.8V115.69Z" fill="#300099"/>
<path d="M71.3679 126.518L57.6958 118.643V111.753L71.3679 119.628V126.518Z" fill="#300099"/>
<path d="M71.3679 138.079L57.6958 130.205V123.319L71.3679 131.194V138.079Z" fill="#300099"/>
<path d="M71.3679 149.901L57.6958 142.027V135.136L71.3679 143.011V149.901Z" fill="#300099"/>
<path d="M75.2099 79.0279L62.8843 71.9307V69.7307L75.2099 76.8328V79.0279Z" fill="#E4E7EF"/>
<path d="M75.21 79.0279L87.5356 71.9307V69.7307L75.21 76.8328V79.0279Z" fill="#DADCE5"/>
<path d="M171.25 153.233L149.894 140.929V60.2122L171.25 72.5166V153.233Z" fill="#E4E7EF"/>
<path d="M171.25 72.5168L149.889 60.2124L171.246 47.908L192.607 60.2124L171.25 72.5168Z" fill="#EDF1F9"/>
<path d="M167.403 83.0984L153.736 75.2236V68.3331L167.403 76.2079V83.0984Z" fill="#300099"/>
<path d="M192.607 140.934L171.246 153.239V72.5217L192.607 60.2173V140.934Z" fill="#DADCE5"/>
<path d="M180.217 80.1501L175.093 83.1032V76.2127L180.217 73.2596V80.1501Z" fill="#300099"/>
<path d="M188.76 75.2284L183.635 78.1814V71.2909L188.76 68.3379V75.2284Z" fill="#300099"/>
<path d="M180.217 90.4861L175.093 93.4391V86.5486L180.217 83.5956V90.4861Z" fill="#300099"/>
<path d="M188.76 85.5643L183.635 88.5173V81.6269L188.76 78.6738V85.5643Z" fill="#300099"/>
<path d="M180.217 100.822L175.093 103.775V96.8842L180.217 93.9312V100.822Z" fill="#300099"/>
<path d="M188.76 95.8999L183.635 98.8529V91.9625L188.76 89.0094V95.8999Z" fill="#300099"/>
<path d="M180.217 111.649L175.093 114.602V107.712L180.217 104.759V111.649Z" fill="#300099"/>
<path d="M188.76 106.728L183.635 109.681V102.79L188.76 99.8373V106.728Z" fill="#300099"/>
<path d="M180.217 123.211L175.093 126.164V119.273L180.217 116.32V123.211Z" fill="#300099"/>
<path d="M188.76 118.289L183.635 121.242V114.351L188.76 111.398V118.289Z" fill="#300099"/>
<path d="M180.217 135.033L175.093 137.986V131.095L180.217 128.142V135.033Z" fill="#300099"/>
<path d="M188.76 130.111L183.635 133.064V126.174L188.76 123.216V130.111Z" fill="#300099"/>
<path d="M167.403 93.434L153.736 85.5592V78.6687L167.403 86.5435V93.434Z" fill="#300099"/>
<path d="M167.403 103.77L153.736 95.8951V89.0046L167.403 96.8794V103.77Z" fill="#300099"/>
<path d="M167.403 114.598L153.736 106.723V99.8325L167.403 107.707V114.598Z" fill="#300099"/>
<path d="M167.403 126.164L153.736 118.289V111.398L167.403 119.273V126.164Z" fill="#300099"/>
<path d="M167.403 137.986L153.736 130.111V123.216L167.403 131.095V137.986Z" fill="#300099"/>
<path d="M171.25 67.1125L158.925 60.0104V57.8153L171.25 64.9125V67.1125Z" fill="#E4E7EF"/>
<path d="M171.25 67.1125L183.576 60.0104V57.8153L171.25 64.9125V67.1125Z" fill="#DADCE5"/>
<path d="M47.4464 180.904L26.0898 168.599V117.413L47.4464 129.717V180.904Z" fill="#E4E7EF"/>
<path d="M47.4464 129.717L26.0898 117.413L47.4415 105.109L68.803 117.413L47.4464 129.717Z" fill="#EDF1F9"/>
<path d="M43.5991 140.299L29.9319 132.424V125.534L43.5991 133.409V140.299Z" fill="#300099"/>
<path d="M68.8031 168.599L47.4465 180.904V129.722L68.8031 117.418V168.599Z" fill="#DADCE5"/>
<path d="M56.4132 137.351L51.2886 140.304V133.413L56.4132 130.46V137.351Z" fill="#300099"/>
<path d="M64.9556 132.429L59.8311 135.382V128.492L64.9556 125.539V132.429Z" fill="#300099"/>
<path d="M56.4132 147.687L51.2886 150.64V143.749L56.4132 140.796V147.687Z" fill="#300099"/>
<path d="M64.9556 142.765L59.8311 145.718V138.828L64.9556 135.875V142.765Z" fill="#300099"/>
<path d="M56.4132 158.022L51.2886 160.975V154.085L56.4132 151.132V158.022Z" fill="#300099"/>
<path d="M64.9556 153.101L59.8311 156.054V149.163L64.9556 146.21V153.101Z" fill="#300099"/>
<path d="M56.4132 168.845L51.2886 171.798V164.908L56.4132 161.955V168.845Z" fill="#300099"/>
<path d="M64.9556 163.924L59.8311 166.877V159.986L64.9556 157.033V163.924Z" fill="#300099"/>
<path d="M43.5991 150.635L29.9319 142.76V135.87L43.5991 143.744V150.635Z" fill="#300099"/>
<path d="M43.5991 160.97L29.9319 153.096V146.205L43.5991 154.08V160.97Z" fill="#300099"/>
<path d="M43.5991 171.798L29.9319 163.924V157.033L43.5991 164.908V171.798Z" fill="#300099"/>
<path d="M47.4465 124.308L35.1208 117.211V115.011L47.4465 122.113V124.308Z" fill="#E4E7EF"/>
<path d="M47.4465 124.308L59.7722 117.211V115.011L47.4465 122.113V124.308Z" fill="#DADCE5"/>
<path d="M140.715 170.179L119.358 157.875V106.688L140.715 118.993V170.179Z" fill="#E4E7EF"/>
<path d="M140.715 118.993L119.354 106.688L140.71 94.3839L162.072 106.688L140.715 118.993Z" fill="#EDF1F9"/>
<path d="M136.868 129.574L123.201 121.7V114.809L136.868 122.684V129.574Z" fill="#300099"/>
<path d="M162.071 157.875L140.715 170.179V118.998L162.071 106.693V157.875Z" fill="#DADCE5"/>
<path d="M149.682 126.626L144.557 129.579V122.689L149.682 119.736V126.626Z" fill="#300099"/>
<path d="M158.224 121.705L153.1 124.658V117.767L158.224 114.814V121.705Z" fill="#300099"/>
<path d="M149.682 136.962L144.557 139.915V133.025L149.682 130.072V136.962Z" fill="#300099"/>
<path d="M158.224 132.04L153.1 134.993V128.103L158.224 125.15V132.04Z" fill="#300099"/>
<path d="M149.682 147.293L144.557 150.246V143.356L149.682 140.403V147.293Z" fill="#300099"/>
<path d="M158.224 142.371L153.1 145.324V138.434L158.224 135.481V142.371Z" fill="#300099"/>
<path d="M149.682 158.121L144.557 161.074V154.183L149.682 151.23V158.121Z" fill="#300099"/>
<path d="M158.224 153.199L153.1 156.152V149.262L158.224 146.308V153.199Z" fill="#300099"/>
<path d="M136.868 139.91L123.201 132.036V125.145L136.868 133.02V139.91Z" fill="#300099"/>
<path d="M136.868 150.246L123.201 142.371V135.481L136.868 143.356V150.246Z" fill="#300099"/>
<path d="M136.868 161.074L123.201 153.199V146.308L136.868 154.183V161.074Z" fill="#300099"/>
<path d="M140.715 113.584L128.389 106.487V104.287L140.715 111.389V113.584Z" fill="#E4E7EF"/>
<path d="M140.715 113.584L153.041 106.487V104.287L140.715 111.389V113.584Z" fill="#DADCE5"/>
<path d="M116.735 165.941H114.328V174.387C114.338 174.493 114.376 174.595 114.438 174.681C114.501 174.768 114.585 174.836 114.683 174.879C114.946 175.013 115.238 175.083 115.534 175.083C115.829 175.083 116.121 175.013 116.384 174.879C116.481 174.835 116.564 174.766 116.625 174.68C116.687 174.594 116.724 174.493 116.735 174.387V165.941Z" fill="#443D31"/>
<path d="M115.59 166.069C119.074 166.069 121.899 163.251 121.899 159.774C121.899 156.298 119.074 153.479 115.59 153.479C112.106 153.479 109.282 156.298 109.282 159.774C109.282 163.251 112.106 166.069 115.59 166.069Z" fill="#C6E800"/>
<path d="M102.135 174.367H99.7283V182.813C99.7373 182.92 99.7752 183.022 99.8377 183.108C99.9002 183.195 99.9851 183.263 100.083 183.305C100.347 183.439 100.639 183.509 100.934 183.509C101.23 183.509 101.521 183.439 101.785 183.305C101.882 183.262 101.966 183.193 102.027 183.107C102.089 183.02 102.126 182.919 102.135 182.813V174.367Z" fill="#443D31"/>
<path d="M100.991 174.495C104.475 174.495 107.299 171.677 107.299 168.2C107.299 164.724 104.475 161.906 100.991 161.906C97.5067 161.906 94.6824 164.724 94.6824 168.2C94.6824 171.677 97.5067 174.495 100.991 174.495Z" fill="#C6E800"/>
<path d="M86.5146 183.379H84.1077V191.82C84.1173 191.926 84.1548 192.027 84.2163 192.113C84.2778 192.2 84.3611 192.268 84.4579 192.312C84.7224 192.446 85.0147 192.515 85.3111 192.515C85.6076 192.515 85.8999 192.446 86.1644 192.312C86.2611 192.268 86.3445 192.2 86.406 192.113C86.4675 192.027 86.505 191.926 86.5146 191.82V183.379Z" fill="#443D31"/>
<path d="M85.3703 183.507C88.8543 183.507 91.6787 180.689 91.6787 177.212C91.6787 173.736 88.8543 170.917 85.3703 170.917C81.8863 170.917 79.062 173.736 79.062 177.212C79.062 180.689 81.8863 183.507 85.3703 183.507Z" fill="#C6E800"/>
<path d="M174.382 1.78603C171.038 -0.138382 167.97 -0.453375 165.662 0.580195C165.302 0.740676 164.959 0.935152 164.636 1.16096L159.951 3.80395C159.951 3.80395 160.843 4.41424 161.855 5.07868C161.416 6.45993 161.202 7.90205 161.218 9.35077C161.225 10.8406 161.39 12.3254 161.711 13.7804L160.355 13.8837C160.355 14.0215 162.501 25.3071 162.747 25.7599C162.994 26.2127 167.009 31.0311 167.112 30.9917C167.354 30.6376 167.575 30.2694 167.773 29.8893C169.396 33.4969 170.984 36.7797 172.212 39.1766L168.118 41.0567L169.598 46.072L174.89 43.055C174.92 43.0432 174.948 43.0284 174.974 43.0107C176.829 41.5932 183.137 36.4697 186.432 30.0665C187.247 28.3406 187.641 26.4464 187.581 24.5393C187.547 16.1723 181.643 5.96952 174.382 1.78603ZM174.382 24.8297C170.614 22.6592 167.546 17.3585 167.546 13.0175C167.546 9.39014 169.687 7.56909 172.582 8.32704L172.01 8.58298C172.395 9.03578 178.698 20.0704 178.979 21.2663C179.309 22.2634 179.81 23.1959 180.459 24.0225C179.349 25.9273 177.066 26.3653 174.382 24.8297Z" fill="#DB4949"/>
<path d="M169.1 4.79822C161.845 0.614728 155.941 4.02059 155.941 12.3827C155.964 14.7137 156.352 17.0268 157.09 19.2387C160.38 29.4316 166.708 41.8345 168.547 45.383C168.672 45.6345 168.863 45.8472 169.1 45.9983C169.179 46.058 169.275 46.0924 169.375 46.0968C169.474 46.1012 169.573 46.0754 169.657 46.0229C171.512 44.6054 177.825 39.4819 181.115 33.0787C181.929 31.3558 182.322 29.4652 182.264 27.5614C182.264 19.1944 176.36 8.98172 169.1 4.79822ZM169.1 27.8468C165.332 25.6714 162.264 20.3707 162.264 16.0346C162.264 11.6985 165.332 9.9267 169.1 12.0972C172.868 14.2677 175.941 19.5684 175.941 23.9094C175.941 28.2504 172.873 30.0222 169.1 27.8468Z" fill="#FF6161"/>
<path opacity="0.1" d="M171.251 61.0586C175.007 61.0586 178.052 59.3046 178.052 57.1409C178.052 54.9772 175.007 53.2231 171.251 53.2231C167.494 53.2231 164.449 54.9772 164.449 57.1409C164.449 59.3046 167.494 61.0586 171.251 61.0586Z" fill="black"/>
</svg>
