<svg width="259" height="215" viewBox="0 0 259 215" fill="none" xmlns="http://www.w3.org/2000/svg">
<g clip-path="url(#clip0)">
<path opacity="0.11" d="M241.898 118.803C231.95 134.911 233.814 156.857 238.183 174.16C239.645 179.954 241.329 186.07 240.079 192.553C238.551 200.482 232.977 206.708 227.337 210.273C217.053 216.757 205.311 216.577 196.76 209.798C189.376 203.942 184.513 193.729 176.974 188.188C164.368 178.912 147.057 184.534 132.026 193.203C121.397 199.322 109.697 207.108 99.8723 202.699C92.9604 199.604 88.6502 190.87 86.6385 181.366C85.6676 176.778 85.0802 171.765 82.854 168.27C81.529 166.192 79.7078 164.801 77.8196 163.66C60.5867 153.259 37.2707 161.955 20.6521 150.177C9.42725 142.225 3.0464 125.799 0.948948 108.235C-1.1485 90.6714 0.576127 71.8779 2.73526 53.3744C4.27214 40.219 6.35082 26.1453 13.2493 15.4465C20.5475 4.13014 32.0513 -0.930679 42.0503 0.143234C52.0494 1.21715 60.7316 7.5586 68.2148 15.3096C77.5675 24.9963 86.0029 37.3677 98.1074 40.4928C106.352 42.6219 115.356 40.1572 124.124 38.7638C138.764 36.4334 153.199 37.1019 167.532 37.9772C181.254 38.8148 195.059 39.8565 207.845 44.6891C216.892 48.1122 223.836 55.2376 232.28 59.8716C237.784 62.892 243.993 63.2759 249.121 67.303C255.438 72.2645 260.904 81.4223 258.374 92.9991C255.963 104.012 247.176 110.254 241.898 118.803Z" fill="#6C63FF"/>
<path d="M178.227 82.3905C178.227 82.3905 205.317 59.6692 211.341 48.2133C217.365 36.7573 225.033 26.8854 225.033 26.8854" stroke="#535461" stroke-width="2" stroke-miterlimit="10"/>
<path d="M221.471 52.4956L209.753 49.8511C209.753 49.8511 212.518 62.2226 221.471 52.4956Z" fill="#300099"/>
<path d="M203.565 39.8663L210.308 49.9745C210.308 49.9745 197.125 50.9276 203.565 39.8663Z" fill="#300099"/>
<path d="M226.082 42.9941L215.372 41.1147C215.372 41.1147 222.099 51.3572 226.082 42.9941Z" fill="#300099"/>
<path d="M210.233 33.9597L215.509 40.8757C215.509 40.8757 206.169 41.7617 210.233 33.9597Z" fill="#300099"/>
<path d="M220.911 32.5825C220.911 32.5825 230.03 33.0175 231.103 33.89C232.176 34.7626 229.743 39.8771 226.275 39.0421C222.807 38.2071 220.911 32.5825 220.911 32.5825Z" fill="#300099"/>
<path d="M217.266 24.4235C217.266 24.4235 220.991 31.2186 220.852 32.5127C220.712 33.8068 215.173 35.2592 214.055 30.3649C212.937 25.4705 217.266 24.4235 217.266 24.4235Z" fill="#300099"/>
<path d="M228.851 29.6133C229.273 28.2765 228.532 26.8506 227.197 26.4284C225.861 26.0063 224.437 26.7478 224.015 28.0845C223.593 29.4213 224.334 30.8472 225.669 31.2694C227.005 31.6915 228.429 30.95 228.851 29.6133Z" fill="#300099"/>
<path d="M224.881 27.0011C225.303 25.6643 224.562 24.2384 223.227 23.8162C221.891 23.3941 220.467 24.1356 220.045 25.4723C219.623 26.8091 220.364 28.235 221.7 28.6572C223.035 29.0793 224.46 28.3378 224.881 27.0011Z" fill="#300099"/>
<path d="M93.7306 171.458C93.7306 171.458 98.0784 158.512 70.5165 142.906C70.5165 142.906 42.5309 134.736 45.3928 106.68C45.3928 106.68 13.1318 130.338 34.9618 160.475C56.7919 190.611 75.6341 184.034 75.6341 184.034L93.7306 171.458Z" fill="#300099"/>
<path d="M85 177C85 177 71.7434 162.58 59.0368 157.005C56.4985 155.855 54.1661 154.292 52.1336 152.378C44.0326 144.927 40.5003 133.684 42.589 122.841L45.6428 107" stroke="white" stroke-miterlimit="10"/>
<g filter="url(#filter0_d)">
<path d="M195.05 10.9835H61.5681C57.1498 10.9835 53.5681 14.5652 53.5681 18.9835V176.713C53.5681 181.131 57.1498 184.713 61.5681 184.713H195.05C199.468 184.713 203.05 181.131 203.05 176.713V18.9835C203.05 14.5652 199.468 10.9835 195.05 10.9835Z" fill="#F7F7FD"/>
</g>
<path d="M100.385 30.5662H62.5962V33.5785H100.385V30.5662Z" fill="#E2E2EC"/>
<path d="M127.137 37.9305H62.5962V40.9429H127.137V37.9305Z" fill="#E2E2EC"/>
<path d="M195.891 27.6881H169.073V50.8524H195.891V27.6881Z" fill="white"/>
<path d="M195.749 27.8224V50.7183H169.196V27.8224H195.749ZM196.018 27.554H168.928V50.9867H196.018V27.554Z" fill="#E2E2EC"/>
<path d="M168.804 27.6881H141.986V50.8524H168.804V27.6881Z" fill="white"/>
<path d="M168.66 27.8224V50.7183H142.106V27.8224H168.66ZM168.928 27.554H141.838V50.9867H168.928V27.554Z" fill="#E2E2EC"/>
<path d="M195.891 51.121H169.073V74.2853H195.891V51.121Z" fill="white"/>
<path d="M195.749 51.2552V74.151H169.196V51.2552H195.749ZM196.018 50.9867H168.928V74.4195H196.018V50.9867Z" fill="#E2E2EC"/>
<path d="M168.804 51.121H141.986V74.2853H168.804V51.121Z" fill="white"/>
<path d="M168.66 51.2552V74.151H142.106V51.2552H168.66ZM168.928 50.9867H141.838V74.4195H168.928V50.9867Z" fill="#E2E2EC"/>
<path d="M141.717 51.121H114.898V74.2853H141.717V51.121Z" fill="white"/>
<path d="M141.583 51.2552V74.151H115.03V51.2552H141.583ZM141.851 50.9867H114.761V74.4195H141.851V50.9867Z" fill="#E2E2EC"/>
<path d="M114.63 51.121H87.8113V74.2853H114.63V51.121Z" fill="white"/>
<path d="M114.496 51.2552V74.151H87.9425V51.2552H114.496ZM114.764 50.9867H87.6743V74.4195H114.764V50.9867Z" fill="#E2E2EC"/>
<path d="M87.543 51.121H60.7241V74.2853H87.543V51.121Z" fill="white"/>
<path d="M87.409 51.2552V74.151H60.8556V51.2552H87.409ZM87.6772 50.9867H60.5874V74.4195H87.6772V50.9867Z" fill="#E2E2EC"/>
<path d="M195.891 74.551H169.073V97.7153H195.891V74.551Z" fill="white"/>
<path d="M195.749 74.6879V97.5837H169.196V74.6879H195.749ZM196.018 74.4194H168.928V97.8522H196.018V74.4194Z" fill="#E2E2EC"/>
<path d="M168.804 74.551H141.986V97.7153H168.804V74.551Z" fill="white"/>
<path d="M168.66 74.6879V97.5837H142.106V74.6879H168.66ZM168.928 74.4194H141.838V97.8522H168.928V74.4194Z" fill="#E2E2EC"/>
<path d="M141.717 74.551H114.898V97.7153H141.717V74.551Z" fill="white"/>
<path d="M141.583 74.6879V97.5837H115.03V74.6879H141.583ZM141.851 74.4194H114.761V97.8522H141.851V74.4194Z" fill="#E2E2EC"/>
<path d="M114.63 74.551H87.8113V97.7153H114.63V74.551Z" fill="white"/>
<path d="M114.496 74.6879V97.5837H87.9425V74.6879H114.496ZM114.764 74.4194H87.6743V97.8522H114.764V74.4194Z" fill="#E2E2EC"/>
<path d="M87.543 74.551H60.7241V97.7153H87.543V74.551Z" fill="white"/>
<path d="M87.409 74.6879V97.5837H60.8556V74.6879H87.409ZM87.6772 74.4194H60.5874V97.8522H87.6772V74.4194Z" fill="#E2E2EC"/>
<path d="M195.891 97.9838H169.073V121.148H195.891V97.9838Z" fill="white"/>
<path d="M195.749 98.1181V121.014H169.196V98.1181H195.749ZM196.018 97.8496H168.928V121.282H196.018V97.8496Z" fill="#E2E2EC"/>
<path d="M168.804 97.9838H141.986V121.148H168.804V97.9838Z" fill="white"/>
<path d="M168.66 98.1181V121.014H142.106V98.1181H168.66ZM168.928 97.8496H141.838V121.282H168.928V97.8496Z" fill="#E2E2EC"/>
<path d="M141.717 97.9838H114.898V121.148H141.717V97.9838Z" fill="white"/>
<path d="M141.583 98.1181V121.014H115.03V98.1181H141.583ZM141.851 97.8496H114.761V121.282H141.851V97.8496Z" fill="#E2E2EC"/>
<path d="M114.63 97.9838H87.8113V121.148H114.63V97.9838Z" fill="white"/>
<path d="M114.496 98.1181V121.014H87.9425V98.1181H114.496ZM114.764 97.8496H87.6743V121.282H114.764V97.8496Z" fill="#E2E2EC"/>
<path d="M87.543 97.9838H60.7241V121.148H87.543V97.9838Z" fill="white"/>
<path d="M87.409 98.1181V121.014H60.8556V98.1181H87.409ZM87.6772 97.8496H60.5874V121.282H87.6772V97.8496Z" fill="#E2E2EC"/>
<path d="M195.891 121.414H169.073V144.578H195.891V121.414Z" fill="white"/>
<path d="M195.749 121.551V144.444H169.196V121.551H195.749ZM196.018 121.282H168.928V144.712H196.018V121.282Z" fill="#E2E2EC"/>
<path d="M168.804 121.414H141.986V144.578H168.804V121.414Z" fill="white"/>
<path d="M168.66 121.551V144.444H142.106V121.551H168.66ZM168.928 121.282H141.838V144.712H168.928V121.282Z" fill="#E2E2EC"/>
<path d="M141.717 121.414H114.898V144.578H141.717V121.414Z" fill="white"/>
<path d="M141.583 121.551V144.444H115.03V121.551H141.583ZM141.851 121.282H114.761V144.712H141.851V121.282Z" fill="#E2E2EC"/>
<path d="M114.63 121.414H87.8113V144.578H114.63V121.414Z" fill="white"/>
<path d="M114.496 121.551V144.444H87.9425V121.551H114.496ZM114.764 121.282H87.6743V144.712H114.764V121.282Z" fill="#E2E2EC"/>
<path d="M87.543 121.414H60.7241V144.578H87.543V121.414Z" fill="white"/>
<path d="M87.409 121.551V144.444H60.8556V121.551H87.409ZM87.6772 121.282H60.5874V144.712H87.6772V121.282Z" fill="#E2E2EC"/>
<path d="M195.891 144.847H169.073V168.011H195.891V144.847Z" fill="white"/>
<path d="M195.749 144.981V167.877H169.196V144.981H195.749ZM196.018 144.712H168.928V168.145H196.018V144.712Z" fill="#E2E2EC"/>
<path d="M168.804 144.847H141.986V168.011H168.804V144.847Z" fill="white"/>
<path d="M168.66 144.981V167.877H142.106V144.981H168.66ZM168.928 144.712H141.838V168.145H168.928V144.712Z" fill="#E2E2EC"/>
<path d="M141.717 144.847H114.898V168.011H141.717V144.847Z" fill="white"/>
<path d="M141.583 144.981V167.877H115.03V144.981H141.583ZM141.851 144.712H114.761V168.145H141.851V144.712Z" fill="#E2E2EC"/>
<path d="M114.63 144.847H87.8113V168.011H114.63V144.847Z" fill="white"/>
<path d="M114.496 144.981V167.877H87.9425V144.981H114.496ZM114.764 144.712H87.6743V168.145H114.764V144.712Z" fill="#E2E2EC"/>
<path d="M87.543 144.847H60.7241V168.011H87.543V144.847Z" fill="white"/>
<path d="M87.409 144.981V167.877H60.8556V144.981H87.409ZM87.6772 144.712H60.5874V168.145H87.6772V144.712Z" fill="#E2E2EC"/>
<path d="M117.055 189.248C117.822 188.665 118.543 187.978 118.766 187.14C118.88 186.697 118.82 186.226 118.597 185.827C118.374 185.427 118.006 185.128 117.57 184.992C116.473 184.648 115.301 185.261 114.41 185.897C113.52 186.533 112.503 187.239 111.339 187.108C112.543 186.235 113.117 184.82 112.785 183.534C112.728 183.257 112.587 183.004 112.382 182.809C111.774 182.272 110.669 182.506 109.939 182.925C107.619 184.267 106.973 186.831 106.959 189.148C106.726 188.313 106.922 187.443 106.916 186.584C106.911 185.725 106.624 184.777 105.739 184.316C105.172 184.07 104.559 183.952 103.942 183.969C102.898 183.937 101.737 184.023 101.026 184.646C100.141 185.419 100.372 186.718 101.141 187.57C101.911 188.421 103.083 188.955 104.159 189.543C104.98 189.991 105.811 190.515 106.305 191.224C106.369 191.317 106.423 191.418 106.466 191.524H113.002C114.442 190.936 115.803 190.171 117.055 189.248Z" fill="#300099"/>
<path d="M64.262 56.1737C65.1063 56.1737 65.7908 55.4885 65.7908 54.6434C65.7908 53.7982 65.1063 53.113 64.262 53.113C63.4176 53.113 62.7332 53.7982 62.7332 54.6434C62.7332 55.4885 63.4176 56.1737 64.262 56.1737Z" fill="#FC6681"/>
<path d="M68.0813 56.1737C68.9257 56.1737 69.6102 55.4885 69.6102 54.6434C69.6102 53.7982 68.9257 53.113 68.0813 53.113C67.237 53.113 66.5525 53.7982 66.5525 54.6434C66.5525 55.4885 67.237 56.1737 68.0813 56.1737Z" fill="#FFD037"/>
<path d="M118.248 78.8601C119.093 78.8601 119.777 78.1749 119.777 77.3298C119.777 76.4846 119.093 75.7994 118.248 75.7994C117.404 75.7994 116.719 76.4846 116.719 77.3298C116.719 78.1749 117.404 78.8601 118.248 78.8601Z" fill="#6C63FF"/>
<path d="M122.07 78.8601C122.915 78.8601 123.599 78.1749 123.599 77.3298C123.599 76.4846 122.915 75.7994 122.07 75.7994C121.226 75.7994 120.542 76.4846 120.542 77.3298C120.542 78.1749 121.226 78.8601 122.07 78.8601Z" fill="#6C63FF"/>
<path d="M172.999 56.1737C173.844 56.1737 174.528 55.4885 174.528 54.6434C174.528 53.7982 173.844 53.113 172.999 53.113C172.155 53.113 171.47 53.7982 171.47 54.6434C171.47 55.4885 172.155 56.1737 172.999 56.1737Z" fill="#6C63FF"/>
<path d="M176.819 56.1737C177.663 56.1737 178.347 55.4885 178.347 54.6434C178.347 53.7982 177.663 53.113 176.819 53.113C175.974 53.113 175.29 53.7982 175.29 54.6434C175.29 55.4885 175.974 56.1737 176.819 56.1737Z" fill="#6C63FF"/>
<path d="M180.641 56.1737C181.485 56.1737 182.17 55.4885 182.17 54.6434C182.17 53.7982 181.485 53.113 180.641 53.113C179.796 53.113 179.112 53.7982 179.112 54.6434C179.112 55.4885 179.796 56.1737 180.641 56.1737Z" fill="#6C63FF"/>
<path d="M184.46 56.1737C185.305 56.1737 185.989 55.4885 185.989 54.6434C185.989 53.7982 185.305 53.113 184.46 53.113C183.616 53.113 182.931 53.7982 182.931 54.6434C182.931 55.4885 183.616 56.1737 184.46 56.1737Z" fill="#6C63FF"/>
<path d="M172.999 103.584C173.844 103.584 174.528 102.899 174.528 102.054C174.528 101.209 173.844 100.524 172.999 100.524C172.155 100.524 171.47 101.209 171.47 102.054C171.47 102.899 172.155 103.584 172.999 103.584Z" fill="#6C63FF"/>
<path d="M176.819 103.584C177.663 103.584 178.347 102.899 178.347 102.054C178.347 101.209 177.663 100.524 176.819 100.524C175.974 100.524 175.29 101.209 175.29 102.054C175.29 102.899 175.974 103.584 176.819 103.584Z" fill="#6C63FF"/>
<path d="M180.641 103.584C181.485 103.584 182.17 102.899 182.17 102.054C182.17 101.209 181.485 100.524 180.641 100.524C179.796 100.524 179.112 101.209 179.112 102.054C179.112 102.899 179.796 103.584 180.641 103.584Z" fill="#6C63FF"/>
<path d="M184.46 103.584C185.305 103.584 185.989 102.899 185.989 102.054C185.989 101.209 185.305 100.524 184.46 100.524C183.616 100.524 182.931 101.209 182.931 102.054C182.931 102.899 183.616 103.584 184.46 103.584Z" fill="#6C63FF"/>
<path d="M91.2552 78.8601C92.0995 78.8601 92.784 78.1749 92.784 77.3298C92.784 76.4846 92.0995 75.7994 91.2552 75.7994C90.4108 75.7994 89.7263 76.4846 89.7263 77.3298C89.7263 78.1749 90.4108 78.8601 91.2552 78.8601Z" fill="#FFD037"/>
<path d="M64.262 102.057C65.1063 102.057 65.7908 101.371 65.7908 100.526C65.7908 99.6811 65.1063 98.996 64.262 98.996C63.4176 98.996 62.7332 99.6811 62.7332 100.526C62.7332 101.371 63.4176 102.057 64.262 102.057Z" fill="#FC6681"/>
</g>
<defs>
<filter id="filter0_d" x="44.5681" y="5.98352" width="167.482" height="191.73" filterUnits="userSpaceOnUse" color-interpolation-filters="sRGB">
<feFlood flood-opacity="0" result="BackgroundImageFix"/>
<feColorMatrix in="SourceAlpha" type="matrix" values="0 0 0 0 0 0 0 0 0 0 0 0 0 0 0 0 0 0 127 0"/>
<feOffset dy="4"/>
<feGaussianBlur stdDeviation="4.5"/>
<feColorMatrix type="matrix" values="0 0 0 0 0.4875 0 0 0 0 0.4875 0 0 0 0 0.4875 0 0 0 0.25 0"/>
<feBlend mode="normal" in2="BackgroundImageFix" result="effect1_dropShadow"/>
<feBlend mode="normal" in="SourceGraphic" in2="effect1_dropShadow" result="shape"/>
</filter>
<clipPath id="clip0">
<rect width="259" height="215" fill="white"/>
</clipPath>
</defs>
</svg>
