<svg width="190" height="285" viewBox="0 0 190 285" fill="none" xmlns="http://www.w3.org/2000/svg">
<circle cx="94.0184" cy="221.884" r="7.93934" fill="white"/>
<path opacity="0.15" d="M33.4243 221.585C51.884 221.585 66.8485 212.945 66.8485 202.287C66.8485 191.629 51.884 182.989 33.4243 182.989C14.9645 182.989 0 191.629 0 202.287C0 212.945 14.9645 221.585 33.4243 221.585Z" fill="#D6D8E5"/>
<path opacity="0.5" d="M33.0386 210.986C43.3348 210.986 51.6815 206.168 51.6815 200.224C51.6815 194.281 43.3348 189.462 33.0386 189.462C22.7424 189.462 14.3958 194.281 14.3958 200.224C14.3958 206.168 22.7424 210.986 33.0386 210.986Z" fill="#EDEFF9"/>
<path d="M32.8621 199.476C35.798 199.476 38.178 198.101 38.178 196.405C38.178 194.708 35.798 193.333 32.8621 193.333C29.9262 193.333 27.5461 194.708 27.5461 196.405C27.5461 198.101 29.9262 199.476 32.8621 199.476Z" fill="#EDEFF9"/>
<path d="M38.1502 155.685H27.9272V195.861H38.1502V155.685Z" fill="#EDEFF9"/>
<path d="M27.4392 155.23C27.4392 155.23 27.718 163.491 33.5962 178.31C33.5962 178.31 39.0701 166.377 39.637 154.979C40.2039 143.58 27.4392 155.23 27.4392 155.23Z" fill="#FFBC00"/>
<path d="M20.2602 124.124L6.65907 137.358L5.04199 154.639L21.4916 146.391L24.4841 125.314L20.2602 124.124Z" fill="#300099"/>
<path d="M46.9324 124.124L60.5289 137.358L62.1506 154.639L45.6406 145.82L42.7085 125.314L46.9324 124.124Z" fill="#300099"/>
<path d="M33.4241 157.316C37.1582 157.316 40.1852 155.568 40.1852 153.413C40.1852 151.257 37.1582 149.509 33.4241 149.509C29.6901 149.509 26.6631 151.257 26.6631 153.413C26.6631 155.568 29.6901 157.316 33.4241 157.316Z" fill="#424956"/>
<path d="M23.1736 149.509V145.996H43.6519V149.64L23.1736 149.509Z" fill="#494949"/>
<path d="M33.4244 155.425C39.0857 155.425 43.6752 152.774 43.6752 149.505C43.6752 146.235 39.0857 143.585 33.4244 143.585C27.763 143.585 23.1736 146.235 23.1736 149.505C23.1736 152.774 27.763 155.425 33.4244 155.425Z" fill="#2B303F"/>
<path d="M33.3917 151.396C40.3003 151.396 45.9008 148.163 45.9008 144.175C45.9008 140.187 40.3003 136.954 33.3917 136.954C26.4831 136.954 20.8826 140.187 20.8826 144.175C20.8826 148.163 26.4831 151.396 33.3917 151.396Z" fill="#EDEFF9"/>
<path d="M46.9002 131.313C46.9002 131.893 46.9002 132.465 46.9002 133.018C46.9002 133.483 46.9002 133.947 46.9002 134.412C46.9002 135.039 46.8677 135.639 46.8445 136.224C46.8445 136.954 46.7933 137.646 46.7562 138.311C46.719 138.975 46.6865 139.626 46.64 140.225C46.4495 142.851 46.4541 144.784 46.1289 145.541C44.3584 149.681 38.3687 147.4 35.4134 145.913C34.3214 145.364 33.6011 144.914 33.6011 144.914H33.3316C33.3316 144.914 32.4766 145.378 31.2127 145.88C28.1133 147.135 22.5883 149.361 21.0549 145.527C20.7807 144.839 20.5065 142.567 20.3393 140.188C20.2974 139.593 20.2603 138.957 20.2231 138.278C20.1859 137.6 20.1673 136.926 20.1394 136.196C20.1394 135.615 20.1069 135.016 20.093 134.393C20.093 133.929 20.093 133.464 20.093 132.999V131.294C20.0093 115.081 21.7286 89.157 27.407 78.0931C29.0473 74.8914 31.0175 72.9351 33.3735 72.819H33.643C35.9664 72.9398 37.9598 74.8868 39.6048 78.0745C45.2041 89.0966 47.0024 114.919 46.9002 131.313Z" fill="#EDEFF9"/>
<path d="M33.457 116.025C36.0669 116.025 38.1827 113.909 38.1827 111.299C38.1827 108.689 36.0669 106.573 33.457 106.573C30.847 106.573 28.7312 108.689 28.7312 111.299C28.7312 113.909 30.847 116.025 33.457 116.025Z" fill="#2B303F"/>
<path d="M33.457 116.717C32.3854 116.717 31.3378 116.399 30.4468 115.804C29.5558 115.209 28.8613 114.362 28.4513 113.372C28.0412 112.382 27.9339 111.293 28.1429 110.242C28.352 109.191 28.868 108.225 29.6258 107.468C30.3835 106.71 31.3489 106.194 32.3999 105.985C33.451 105.776 34.5404 105.883 35.5304 106.293C36.5204 106.703 37.3666 107.398 37.962 108.289C38.5573 109.18 38.8751 110.227 38.8751 111.299C38.8739 112.735 38.3026 114.113 37.2868 115.129C36.271 116.145 34.8936 116.716 33.457 116.717ZM33.457 107.265C32.659 107.265 31.8788 107.5 31.2149 107.943C30.551 108.386 30.0333 109.015 29.7273 109.752C29.4213 110.489 29.3407 111.3 29.4958 112.083C29.651 112.866 30.0347 113.585 30.5986 114.149C31.1625 114.714 31.8812 115.098 32.6637 115.254C33.4463 115.41 34.2575 115.331 34.9948 115.026C35.732 114.721 36.3622 114.204 36.8056 113.54C37.249 112.877 37.4857 112.097 37.4857 111.299C37.4845 110.23 37.0598 109.206 36.3046 108.45C35.5495 107.694 34.5255 107.268 33.457 107.265Z" fill="#424956"/>
<path d="M33.457 102.131C36.0669 102.131 38.1827 100.015 38.1827 97.4052C38.1827 94.7952 36.0669 92.6794 33.457 92.6794C30.847 92.6794 28.7312 94.7952 28.7312 97.4052C28.7312 100.015 30.847 102.131 33.457 102.131Z" fill="#2B303F"/>
<path d="M33.457 102.837C32.3846 102.838 31.3361 102.521 30.4439 101.926C29.5518 101.331 28.856 100.485 28.4446 99.4949C28.0331 98.5047 27.9245 97.4147 28.1325 96.3627C28.3405 95.3107 28.8556 94.344 29.6129 93.5848C30.3702 92.8256 31.3356 92.3079 32.387 92.0973C33.4384 91.8866 34.5287 91.9924 35.52 92.4013C36.5113 92.8101 37.3592 93.5037 37.9564 94.3944C38.5536 95.285 38.8733 96.3327 38.8751 97.4051C38.8763 98.8437 38.3063 100.224 37.2904 101.243C36.2744 102.261 34.8956 102.835 33.457 102.837ZM33.457 93.3856C32.6588 93.3847 31.8784 93.6206 31.2144 94.0634C30.5504 94.5063 30.0327 95.1362 29.7268 95.8733C29.421 96.6105 29.3407 97.4219 29.4962 98.2047C29.6517 98.9876 30.0359 99.7067 30.6003 100.271C31.1646 100.835 31.8838 101.22 32.6666 101.375C33.4494 101.531 34.2608 101.45 34.998 101.144C35.7352 100.839 36.3651 100.321 36.8079 99.6569C37.2508 98.9929 37.4866 98.2125 37.4857 97.4144C37.4863 96.8847 37.3826 96.3601 37.1805 95.8705C36.9783 95.3809 36.6818 94.9359 36.3077 94.561C35.9335 94.186 35.4893 93.8884 35.0001 93.6851C34.511 93.4819 33.9866 93.3769 33.457 93.3763V93.3856Z" fill="#424956"/>
<path d="M46.8999 140.657C46.8999 141.238 46.8999 141.81 46.8999 142.367C46.4352 143.901 45.1713 145.369 43.1174 146.549C37.7922 149.621 29.1771 149.621 23.8286 146.549C21.7747 145.36 20.5155 143.887 20.0461 142.367V140.662C20.5108 142.223 21.7654 143.71 23.8472 144.914C29.1771 147.985 37.8108 147.985 43.136 144.914C45.1759 143.696 46.4677 142.214 46.8999 140.657Z" fill="#300099"/>
<path d="M46.8583 143.362C46.8583 143.984 46.8258 144.588 46.8025 145.169C46.2821 146.619 45.0461 147.999 43.0851 149.124C37.7599 152.2 29.1448 152.2 23.7964 149.124C21.8401 147.99 20.604 146.601 20.0789 145.141C20.0789 144.561 20.0464 143.961 20.0325 143.343C20.4971 144.858 21.7657 146.298 23.7917 147.469C29.1216 150.546 37.7553 150.546 43.0805 147.469C45.1158 146.303 46.3704 144.867 46.8583 143.362Z" fill="#300099"/>
<path d="M46.714 138.562C46.1517 139.923 44.9436 141.22 43.0988 142.279C37.7736 145.351 29.1585 145.351 23.81 142.279C21.9513 141.201 20.7432 139.9 20.1809 138.524C20.2181 139.203 20.2553 139.839 20.2971 140.434C20.8965 141.717 22.0675 142.925 23.81 143.933C26.0829 145.172 28.5905 145.919 31.1705 146.127C32.5608 146.262 33.9604 146.273 35.3526 146.159C38.0597 145.988 40.6968 145.228 43.0802 143.933C44.8088 142.934 45.9752 141.74 46.5792 140.471L46.714 138.562Z" fill="#300099"/>
<path d="M39.521 78.0838C35.5466 79.3037 31.2977 79.3037 27.3232 78.0838C28.9636 74.8822 30.9338 72.9259 33.2897 72.8097H33.5592C35.9058 72.9491 37.8761 74.8961 39.521 78.0838Z" fill="#300099"/>
<path d="M34.7533 124.161H32.4346V154.602H34.7533V124.161Z" fill="#300099"/>
<path opacity="0.4" d="M48.7494 284.061L28.0062 272.101C25.6549 270.739 25.9476 268.383 28.666 266.803L39.1956 260.721C41.9093 259.155 46.0031 258.969 48.3683 260.363L69.1115 272.342C71.4628 273.699 71.1701 276.06 68.4517 277.635L57.9221 283.718C55.2084 285.26 51.1146 285.455 48.7494 284.061Z" fill="#D6D8E5"/>
<path d="M79.9245 269.131V240.177L35.6315 235.191V264.327C35.6036 265.219 36.0962 266.069 37.2114 266.701L57.9546 278.68C60.3059 280.037 64.4136 279.865 67.1273 278.299L77.6569 272.217C79.1857 271.334 79.9478 270.195 79.9013 269.131H79.9245Z" fill="#D6D8E5"/>
<path d="M79.8967 243.337V240.177H76.4906L57.5736 229.253C55.2223 227.891 51.1145 228.063 48.4008 229.629L37.8712 235.735C37.684 235.841 37.5025 235.958 37.3276 236.083L35.6315 235.215C35.6315 235.215 35.6315 238.556 35.6315 238.667C35.6036 239.55 36.0962 240.4 37.2114 241.032L57.9546 253.007C60.3059 254.364 64.4136 254.192 67.1273 252.626L77.6569 246.548C79.2322 245.619 79.9803 244.457 79.892 243.36L79.8967 243.337Z" fill="#EDF0F9"/>
<path d="M57.9547 249.541L37.2115 237.566C34.8602 236.209 35.153 233.848 37.8713 232.268L48.4009 226.191C51.1146 224.62 55.2224 224.453 57.5737 225.809L78.3169 237.784C80.6681 239.141 80.3754 241.502 77.657 243.082L67.1274 249.16C64.4137 250.73 60.306 250.897 57.9547 249.541Z" fill="#E2E5F2"/>
<path d="M53.2801 233.193V232.041H52.5738L52.3554 231.901C51.6606 231.549 50.8925 231.365 50.1133 231.365C49.3342 231.365 48.566 231.549 47.8712 231.901C47.7384 231.979 47.6125 232.067 47.4949 232.166L46.9419 232.041V233.193C46.9679 233.472 47.0676 233.739 47.2309 233.967C47.3943 234.195 47.6153 234.375 47.8712 234.49C48.566 234.842 49.3342 235.026 50.1133 235.026C50.8925 235.026 51.6606 234.842 52.3554 234.49C52.6114 234.376 52.8322 234.196 52.9948 233.968C53.1575 233.74 53.256 233.472 53.2801 233.193Z" fill="#6E48E5"/>
<path d="M50.111 233.872C51.8612 233.872 53.2801 233.052 53.2801 232.041C53.2801 231.03 51.8612 230.21 50.111 230.21C48.3607 230.21 46.9419 231.03 46.9419 232.041C46.9419 233.052 48.3607 233.872 50.111 233.872Z" fill="#300099"/>
<path d="M61.1424 238.058C60.9696 238.446 60.6695 238.762 60.2921 238.955C59.5975 239.306 58.8303 239.488 58.0523 239.488C57.2743 239.488 56.5072 239.306 55.8126 238.955C55.4351 238.762 55.1351 238.446 54.9622 238.058C54.7299 237.464 55.018 236.827 55.8126 236.362C56.5072 236.012 57.2743 235.829 58.0523 235.829C58.8303 235.829 59.5975 236.012 60.2921 236.362C61.0913 236.804 61.3748 237.44 61.1424 238.058Z" fill="#5E42D3"/>
<path d="M61.1422 238.058C60.9694 238.445 60.6693 238.762 60.2919 238.955C59.5973 239.306 58.8301 239.488 58.0521 239.488C57.2741 239.488 56.507 239.306 55.8124 238.955C55.5851 238.939 55.3724 238.837 55.2171 238.67C55.0619 238.503 54.9756 238.284 54.9756 238.056C54.9756 237.828 55.0619 237.609 55.2171 237.442C55.3724 237.275 55.5851 237.173 55.8124 237.157C56.507 236.806 57.2741 236.624 58.0521 236.624C58.8301 236.624 59.5973 236.806 60.2919 237.157C60.6701 237.351 60.9702 237.669 61.1422 238.058Z" fill="#300099"/>
<path d="M68.5911 242.18V241.028H67.8848L67.6664 240.888C66.9717 240.535 66.2035 240.352 65.4244 240.352C64.6452 240.352 63.877 240.535 63.1823 240.888C63.0506 240.966 62.9248 241.053 62.8059 241.148L62.2529 241.028V242.18C62.2789 242.459 62.3787 242.726 62.542 242.954C62.7053 243.182 62.9263 243.362 63.1823 243.476C63.877 243.829 64.6452 244.013 65.4244 244.013C66.2035 244.013 66.9717 243.829 67.6664 243.476C67.9224 243.363 68.1432 243.183 68.3059 242.954C68.4685 242.726 68.567 242.459 68.5911 242.18Z" fill="#6E48E5"/>
<path d="M65.422 242.858C67.1723 242.858 68.5911 242.039 68.5911 241.028C68.5911 240.016 67.1723 239.197 65.422 239.197C63.6718 239.197 62.2529 240.016 62.2529 241.028C62.2529 242.039 63.6718 242.858 65.422 242.858Z" fill="#300099"/>
<path d="M30.3436 228.537C30.2181 229.62 28.9496 234.295 29.2005 235.898C29.4514 237.501 33.8937 240.177 33.8937 240.177L34.5071 237.436L32.0629 235.038L32.7227 230.498L30.3436 228.537Z" fill="#FFCEA9"/>
<path d="M33.7589 223.932C33.3299 223.732 32.8424 223.697 32.3891 223.833C31.9358 223.969 31.5484 224.268 31.3008 224.671C30.6502 225.749 29.9764 229.439 29.9067 230.071C29.9067 230.071 30.8361 231.33 32.1883 231.121L33.7589 223.932Z" fill="#EDEDED"/>
<path d="M38.8007 276.05C39.762 276.315 40.7889 276.19 41.6585 275.702C42.3462 275.725 46.0868 274.122 46.5933 275.465C47.058 276.645 45.4177 277.733 44.5534 277.942C42.6668 278.406 41.2728 279.336 40.5107 279.503C39.9484 279.619 39.2142 279.698 38.7682 279.252C38.2245 278.722 38.271 276.752 38.8007 276.05Z" fill="#38226D"/>
<path d="M40.5108 279.173C41.2729 279.015 42.6669 278.072 44.5535 277.616C45.2784 277.44 46.5284 276.65 46.6538 275.702C46.8211 276.785 45.362 277.747 44.5535 277.942C42.6669 278.406 41.2729 279.336 40.5108 279.503C39.9485 279.619 39.2144 279.698 38.7683 279.252C38.6461 279.121 38.5596 278.961 38.5173 278.787C38.7961 279.004 39.1218 279.151 39.4681 279.218C39.8144 279.285 40.1716 279.27 40.5108 279.173Z" fill="#9C73FF"/>
<path d="M32.7413 273.327C33.702 273.593 34.7288 273.47 35.599 272.984C36.2868 272.984 40.0228 271.404 40.5339 272.747C40.9986 273.922 39.3583 275.01 38.494 275.223C36.6074 275.688 35.2087 276.617 34.4513 276.78C33.8844 276.896 33.1548 276.975 32.7041 276.534C32.1651 275.999 32.2115 274.029 32.7413 273.327Z" fill="#38226D"/>
<path d="M34.4512 276.455C35.2087 276.292 36.6073 275.353 38.4939 274.893C39.2188 274.721 40.4688 273.927 40.5943 272.984C40.7616 274.066 39.3025 275.024 38.4939 275.223C36.6073 275.688 35.2087 276.617 34.4512 276.78C33.8843 276.896 33.1548 276.975 32.704 276.534C32.5862 276.401 32.5018 276.241 32.4578 276.069C32.7374 276.283 33.063 276.43 33.409 276.497C33.755 276.564 34.1118 276.549 34.4512 276.455Z" fill="#9C73FF"/>
<path d="M32.9269 263.54C33.0823 262.15 33.3601 260.778 33.7568 259.44C33.7568 259.44 33.51 255.904 33.3844 252.549C33.2454 248.743 31.9715 245.393 32.9763 242.359L44.2933 244.969C44.2933 244.969 43.6115 260.143 43.459 261.976C43.3769 263.407 43.2076 264.83 42.9522 266.239C42.4363 269.184 41.6065 276.191 41.6065 276.191C40.4133 276.913 38.8389 276.513 38.8389 276.513C38.8389 276.513 38.9286 267.672 39.0049 265.531C39.0991 262.939 39.1753 263.135 39.1753 263.135L38.7985 256.681L38.5563 253.47C38.5563 253.47 38.2423 255.825 38.036 257.933C37.861 259.766 37.4349 261.427 36.955 264.843C36.5423 267.807 35.8695 273.763 35.8695 273.763C34.6718 274.484 33.048 273.884 33.048 273.884C33.048 273.884 32.604 266.108 32.9269 263.54Z" fill="#8C50FF"/>
<path d="M34.3862 223.993C35.283 224.039 35.9475 224.267 36.059 223.993C36.1521 223.532 36.2188 223.067 36.2588 222.599C36.1566 222.338 36.0683 222.06 36.0683 222.06C34.9484 221.372 34.5953 220.159 34.4466 218.747C34.1956 216.335 35.4967 214.225 37.9084 213.974C40.176 213.737 41.8489 215.331 42.2903 217.52C42.532 218.598 43.0106 220.642 42.3647 222.417C42.0022 223.412 41.5376 224.202 41.0729 224.355C40.6233 224.341 40.1749 224.3 39.73 224.234C39.73 224.234 39.6091 224.903 39.5255 225.331C39.4419 225.758 39.4744 225.991 40.3294 226.516C41.1844 227.041 39.0329 228.142 37.6389 228.035C36.2449 227.929 34.6557 227.083 34.2189 226.177C33.7217 225.159 33.7635 223.965 34.3862 223.993Z" fill="#FFCEA9"/>
<path d="M35.6687 224.118C35.4224 224.736 36.0498 225.512 37.7272 226.014C39.4047 226.516 39.5581 225.865 39.5581 225.865C40.6724 226.364 41.7583 226.924 42.8108 227.543C43.8192 228.249 44.2653 230.284 44.4 233.723C44.558 237.701 44.5719 243.602 44.4372 244.62C44.4372 244.62 42.5785 246.478 40.1482 246.297C37.718 246.116 33.6938 243.974 32.7134 242.324C32.7413 238.834 33.1502 238.268 32.5833 236.26C31.2915 231.66 30.613 229.755 31.2403 226.72C31.7561 224.197 32.481 223.886 33.4801 223.909C34.2129 223.938 34.9436 224.008 35.6687 224.118Z" fill="#F4F4F4"/>
<path d="M48.1919 237.022C46.2124 237.519 45.7524 236.274 45.4922 235.242C44.8602 232.743 44.5256 230.489 44.0563 229.072C43.5033 227.399 42.9225 227.134 42.114 226.809C41.1846 226.423 40.3389 227.231 40.6549 229.36C41.0448 231.829 41.6512 234.259 42.4671 236.623C42.7134 237.399 43.2617 238.779 44.0888 239.448C45.1065 240.27 46.6446 240.238 48.9679 239.662C49.9577 239.411 51.0451 238.821 52.9177 237.947C53.4196 237.715 53.8099 237.557 54.7764 237.106C55.7469 236.673 56.5971 236.009 57.2532 235.173C57.7596 234.439 57.8247 234.095 57.7178 233.927C57.611 233.76 57.36 233.765 57.0905 234.076C56.6994 234.596 56.2177 235.042 55.6686 235.391C55.6686 235.391 56.2913 234.745 56.6305 234.327C56.9335 233.955 57.1852 233.544 57.3786 233.105C57.5552 232.677 57.1881 232.097 56.9139 232.403C56.6398 232.71 56.5004 233.017 55.9846 233.63C55.7111 233.958 55.399 234.251 55.0552 234.504C55.3725 234.075 55.6538 233.621 55.8963 233.147C56.1151 232.776 56.2232 232.35 56.2076 231.92C56.2076 231.697 55.8777 231.432 55.5803 231.855C55.2932 232.436 54.9375 232.98 54.5208 233.477C54.0562 233.941 53.6844 234.211 53.6751 234.081C53.6658 233.951 53.9446 233.695 54.1073 233.151C54.2699 232.608 54.1073 232.027 53.8052 231.967C53.5032 231.906 53.5636 231.92 53.3406 232.431C53.0077 232.955 52.7081 233.5 52.4437 234.062C52.2883 234.585 52.0094 235.063 51.6306 235.456C51.1426 235.977 50.0692 236.548 48.1919 237.022Z" fill="#FFCEA9"/>
<path d="M41.3795 226.465C42.6992 226.27 43.6332 226.864 44.214 228.863C44.7948 230.861 45.2038 232.482 45.2038 232.482C44.6825 233.236 43.8928 233.761 42.9965 233.951C41.4166 234.336 40.8497 233.579 40.8497 233.579C40.8497 233.579 40.4129 231.488 40.1388 230.061C39.8646 228.635 39.7484 226.706 41.3795 226.465Z" fill="#EDEDED"/>
<path d="M42.2069 217.208C42.2069 217.208 44.2886 214.039 39.7719 213.393C36.5192 212.929 34.4235 215.02 34.1958 217.292C33.9635 219.462 35.3017 221.716 36.2636 222.608C37.2118 222.849 38.2158 222.728 39.0796 222.269C39.1349 221.679 39.1566 221.086 39.1446 220.494C39.1446 220.494 37.5415 217.148 42.2069 217.208Z" fill="#3A2C6D"/>
<path opacity="0.4" d="M177.776 277.928C184.097 277.928 189.221 274.969 189.221 271.32C189.221 267.671 184.097 264.712 177.776 264.712C171.455 264.712 166.331 267.671 166.331 271.32C166.331 274.969 171.455 277.928 177.776 277.928Z" fill="#D6D8E5"/>
<path d="M180.495 205.486C180.959 204.729 184.584 204.227 185.774 207.289C186.238 208.451 186.155 211.42 186.531 213.284C186.907 215.147 187.795 216.206 188.116 217.717C188.436 219.227 187.916 221.764 184.268 222.215C180.62 222.666 177.818 221.383 176.959 220.221C176.099 219.06 176.08 216.588 176.959 215.259C177.837 213.93 178.534 212.856 178.511 211.128L180.495 205.486Z" fill="#3A2C6D"/>
<path d="M182.883 204.961C182.883 204.961 180.16 204.176 178.511 205.644C177.967 206.146 177.572 206.788 177.367 207.499C177.162 208.21 177.156 208.963 177.349 209.678C177.567 210.537 178.009 211.708 178.692 211.773C179.375 211.838 182.883 204.961 182.883 204.961Z" fill="#3A2C6D"/>
<path d="M183.924 212.382C183.924 212.382 183.743 215.412 183.799 215.635C183.854 215.858 184.988 216.1 185.309 216.341C185.63 216.583 183.659 219.682 182.66 220.138C181.661 220.593 178.562 219.427 178.343 217.889C178.148 216.467 179.231 215.365 179.649 214.98C179.933 214.953 180.219 214.945 180.504 214.956L180.597 213.488C181.954 213.056 183.924 212.382 183.924 212.382Z" fill="#FFCEA9"/>
<path d="M176.605 218.112C176.605 218.023 176.141 218.269 176.141 218.274C176.141 218.279 175.922 226.057 175.541 226.764C174.57 228.413 172.001 231.211 171.935 231.522C171.745 232.451 172.293 231.62 173.176 231.522C173.673 231.462 176.596 228.506 177.251 227.833L177.293 227.856V227.781L177.377 227.693C177.393 227.483 177.393 227.272 177.377 227.061C178.608 218.609 177.112 218.046 176.605 218.112Z" fill="#FFCEA9"/>
<path d="M184.234 215.756C185.072 215.885 186.024 216.338 186.156 216.801C186.501 218.474 186.419 220.208 185.919 221.84C185.195 223.782 184.708 225.017 184.289 225.853C184.289 225.853 180.677 227.425 177.763 225.59C177.763 225.59 177.562 223.509 177.549 222.395C174.862 220.014 177.162 217.078 179.439 214.799C179.711 214.774 179.986 214.774 180.258 214.799C180.258 214.799 178.227 217.24 179.639 218.627C182.667 217.675 183.269 216.288 184.234 215.756Z" fill="white"/>
<path d="M178.26 208.623C178.562 206.676 179.97 205.203 181.977 205.319C182.786 205.363 183.561 205.66 184.192 206.168C184.822 206.676 185.277 207.37 185.492 208.151C185.707 208.932 185.671 209.761 185.388 210.52C185.106 211.28 184.592 211.931 183.919 212.382C183.85 212.677 183.746 212.963 183.608 213.233C182.897 214.06 181.006 214.585 180.383 214.594C179.844 214.594 179.38 214.097 178.873 213.26C177.823 211.518 178.092 209.585 178.26 208.623Z" fill="#FFCEA9"/>
<path d="M182.604 205.356C183.999 205.63 185.17 206.03 185.555 207.41C185.815 208.367 186.159 210.198 185.834 210.946L185.63 211.499L183.924 212.382C183.924 212.382 183.125 211.718 183.376 209.771C183.366 209.508 183.282 209.253 183.134 209.036C183.028 208.852 182.948 208.653 182.897 208.446C182.695 207.92 182.299 207.492 181.791 207.247C180.523 206.536 178.664 207.15 178.404 207.41C178.763 206.639 179.376 206.014 180.141 205.64C180.905 205.266 181.775 205.166 182.604 205.356Z" fill="#3A2C6D"/>
<path d="M185.17 266.972C184.454 267.553 183.343 267.154 183.311 267.205C182.478 267.919 181.606 268.586 180.699 269.203C180.235 269.551 179.561 270.021 179.686 270.69C179.909 271.893 181.833 271.526 182.558 271.155C183.283 270.783 183.878 270.179 184.566 269.761C185.053 269.458 185.537 269.296 185.616 268.682C185.639 268.297 185.295 266.959 185.17 266.972Z" fill="#38226D"/>
<path d="M185.588 268.422C185.49 269.017 185.016 269.18 184.528 269.482C183.831 269.914 183.218 270.541 182.493 270.908C181.768 271.275 180.147 271.582 179.677 270.727C179.933 271.884 181.824 271.522 182.54 271.154C183.255 270.787 183.859 270.179 184.547 269.76C185.035 269.458 185.518 269.296 185.597 268.682C185.601 268.596 185.598 268.509 185.588 268.422Z" fill="#9C73FF"/>
<path d="M180.165 265.973C179.51 266.508 178.525 266.206 178.478 266.257C177.715 266.906 176.917 267.514 176.09 268.078C175.681 268.399 175.044 268.826 175.16 269.44C175.365 270.541 177.126 270.202 177.795 269.867C178.464 269.533 178.999 268.971 179.631 268.58C180.095 268.301 180.518 268.157 180.588 267.59C180.634 267.247 180.281 265.959 180.165 265.973Z" fill="#38226D"/>
<path d="M180.583 267.363C180.495 267.906 180.058 268.055 179.612 268.329C178.975 268.729 178.413 269.3 177.753 269.64C177.093 269.979 175.606 270.258 175.174 269.472C175.407 270.532 177.14 270.202 177.8 269.867C178.46 269.533 179.003 268.971 179.635 268.58C180.1 268.301 180.523 268.157 180.592 267.59C180.598 267.514 180.595 267.438 180.583 267.363Z" fill="#9C73FF"/>
<path d="M176.317 232.795C176.633 230.333 177.539 226.755 177.539 226.755C178.396 227.155 179.323 227.383 180.267 227.428C181.652 227.423 183.033 227.29 184.393 227.029C184.837 227.804 185.322 228.555 185.848 229.278C186.559 230.263 187.939 232.419 187.604 236.187C187.386 238.65 186.006 249.11 186.006 249.11C186.543 250.869 186.83 252.694 186.856 254.533C186.726 256.719 186.437 258.894 185.992 261.038L185.169 266.972C185.169 266.972 184.073 267.767 183.311 267.205L183.408 261.396C183.315 259.974 183.171 257.879 183.083 256.54C182.934 254.356 182.544 250.895 182.433 250.035C182.321 249.175 182.042 247.656 181.907 245.964C181.773 244.273 181.141 235.662 181.141 235.662L181.052 237.275C181.052 237.275 180.964 239.891 180.588 243.12C180.211 246.35 180.081 247.767 180.081 247.767C180.438 248.419 180.687 249.123 180.82 249.854C180.885 250.551 181.68 256.071 181.206 258.878L180.225 266.02C179.982 266.189 179.702 266.297 179.409 266.336C179.116 266.374 178.817 266.343 178.539 266.243L177.962 259.045C177.577 256.308 176.759 250.504 176.633 249.751C176.355 248.231 176.19 246.692 176.141 245.146C175.936 242.024 176.001 235.253 176.317 232.795Z" fill="#FFCEA9"/>
<path d="M184.467 225.962L186.609 230.169C186.609 230.169 189.898 234.85 186.492 246.884L187.126 250.599C187.126 250.599 180.718 254.623 176.428 250.599C176.428 250.599 174.943 239.476 175.732 234.349C176.174 231.402 176.842 228.493 177.729 225.644C177.729 225.644 178.782 226.78 184.185 226.031" fill="#8C50FF"/>
<path d="M178.972 214.804C178.972 214.804 177.29 214.288 175.501 218.02L176.17 218.419C176.17 218.419 177.931 215.761 178.972 214.804Z" fill="#EDEDED"/>
<path d="M166.308 235.188L173.548 230.983L178.743 233.98L171.503 238.19L166.308 235.188Z" fill="#F4F4F4"/>
<path d="M172.614 231.29C172.16 231.335 171.721 231.478 171.327 231.708C171.182 231.834 171.027 231.948 170.862 232.047C170.793 232.08 170.723 232.126 170.648 232.159C170.538 232.199 170.438 232.264 170.356 232.349C170.275 232.469 170.231 232.609 170.23 232.754C170.193 232.926 170.184 233.103 170.202 233.279C170.267 233.539 170.537 233.516 170.667 233.334C170.738 233.244 170.778 233.133 170.783 233.018C170.787 232.909 170.817 232.801 170.87 232.705C170.924 232.609 170.999 232.527 171.09 232.465L172.819 231.392C172.799 231.357 172.768 231.328 172.732 231.31C172.695 231.291 172.654 231.285 172.614 231.29Z" fill="#FFCEA9"/>
<path d="M186.387 218.325C186.15 217.34 185.379 217.656 184.714 217.08C183.176 219.259 184.198 225.151 184.407 225.779L178.497 229.547L178.097 229.794C177.424 230.236 176.681 230.559 175.899 230.751C175.309 230.82 175.002 231.652 174.37 231.727C174.322 231.728 174.276 231.744 174.236 231.772C174.197 231.8 174.167 231.839 174.149 231.884C174.132 231.929 174.128 231.978 174.139 232.026C174.149 232.073 174.173 232.116 174.208 232.149C174.459 232.391 175.137 232.191 175.602 231.652C175.6 231.665 175.6 231.677 175.602 231.689C175.606 231.776 175.632 231.859 175.677 231.933C175.723 232.006 175.786 232.066 175.862 232.108C175.896 232.128 175.934 232.141 175.974 232.145C175.973 232.184 175.985 232.223 176.006 232.256C176.04 232.325 176.089 232.384 176.151 232.428C176.212 232.473 176.284 232.501 176.359 232.512C176.392 232.607 176.456 232.689 176.54 232.745C176.623 232.801 176.723 232.829 176.824 232.823C176.96 232.816 177.087 232.758 177.182 232.661C177.686 232.468 178.131 232.148 178.474 231.731C178.776 231.417 179.096 231.119 179.431 230.839C181.034 230.147 185.843 228.093 186.057 227.8C186.392 227.359 186.731 219.719 186.387 218.325Z" fill="#FFCEA9"/>
<path d="M186.926 220.969C186.926 220.969 185.035 221.815 183.464 221.025L183.692 218.065C183.692 218.065 183.715 216.476 185.132 216.318C186.55 216.16 187.293 217.977 186.926 220.969Z" fill="#EDEDED"/>
<path d="M162.498 205.226L108.405 173.996C103.827 171.352 100.109 164.256 100.109 158.148V7.27114C100.143 1.15687 103.844 -1.64911 108.423 0.995208L162.498 32.2248C167.117 34.8749 170.812 41.9706 170.812 48.0791V198.956C170.812 205.064 167.117 207.853 162.498 205.226Z" fill="#B1B4C4"/>
<path d="M163.439 207.945L167.729 205.78L163.618 198.73L163.439 207.945Z" fill="#B1B4C4"/>
<path d="M99.2888 2.50202L103.232 0.435059L102.435 6.2491L99.2888 2.50202Z" fill="#B1B4C4"/>
<path d="M159.063 206.952L104.976 175.723C100.392 173.078 96.6792 165.982 96.6792 159.868V8.99167C96.6792 2.88895 100.392 0.0771923 104.976 2.72151L159.063 33.9511C163.647 36.5954 167.36 43.6912 167.36 49.7997V200.682C167.36 206.79 163.653 209.585 159.063 206.952Z" fill="#616E84"/>
<path d="M166.788 50.1865V201.063C166.788 207.171 163.076 209.977 158.492 207.339L137.279 195.087L130.686 191.282L104.399 176.098C99.8201 173.448 96.1077 166.358 96.1077 160.243V9.37855C96.1019 3.26428 99.8201 0.464071 104.399 3.10262L158.492 34.3322C163.076 36.9823 166.788 44.0723 166.788 50.1865Z" fill="#20232D"/>
<path d="M162.885 48.6564V195.601C162.885 199.302 160.287 200.797 157.083 198.95L140.172 189.192L138.677 188.326L138.18 188.038L134.525 185.913L123.948 179.816L119.56 177.281L117.793 176.265L105.807 169.337C102.603 167.483 100.005 162.986 100.005 159.273V12.3519C100.005 8.64521 102.603 7.15561 105.807 8.9974L126.927 21.1913V21.249C127.012 22.8168 127.465 24.3426 128.25 25.7027C129.034 27.0629 130.128 28.2192 131.442 29.0781C133.942 30.5099 135.969 29.3494 135.969 26.4684C135.969 26.4684 135.969 26.4222 135.969 26.4049L157.095 38.5988C160.287 40.4463 162.885 44.9498 162.885 48.6564Z" fill="white"/>
<path d="M132.664 27.5598C133.332 27.174 133.331 25.921 132.661 24.7612C131.992 23.6013 130.907 22.9739 130.239 23.3597C129.571 23.7456 129.572 24.9986 130.241 26.1584C130.911 27.3182 131.995 27.9457 132.664 27.5598Z" fill="#2B303F"/>
<path opacity="0.1" d="M131.448 26.2894C131.242 26.1506 131.071 25.9656 130.948 25.7491C130.826 25.5326 130.756 25.2906 130.744 25.0423C130.744 24.5862 131.067 24.3956 131.465 24.6266C131.674 24.7641 131.847 24.9486 131.971 25.1651C132.096 25.3817 132.168 25.6244 132.181 25.8737C132.164 26.3298 131.841 26.5146 131.448 26.2894Z" fill="white"/>
<path d="M168.982 70.0361C168.538 70.296 168.18 70.0361 168.18 69.4588V63.0039C168.184 62.7037 168.259 62.4088 168.398 62.143C168.538 61.8772 168.738 61.6479 168.982 61.4739C169.421 61.2198 169.779 61.4739 169.779 62.0512V68.483C169.779 68.7866 169.707 69.0858 169.569 69.3559C169.43 69.626 169.229 69.8592 168.982 70.0361Z" fill="#757B89"/>
<path d="M168.982 80.5789C168.538 80.8329 168.18 80.5789 168.18 79.9726V73.5408C168.184 73.2415 168.259 72.9474 168.398 72.6825C168.538 72.4176 168.738 72.1894 168.982 72.0166C169.421 71.7625 169.779 72.0166 169.779 72.5939V79.0315C169.778 79.3341 169.706 79.6322 169.567 79.9012C169.429 80.1702 169.228 80.4024 168.982 80.5789Z" fill="#757B89"/>
<path d="M114.722 24.9961C110.005 22.2709 106.165 24.488 106.165 29.9383C106.18 31.4557 106.431 32.9614 106.91 34.4013C109.052 41.0468 113.157 49.1241 114.364 51.4451C114.445 51.6076 114.569 51.7453 114.722 51.8435C114.775 51.8799 114.839 51.8995 114.904 51.8995C114.969 51.8995 115.032 51.8799 115.086 51.8435C116.292 50.9197 120.397 47.5767 122.539 43.4082C123.063 42.2933 123.318 41.0713 123.284 39.8401C123.284 34.3725 119.445 27.7155 114.722 24.9961ZM114.722 40.0075C113.433 39.1648 112.359 38.0317 111.587 36.6992C110.815 35.3667 110.366 33.8718 110.276 32.3344C110.276 29.5053 112.274 28.3506 114.722 29.7651C116.018 30.6045 117.098 31.7369 117.875 33.0709C118.652 34.4048 119.105 35.9029 119.196 37.444C119.196 40.2789 117.176 41.4278 114.722 40.0133V40.0075Z" fill="#DADCE5"/>
<path d="M152.452 134.568L110.305 110.232C107.995 108.916 106.171 105.377 106.171 102.334V73.0616C106.171 70.0189 108.018 68.6216 110.305 69.938L152.452 94.2796C154.762 95.596 156.586 99.1295 156.586 102.178V131.444C156.586 134.487 154.739 135.89 152.452 134.568Z" fill="#E9EAF2"/>
<path d="M154.519 53.5986L132.002 40.5964C130.848 39.9382 129.935 38.1715 129.935 36.6472V36.526C129.935 35.0075 130.859 34.3089 132.002 34.9671L154.519 47.9693C155.674 48.6275 156.586 50.3942 156.586 51.9185V52.0397C156.586 53.5582 155.663 54.2741 154.519 53.5986Z" fill="#E9EAF2"/>
<path d="M154.519 64.43L132.002 51.422C130.848 50.7639 129.935 48.9971 129.935 47.4787V47.3459C129.935 45.8216 130.859 45.123 132.002 45.7812L154.519 58.7892C155.674 59.4474 156.586 61.2141 156.586 62.7326V62.8538C156.586 64.3896 155.663 65.0882 154.519 64.43Z" fill="#E9EAF2"/>
<path d="M154.519 75.8792L132.002 62.877C130.848 62.2188 129.935 60.4463 129.935 58.9278V58.8066C129.935 57.2823 130.859 56.5837 132.002 57.2419L154.519 70.2499C155.674 70.9081 156.586 72.6748 156.586 74.1991V74.3203C156.586 75.8388 155.663 76.5374 154.519 75.8792Z" fill="#E9EAF2"/>
<path d="M154.519 87.3281L108.226 60.6251C107.072 59.9669 106.159 58.2002 106.159 56.6817V56.5605C106.159 55.0362 107.083 54.3376 108.226 54.9958L154.514 81.7219C155.668 82.3801 156.581 84.1469 156.581 85.6711V85.7923C156.586 87.2877 155.662 87.9863 154.519 87.3281Z" fill="#E9EAF2"/>
<path d="M154.519 148.5L108.226 121.774C107.072 121.116 106.159 119.349 106.159 117.825V117.703C106.159 116.185 107.083 115.486 108.226 116.144L154.514 142.871C155.668 143.529 156.581 145.296 156.581 146.82V146.935C156.586 148.459 155.662 149.158 154.519 148.5Z" fill="#E9EAF2"/>
<path d="M154.519 160.855L108.226 134.129C107.072 133.471 106.159 131.704 106.159 130.18V130.059C106.159 128.54 107.083 127.836 108.226 128.5L154.514 155.22C155.668 155.884 156.581 157.651 156.581 159.169V159.291C156.586 160.815 155.662 161.514 154.519 160.855Z" fill="#E9EAF2"/>
<path d="M154.519 173.211L108.226 146.485C107.072 145.821 106.159 144.054 106.159 142.536V142.414C106.159 140.89 107.083 140.192 108.226 140.85L154.514 167.576C155.668 168.234 156.581 170.001 156.581 171.525V171.646C156.586 173.165 155.662 173.869 154.519 173.211Z" fill="#E9EAF2"/>
<path d="M134.306 173.892L108.746 159.135C107.591 158.477 106.679 156.71 106.679 155.186V155.064C106.679 153.546 107.609 152.841 108.746 153.505L134.306 168.257C135.461 168.915 136.373 170.688 136.373 172.206V172.327C136.373 173.846 135.443 174.55 134.306 173.892Z" fill="#E9EAF2"/>
</svg>
