<svg width="171" height="151" viewBox="0 0 171 151" fill="none" xmlns="http://www.w3.org/2000/svg">
<path d="M150.304 89.2011C149.478 90.1869 148.453 90.9208 147.342 91.4907H147.34C147.236 91.5449 147.131 91.5976 147.025 91.6474H147.024L147.023 91.6489L147.021 91.6474H147.02C147.02 91.6476 147.02 91.6478 147.02 91.648C147.02 91.6482 147.02 91.6483 147.02 91.6485C147.02 91.6486 147.019 91.6487 147.019 91.6488C147.019 91.6488 147.019 91.6489 147.019 91.6489H147.017L147.016 91.6474C147.015 91.6489 147.015 91.6489 147.013 91.6474L147.012 91.6489L147.011 91.6474H147.009C147.008 91.6489 147.008 91.6489 147.007 91.6474H147.005C146.261 91.999 145.497 92.2975 144.718 92.541C140.135 93.9615 135.319 94.2363 130.626 93.3452C130.536 93.3276 130.447 93.31 130.357 93.2924V81.411C130.446 81.37 130.536 81.3289 130.626 81.2894C131.211 81.0243 131.805 80.7806 132.405 80.5584C133.268 80.2362 134.144 79.9598 135.031 79.7293C137.927 78.9636 140.915 78.6996 143.885 78.9471C144.426 78.991 144.965 79.0545 145.502 79.1375C146.627 79.3089 147.807 79.6077 148.845 80.1263H148.846C148.998 80.2039 149.146 80.2845 149.294 80.3709C150.216 80.9173 150.994 81.6688 151.469 82.6986C151.639 83.0684 151.762 83.4623 151.833 83.869V83.8719C151.86 84.0126 151.879 84.1547 151.894 84.2953C152.063 86.0297 151.404 87.8856 150.304 89.2011Z" fill="#F2F2F2"/>
<path d="M151.793 84.6652C151.78 84.669 151.766 84.671 151.753 84.6714C149.467 84.7875 147.184 84.96 144.904 85.1887H144.9C144.891 85.1903 144.883 85.1903 144.874 85.1918C142.533 85.4273 140.197 85.7221 137.866 86.0763C137.768 86.0918 137.67 86.1073 137.573 86.1212C135.961 86.3706 134.352 86.6473 132.746 86.9515C132.037 87.0862 131.33 87.2267 130.624 87.3728C130.535 87.3914 130.447 87.4084 130.357 87.4285V86.9592C130.447 86.9391 130.536 86.922 130.624 86.9034C132.976 86.4202 135.335 85.9983 137.702 85.6379C138.297 85.545 138.893 85.4572 139.49 85.3746C141.215 85.133 142.941 84.9244 144.671 84.7488C144.798 84.7364 144.923 84.724 145.05 84.7116C147.264 84.4932 149.481 84.3275 151.701 84.2144C151.711 84.2138 151.722 84.2149 151.733 84.2175C151.946 84.2392 151.992 84.611 151.793 84.6652Z" fill="white"/>
<path d="M147.582 91.256C144.577 91.2803 141.616 89.8801 139.491 87.5624C138.891 86.9059 138.362 86.1753 137.916 85.3852C137.772 85.1327 137.437 85.4111 137.579 85.6615C139.23 88.5707 141.98 90.6431 145.012 91.4051C145.873 91.6195 146.753 91.723 147.636 91.7137C147.906 91.7115 147.85 91.2539 147.582 91.256V91.256Z" fill="white"/>
<path d="M135.491 79.9286C135.478 79.9695 135.454 80.0063 135.421 80.0352C135.389 80.0641 135.35 80.0841 135.307 80.0933C134.587 80.2801 133.891 80.5491 133.234 80.895C132.274 81.3969 131.402 82.0492 130.652 82.8265C130.612 82.8659 130.574 82.9052 130.537 82.946C130.475 83.0102 130.416 83.0758 130.357 83.1428V82.5073C130.452 82.4082 130.55 82.3105 130.652 82.2172C131.244 81.6561 131.9 81.165 132.606 80.7536C133.555 80.4329 134.516 80.1579 135.491 79.9286Z" fill="white"/>
<path d="M149.567 79.9511C147.549 80.9667 145.861 82.7099 144.749 84.927C144.726 84.9904 144.726 85.0617 144.748 85.1254C144.77 85.189 144.812 85.24 144.866 85.2671C144.921 85.2922 144.981 85.2919 145.035 85.2662C145.089 85.2405 145.133 85.1914 145.157 85.1291C146.219 83.0351 147.821 81.3904 149.733 80.4321C149.995 80.3008 149.829 79.8196 149.567 79.9511L149.567 79.9511Z" fill="white"/>
<path d="M154.792 68.6741C154.478 69.9045 153.876 71.0191 153.128 72.036L153.127 72.0374C153.057 72.1323 152.986 72.2285 152.911 72.3206V72.322C152.392 72.9818 151.831 73.6058 151.232 74.1899C149.08 76.3044 146.649 78.0951 144.01 79.5089C139.86 81.7437 135.222 83.0647 130.628 83.1401C130.593 83.1415 130.558 83.1414 130.523 83.1414C130.467 83.1428 130.412 83.1428 130.357 83.1428V76.8027C130.445 76.6297 130.536 76.4567 130.628 76.2851C131.822 74.0705 133.278 72.0172 134.962 70.1723C135.003 70.1263 135.045 70.0802 135.087 70.0356C135.72 69.3465 136.384 68.6904 137.078 68.0673C139.751 65.6451 142.839 63.7596 146.184 62.5083C147.262 62.1093 148.445 61.7899 149.595 61.7271C149.764 61.7173 149.932 61.7131 150.101 61.7145C151.16 61.7299 152.177 61.988 153.044 62.6269C153.355 62.8568 153.633 63.1295 153.872 63.4373C153.956 63.5448 154.033 63.655 154.108 63.768V63.7693C155.003 65.1504 155.212 67.0322 154.792 68.6741Z" fill="#F2F2F2"/>
<path d="M153.915 63.1425V63.1439C153.905 63.1532 153.895 63.1614 153.883 63.1683C151.897 64.4064 149.935 65.6895 147.999 67.0177C147.996 67.0191 147.995 67.0205 147.992 67.022C147.985 67.0278 147.976 67.033 147.968 67.0378C145.978 68.4038 144.015 69.8159 142.081 71.2739C142.001 71.3343 141.919 71.3961 141.837 71.458C140.502 72.4688 139.18 73.5012 137.872 74.5552C135.403 76.5482 132.987 78.615 130.626 80.7555C130.536 80.8361 130.447 80.918 130.357 81V80.4406C130.446 80.3587 130.536 80.2767 130.626 80.1962C131.531 79.378 132.443 78.5713 133.364 77.7762C133.639 77.5389 133.916 77.3017 134.192 77.0673C136.648 74.9722 139.159 72.9553 141.726 71.0165H141.727C142.232 70.6355 142.737 70.2578 143.244 69.8834C144.682 68.8222 146.137 67.7865 147.608 66.7761C147.714 66.7028 147.822 66.6294 147.929 66.5561C149.812 65.2677 151.72 64.0215 153.652 62.8175C153.662 62.8114 153.672 62.8061 153.682 62.8017C153.883 62.7154 154.072 63.0001 153.915 63.1425Z" fill="white"/>
<path d="M152.618 71.6493C150.052 73.1788 146.942 73.4455 144.172 72.4942C143.389 72.2236 142.637 71.8526 141.931 71.3888C141.705 71.2408 141.532 71.6515 141.756 71.7982C144.361 73.503 147.566 73.9274 150.476 73.0693C151.302 72.8238 152.099 72.4719 152.852 72.0207C153.082 71.8835 152.847 71.513 152.618 71.6493V71.6493Z" fill="white"/>
<path d="M133.607 76.5446C133.458 75.8588 133.407 75.1611 133.455 74.4656C133.563 72.8795 134.157 71.341 135.182 69.9917C135.933 69.3447 136.719 68.7284 137.541 68.1429C137.549 68.1812 137.544 68.2204 137.528 68.2568C137.511 68.2933 137.483 68.3255 137.447 68.3505C136.849 68.7968 136.316 69.2983 135.859 69.845C134.227 71.793 133.59 74.1855 134.084 76.5122C134.092 76.5386 134.091 76.5662 134.082 76.5924C134.074 76.6187 134.057 76.6426 134.033 76.6619C133.999 76.6863 133.958 76.703 133.913 76.7102C133.868 76.7174 133.822 76.715 133.779 76.7031C133.736 76.6913 133.698 76.6704 133.668 76.6426C133.637 76.6148 133.617 76.581 133.607 76.5446Z" fill="white"/>
<path d="M149.568 60.7246C148.509 62.469 147.894 64.6197 147.812 66.8636C147.816 66.9234 147.838 66.9787 147.872 67.0175C147.906 67.0562 147.951 67.0754 147.996 67.0707C148.04 67.0644 148.081 67.0354 148.11 66.9898C148.139 66.9443 148.153 66.8856 148.15 66.826C148.235 64.7013 148.822 62.6674 149.827 61.0174C149.965 60.7912 149.706 60.4979 149.568 60.7246Z" fill="white"/>
<path d="M135.454 65.5509V65.5523C135.445 65.6758 135.435 65.7979 135.423 65.92V65.9229C135.334 66.792 135.195 67.6538 135.007 68.5028C134.918 68.9194 134.82 69.3331 134.714 69.7468C134.701 69.8 134.687 69.8531 134.673 69.9048V69.9063C134.36 71.1095 133.987 72.2917 133.554 73.4472C132.758 75.5746 131.773 77.6064 130.613 79.512C130.53 79.6513 130.444 79.7907 130.357 79.9286V57.4333C130.443 57.4276 130.528 57.4276 130.613 57.4305C130.654 57.4305 130.695 57.4319 130.736 57.4348C131.098 57.4561 131.454 57.5339 131.796 57.6661C131.917 57.7106 132.033 57.7609 132.149 57.8169C133.545 58.5035 134.642 60.0176 135.119 61.6824C135.476 62.9293 135.548 64.2408 135.454 65.5509Z" fill="#F2F2F2"/>
<path d="M132.402 58.6823C132.399 58.6929 132.394 58.703 132.386 58.7125C131.794 59.5607 131.216 60.4133 130.65 61.2702C130.552 61.4179 130.454 61.5666 130.357 61.7143V60.9813C130.454 60.8347 130.551 60.6882 130.65 60.5416C131.087 59.8884 131.531 59.2381 131.983 58.5907C131.988 58.5831 131.994 58.5759 132.001 58.5691C132.135 58.4268 132.468 58.5238 132.402 58.6823Z" fill="white"/>
<path d="M135.467 66.2764C135.444 66.3217 135.421 66.367 135.395 66.4124C135.021 67.1372 134.577 67.8136 134.069 68.4294C133.093 69.6067 131.919 70.5583 130.612 71.2296C130.528 71.275 130.443 71.3175 130.357 71.3571V70.8968C130.443 70.8543 130.528 70.8104 130.612 70.7651C132.503 69.7614 134.074 68.1396 135.115 66.1163C135.13 66.0874 135.151 66.0625 135.175 66.0431C135.2 66.0238 135.227 66.0105 135.257 66.0042C135.286 65.9979 135.317 65.9987 135.346 66.0065C135.375 66.0144 135.402 66.0291 135.426 66.0498C135.442 66.0616 135.456 66.0769 135.467 66.0948C135.477 66.1126 135.485 66.1326 135.489 66.1537C135.492 66.1747 135.492 66.1964 135.489 66.2174C135.485 66.2385 135.477 66.2585 135.467 66.2764Z" fill="white"/>
<path d="M130.357 40.5413V51H130.089V50.8885H40.2685V51H40V40.5413C40.0012 39.3372 40.4683 38.1828 41.299 37.3314C42.1296 36.48 43.2559 36.0012 44.4306 36H125.926C127.101 36.0012 128.227 36.48 129.058 37.3314C129.889 38.1828 130.356 39.3372 130.357 40.5413Z" fill="#6C63FF"/>
<g filter="url(#filter0_d)">
<path d="M125.926 36H44.4306C43.2559 36.0012 42.1296 36.4933 41.299 37.3683C40.4683 38.2433 40.0012 39.4297 40 40.6671V102.047C40.0012 103.285 40.4683 104.471 41.299 105.346C42.1296 106.221 43.2559 106.713 44.4306 106.714H125.926C127.101 106.713 128.227 106.221 129.058 105.346C129.889 104.471 130.356 103.285 130.357 102.047V40.6671C130.356 39.4297 129.889 38.2433 129.058 37.3683C128.227 36.4933 127.101 36.0012 125.926 36ZM130.089 102.047C130.087 103.209 129.648 104.324 128.868 105.146C128.088 105.968 127.03 106.43 125.926 106.431H44.4306C43.3272 106.43 42.2693 105.968 41.4891 105.146C40.7089 104.324 40.2699 103.209 40.2685 102.047V40.6671C40.2699 39.5048 40.7089 38.3905 41.4891 37.5686C42.2693 36.7467 43.3272 36.2843 44.4306 36.2829H125.926C127.03 36.2843 128.088 36.7467 128.868 37.5686C129.648 38.3905 130.087 39.5048 130.089 40.6671V102.047Z" fill="#B4B4B4" fill-opacity="0.5"/>
</g>
<path d="M57.9688 46.7143C59.3865 46.7143 60.5358 45.515 60.5358 44.0357C60.5358 42.5564 59.3865 41.3571 57.9688 41.3571C56.5511 41.3571 55.4019 42.5564 55.4019 44.0357C55.4019 45.515 56.5511 46.7143 57.9688 46.7143Z" fill="white"/>
<path d="M112.388 46.7143C113.806 46.7143 114.955 45.515 114.955 44.0357C114.955 42.5564 113.806 41.3571 112.388 41.3571C110.971 41.3571 109.821 42.5564 109.821 44.0357C109.821 45.515 110.971 46.7143 112.388 46.7143Z" fill="white"/>
<path d="M66.1389 75.6428H49.7986C49.1063 75.642 48.4426 75.3457 47.9531 74.8191C47.4636 74.2924 47.1883 73.5783 47.1875 72.8334V64.5237C47.1883 63.7788 47.4636 63.0647 47.9531 62.5381C48.4426 62.0114 49.1063 61.7151 49.7986 61.7143H66.1389C66.8312 61.7151 67.4949 62.0114 67.9844 62.5381C68.4739 63.0647 68.7492 63.7788 68.75 64.5237V72.8334C68.7492 73.5783 68.4739 74.2924 67.9844 74.8191C67.4949 75.3457 66.8312 75.642 66.1389 75.6428Z" fill="#F2F2F2"/>
<path d="M93.8621 75.6428H77.5217C76.8294 75.642 76.1658 75.3457 75.6763 74.8191C75.1868 74.2924 74.9114 73.5783 74.9106 72.8334V64.5237C74.9114 63.7788 75.1868 63.0647 75.6763 62.5381C76.1658 62.0114 76.8294 61.7151 77.5217 61.7143H93.8621C94.5543 61.7151 95.218 62.0114 95.7075 62.5381C96.197 63.0647 96.4723 63.7788 96.4731 64.5237V72.8334C96.4723 73.5783 96.197 74.2924 95.7075 74.8191C95.218 75.3457 94.5543 75.642 93.8621 75.6428Z" fill="#6C63FF"/>
<path d="M93.8025 96H77.5812C76.8732 95.9991 76.1944 95.6976 75.6937 95.1615C75.1931 94.6254 74.9114 93.8986 74.9106 93.1404V84.931C74.9114 84.1728 75.1931 83.446 75.6937 82.9099C76.1944 82.3738 76.8732 82.0723 77.5812 82.0714H93.8025C94.5106 82.0723 95.1894 82.3738 95.6901 82.9099C96.1907 83.446 96.4723 84.1728 96.4731 84.931V93.1404C96.4723 93.8986 96.1907 94.6254 95.6901 95.1615C95.1894 95.6976 94.5106 95.9991 93.8025 96Z" fill="#F2F2F2"/>
<path d="M66.0794 96H49.8581C49.15 95.9991 48.4712 95.6976 47.9706 95.1615C47.4699 94.6254 47.1883 93.8986 47.1875 93.1404V84.931C47.1883 84.1728 47.4699 83.446 47.9706 82.9099C48.4712 82.3738 49.15 82.0723 49.8581 82.0714H66.0794C66.7874 82.0723 67.4662 82.3738 67.9669 82.9099C68.4676 83.446 68.7492 84.1728 68.75 84.931V93.1404C68.7492 93.8986 68.4676 94.6254 67.9669 95.1615C67.4662 95.6976 66.7874 95.9991 66.0794 96Z" fill="#F2F2F2"/>
<path d="M120.499 96H104.278C103.57 95.9991 102.891 95.6976 102.39 95.1615C101.89 94.6254 101.608 93.8986 101.607 93.1404V84.931C101.608 84.1728 101.89 83.446 102.39 82.9099C102.891 82.3738 103.57 82.0723 104.278 82.0714H120.499C121.207 82.0723 121.886 82.3738 122.387 82.9099C122.887 83.446 123.169 84.1728 123.17 84.931V93.1404C123.169 93.8986 122.887 94.6254 122.387 95.1615C121.886 95.6976 121.207 95.9991 120.499 96Z" fill="#F2F2F2"/>
<path d="M120.499 75.6428H104.278C103.57 75.642 102.891 75.3404 102.39 74.8044C101.89 74.2683 101.608 73.5414 101.607 72.7833V64.5738C101.608 63.8157 101.89 63.0889 102.39 62.5528C102.891 62.0167 103.57 61.7151 104.278 61.7143H120.499C121.207 61.7151 121.886 62.0167 122.387 62.5528C122.887 63.0889 123.169 63.8157 123.17 64.5738V72.7833C123.169 73.5414 122.887 74.2683 122.387 74.8044C121.886 75.3404 121.207 75.642 120.499 75.6428Z" fill="#F2F2F2"/>
<path d="M85.6918 72.4286C88.2437 72.4286 90.3124 70.5098 90.3124 68.1428C90.3124 65.7759 88.2437 63.8571 85.6918 63.8571C83.14 63.8571 81.0713 65.7759 81.0713 68.1428C81.0713 70.5098 83.14 72.4286 85.6918 72.4286Z" fill="white"/>
<path d="M84.7327 70.2857C84.6262 70.2859 84.5224 70.2551 84.4372 70.1981L84.4319 70.1946L83.3188 69.4341C83.2146 69.3629 83.1465 69.2578 83.1293 69.1417C83.1121 69.0257 83.1472 68.9084 83.227 68.8155C83.3068 68.7226 83.4246 68.6617 83.5546 68.6464C83.6847 68.631 83.8162 68.6624 83.9203 68.7336L84.6413 69.2269L86.3451 67.2442C86.3846 67.1982 86.4339 67.1596 86.4901 67.1306C86.5464 67.1016 86.6085 67.0828 86.6728 67.0752C86.7372 67.0676 86.8027 67.0714 86.8654 67.0864C86.9281 67.1014 86.9869 67.1272 87.0385 67.1625L87.0279 67.1753L87.0388 67.1627C87.1427 67.234 87.2107 67.3392 87.2279 67.4551C87.245 67.5711 87.2099 67.6885 87.1303 67.7814L85.1262 70.1135C85.0798 70.1672 85.0202 70.2107 84.952 70.2406C84.8838 70.2704 84.8087 70.2859 84.7327 70.2857Z" fill="#6C63FF"/>
<defs>
<filter id="filter0_d" x="0" y="0" width="170.357" height="150.714" filterUnits="userSpaceOnUse" color-interpolation-filters="sRGB">
<feFlood flood-opacity="0" result="BackgroundImageFix"/>
<feColorMatrix in="SourceAlpha" type="matrix" values="0 0 0 0 0 0 0 0 0 0 0 0 0 0 0 0 0 0 127 0"/>
<feOffset dy="4"/>
<feGaussianBlur stdDeviation="20"/>
<feColorMatrix type="matrix" values="0 0 0 0 0 0 0 0 0 0 0 0 0 0 0 0 0 0 0.25 0"/>
<feBlend mode="normal" in2="BackgroundImageFix" result="effect1_dropShadow"/>
<feBlend mode="normal" in="SourceGraphic" in2="effect1_dropShadow" result="shape"/>
</filter>
</defs>
</svg>
