<svg width="36" height="37" viewBox="0 0 36 37" fill="none" xmlns="http://www.w3.org/2000/svg">
<ellipse cx="18" cy="18.4457" rx="18" ry="17.8798" fill="#FCDAFD"/>
<path fill-rule="evenodd" clip-rule="evenodd" d="M22.7144 12.2588H23.4572C24.2744 12.2588 24.943 12.9229 24.943 13.7345V24.0651C24.943 24.8768 24.2744 25.5409 23.4572 25.5409H13.0572C12.2327 25.5409 11.5715 24.8768 11.5715 24.0651L11.579 13.7345C11.579 12.9229 12.2327 12.2588 13.0572 12.2588H13.8001V10.783H15.2858V12.2588H21.2287V10.783H22.7144V12.2588ZM13.0571 24.0653H23.4571V16.6863H13.0571V24.0653ZM23.4571 15.2103H13.0571V13.7345H23.4571V15.2103ZM21.9714 18.8997H18.2571V22.5892H21.9714V18.8997Z" fill="#8E0291"/>
</svg>
