<svg width="109" height="109" viewBox="0 0 109 109" fill="none" xmlns="http://www.w3.org/2000/svg">
<g clip-path="url(#clip0)">
<path d="M72.4606 34.9423C92.3633 34.6383 108.608 50.303 108.993 70.2042C109.05 73.1261 108.758 75.9701 108.156 78.6981C107.137 83.3172 106.531 88.0176 106.531 92.7478V101.891C106.531 103.292 105.396 104.427 103.995 104.427H94.8518C90.1216 104.427 85.4212 105.033 80.8021 106.052C78.0743 106.654 75.2303 106.946 72.3084 106.889C52.4074 106.504 36.7427 90.2599 37.0463 70.3577C37.3425 50.9315 53.0346 35.2391 72.4606 34.9423Z" fill="url(#paint0_linear)"/>
<path d="M72.4606 34.9423C92.3633 34.6383 108.608 50.303 108.993 70.2042C109.05 73.1261 108.758 75.9701 108.156 78.6981C107.137 83.3172 106.531 88.0176 106.531 92.7478V101.891C106.531 103.292 105.396 104.427 103.995 104.427H94.8518C90.1216 104.427 85.4212 105.033 80.8021 106.052C78.0743 106.654 75.2303 106.946 72.3084 106.889C52.4074 106.504 36.7427 90.2599 37.0463 70.3577C37.3425 50.9315 53.0346 35.2391 72.4606 34.9423Z" fill="url(#paint1_linear)"/>
<path d="M44.5149 2.10955C20.268 1.73912 0.477893 20.8228 0.00825714 45.068C-0.0605064 48.6273 0.295233 52.0926 1.02843 55.4158C2.26958 61.0429 3.00745 66.7694 3.00745 72.5322V83.671C3.00745 85.3775 4.39081 86.7611 6.09756 86.7611H17.2364C22.9989 86.7611 28.7254 87.499 34.3528 88.7401C37.676 89.4731 41.141 89.8291 44.7003 89.7601C68.9451 89.2907 88.0288 69.5012 87.6592 45.2547C87.2981 21.5884 68.181 2.47083 44.5149 2.10955Z" fill="url(#paint2_linear)"/>
<path d="M28.1427 43.587C26.9045 42.2713 25.152 41.4451 23.2024 41.4451C19.4527 41.4451 16.4131 44.4847 16.4131 48.2343C16.4131 50.1838 17.2391 51.9363 18.555 53.1747L33.2005 67.8202C34.4389 69.1359 36.1914 69.9621 38.1409 69.9621C41.8905 69.9621 44.9302 66.9225 44.9302 63.1729C44.9302 61.2234 44.1039 59.4709 42.7883 58.2325L28.1427 43.587Z" fill="url(#paint3_linear)"/>
<path d="M23.2021 55.0228C26.9517 55.0228 29.9914 51.9831 29.9914 48.2335C29.9914 44.4839 26.9517 41.4442 23.2021 41.4442C19.4525 41.4442 16.4128 44.4839 16.4128 48.2335C16.4128 51.9831 19.4525 55.0228 23.2021 55.0228Z" fill="white"/>
<path d="M47.3431 43.587C46.105 42.2713 44.3525 41.4451 42.4028 41.4451C38.6532 41.4451 35.6135 44.4847 35.6135 48.2343C35.6135 50.1838 36.4395 51.9363 37.7554 53.1747L52.401 67.8202C53.6394 69.1359 55.3919 69.9621 57.3413 69.9621C61.0909 69.9621 64.1306 66.9225 64.1306 63.1729C64.1306 61.2234 63.3044 59.4709 61.9887 58.2325L47.3431 43.587Z" fill="url(#paint4_linear)"/>
<path d="M42.403 55.0228C46.1527 55.0228 49.1923 51.9831 49.1923 48.2335C49.1923 44.4839 46.1527 41.4442 42.403 41.4442C38.6534 41.4442 35.6138 44.4839 35.6138 48.2335C35.6138 51.9831 38.6534 55.0228 42.403 55.0228Z" fill="white"/>
<path d="M66.5436 43.587C65.3054 42.2713 63.5529 41.4451 61.6032 41.4451C57.8536 41.4451 54.814 44.4847 54.814 48.2343C54.814 50.1838 55.6402 51.9363 56.9559 53.1747L71.6014 67.8202C72.8398 69.1359 74.5923 69.9621 76.5418 69.9621C80.2914 69.9621 83.331 66.9225 83.331 63.1729C83.331 61.2234 82.5048 59.4709 81.1891 58.2325L66.5436 43.587Z" fill="url(#paint5_linear)"/>
<path d="M61.6042 55.0228C65.3538 55.0228 68.3935 51.9831 68.3935 48.2335C68.3935 44.4839 65.3538 41.4442 61.6042 41.4442C57.8546 41.4442 54.8149 44.4839 54.8149 48.2335C54.8149 51.9831 57.8546 55.0228 61.6042 55.0228Z" fill="white"/>
</g>
<defs>
<linearGradient id="paint0_linear" x1="65.7581" y1="63.6564" x2="118.581" y2="116.48" gradientUnits="userSpaceOnUse">
<stop stop-color="#A7F3CE"/>
<stop offset="1" stop-color="#61DB99"/>
</linearGradient>
<linearGradient id="paint1_linear" x1="83.0497" y1="80.947" x2="60.6133" y2="58.5127" gradientUnits="userSpaceOnUse">
<stop stop-color="#61DB99" stop-opacity="0"/>
<stop offset="1" stop-color="#009E74"/>
</linearGradient>
<linearGradient id="paint2_linear" x1="27.8181" y1="38.8501" x2="83.5885" y2="94.6205" gradientUnits="userSpaceOnUse">
<stop stop-color="#62E1FB"/>
<stop offset="1" stop-color="#00A2F3"/>
</linearGradient>
<linearGradient id="paint3_linear" x1="38.3052" y1="63.3386" x2="8.94129" y2="33.9755" gradientUnits="userSpaceOnUse">
<stop stop-color="#00A2F3" stop-opacity="0"/>
<stop offset="1" stop-color="#0075CD"/>
</linearGradient>
<linearGradient id="paint4_linear" x1="57.5043" y1="63.3378" x2="28.1413" y2="33.9748" gradientUnits="userSpaceOnUse">
<stop stop-color="#00A2F3" stop-opacity="0"/>
<stop offset="1" stop-color="#0075CD"/>
</linearGradient>
<linearGradient id="paint5_linear" x1="76.7047" y1="63.3381" x2="47.3417" y2="33.9751" gradientUnits="userSpaceOnUse">
<stop stop-color="#00A2F3" stop-opacity="0"/>
<stop offset="1" stop-color="#0075CD"/>
</linearGradient>
<clipPath id="clip0">
<rect width="109" height="109" fill="white"/>
</clipPath>
</defs>
</svg>
