<svg width="186" height="186" viewBox="0 0 186 186" fill="none" xmlns="http://www.w3.org/2000/svg">
<circle cx="93" cy="93" r="93" fill="#F5F4F6"/>
<path d="M101.844 65.6875H68.4688C66.9335 65.6875 65.6875 66.9335 65.6875 68.4688C65.6875 70.004 66.9335 71.25 68.4688 71.25H101.844C103.379 71.25 104.625 70.004 104.625 68.4688C104.625 66.9335 103.379 65.6875 101.844 65.6875Z" fill="#300099"/>
<path d="M90.7188 76.8125H68.4688C66.9335 76.8125 65.6875 78.0585 65.6875 79.5938C65.6875 81.129 66.9335 82.375 68.4688 82.375H90.7188C92.254 82.375 93.5 81.129 93.5 79.5938C93.5 78.0585 92.254 76.8125 90.7188 76.8125Z" fill="#300099"/>
<path d="M110.188 49H60.125C53.9896 49 49 53.9896 49 60.125V115.75C49 116.829 49.623 117.814 50.602 118.27C50.9747 118.442 51.3807 118.531 51.7812 118.531C52.4209 118.531 53.0551 118.309 53.5612 117.886L69.4756 104.625H110.188C116.323 104.625 121.312 99.6354 121.312 93.5V60.125C121.312 53.9896 116.323 49 110.188 49ZM115.75 93.5C115.75 96.5649 113.258 99.0625 110.188 99.0625H68.4688C67.8179 99.0625 67.1894 99.2906 66.6888 99.7078L54.5625 109.815V60.125C54.5625 57.0601 57.0545 54.5625 60.125 54.5625H110.188C113.258 54.5625 115.75 57.0601 115.75 60.125V93.5Z" fill="#300099"/>
<path d="M126.875 71.25C125.34 71.25 124.094 72.496 124.094 74.0312C124.094 75.5665 125.34 76.8125 126.875 76.8125C129.945 76.8125 132.438 79.3101 132.438 82.375V129.428L123.048 121.919C122.559 121.529 121.941 121.312 121.312 121.312H82.375C79.3045 121.312 76.8125 118.815 76.8125 115.75V112.969C76.8125 111.433 75.5665 110.188 74.0312 110.188C72.496 110.188 71.25 111.433 71.25 112.969V115.75C71.25 121.885 76.2396 126.875 82.375 126.875H120.334L133.478 137.394C133.984 137.794 134.601 138 135.219 138C135.625 138 136.036 137.911 136.426 137.727C137.388 137.26 138 136.287 138 135.219V82.375C138 76.2396 133.01 71.25 126.875 71.25Z" fill="#300099"/>
</svg>
