<svg width="120" height="120" viewBox="0 0 120 120" fill="none" xmlns="http://www.w3.org/2000/svg">
<circle cx="60" cy="60" r="60" fill="black" fill-opacity="0.61"/>
<path fill-rule="evenodd" clip-rule="evenodd" d="M53.125 40.375H65.875L69.7638 44.625H76.5C78.8375 44.625 80.75 46.5375 80.75 48.875V74.375C80.75 76.7125 78.8375 78.625 76.5 78.625H42.5C40.1625 78.625 38.25 76.7125 38.25 74.375V48.875C38.25 46.5375 40.1625 44.625 42.5 44.625H49.2362L53.125 40.375ZM67.8937 48.875L64.005 44.625H54.995L51.1062 48.875H42.5V74.375H76.5V48.875H67.8937ZM59.5 55.25C63.0063 55.25 65.875 58.1188 65.875 61.625C65.875 65.1313 63.0063 68 59.5 68C55.9938 68 53.125 65.1313 53.125 61.625C53.125 58.1188 55.9938 55.25 59.5 55.25ZM48.875 61.625C48.875 55.76 53.635 51 59.5 51C65.365 51 70.125 55.76 70.125 61.625C70.125 67.49 65.365 72.25 59.5 72.25C53.635 72.25 48.875 67.49 48.875 61.625Z" fill="white"/>
</svg>
