<svg width="20" height="15" viewBox="0 0 20 15" fill="none" xmlns="http://www.w3.org/2000/svg">
<path d="M18.125 0H1.87501C0.841067 0 0 0.841067 0 1.87501V13.125C0 14.159 0.841067 15 1.87501 15H18.125C19.1589 15 20 14.159 20 13.125V1.87501C20 0.841067 19.1589 0 18.125 0ZM18.125 1.24999C18.2099 1.24999 18.2907 1.26761 18.3645 1.29838L10 8.54798L1.63542 1.29838C1.70927 1.26765 1.79005 1.24999 1.87497 1.24999H18.125ZM18.125 13.75H1.87501C1.53017 13.75 1.24999 13.4699 1.24999 13.125V2.61901L9.59045 9.84741C9.70826 9.94932 9.85413 10 10 10C10.1459 10 10.2917 9.94936 10.4096 9.84741L18.75 2.61901V13.125C18.75 13.4699 18.4698 13.75 18.125 13.75Z" fill="black"/>
</svg>
