<svg width="186" height="186" viewBox="0 0 186 186" fill="none" xmlns="http://www.w3.org/2000/svg">
<circle cx="93" cy="93" r="93" fill="#F5F4F6"/>
<path d="M74.5619 105.858C71.6295 105.323 68.8277 104.309 66.2343 102.845C65.7516 102.573 65.1484 102.643 64.7417 103.02C62.4582 105.136 59.4857 106.301 56.3721 106.301C55.7988 106.301 55.2309 106.262 54.6705 106.185C57.1371 104.464 59.0546 102.016 60.117 99.1562C60.2855 98.7022 60.1822 98.1917 59.8504 97.8391C55.1418 92.8358 52.5488 86.296 52.5488 79.4249C52.5488 64.6053 64.6055 52.5488 79.4249 52.5488C92.4125 52.5488 103.53 61.8067 105.861 74.562C105.988 75.2543 106.652 75.7126 107.344 75.5867C108.036 75.4602 108.495 74.7964 108.369 74.1039C105.816 60.1372 93.6439 50 79.4249 50C63.2 50 50 63.2 50 79.4249C50 86.6729 52.6355 93.5841 57.4383 98.9785C56.1462 101.886 53.7607 104.205 50.7961 105.405C50.315 105.599 50 106.067 50 106.586C50 107.105 50.315 107.573 50.7963 107.767C52.5701 108.486 54.4462 108.85 56.3721 108.85C59.8205 108.85 63.1254 107.665 65.7762 105.497C68.392 106.869 71.1893 107.833 74.1043 108.365C74.796 108.491 75.4602 108.033 75.5868 107.34C75.7134 106.648 75.2543 105.984 74.5619 105.858Z" fill="#300099"/>
<path d="M123.683 101.143L113.376 99.5906L108.715 90.268C108.499 89.8364 108.058 89.5635 107.575 89.5635C107.092 89.5635 106.651 89.8362 106.435 90.268L101.774 99.5906L91.4672 101.143C90.9899 101.215 90.5942 101.55 90.445 102.01C90.2958 102.469 90.4188 102.973 90.7627 103.311L98.1887 110.625L96.4801 120.907C96.4009 121.384 96.5977 121.863 96.9882 122.147C97.3783 122.431 97.8957 122.47 98.3244 122.247L107.575 117.445L116.826 122.247C117.011 122.343 117.212 122.391 117.413 122.391C117.677 122.391 117.94 122.309 118.162 122.147C118.553 121.863 118.749 121.384 118.67 120.907L116.962 110.625L124.388 103.311C124.731 102.973 124.855 102.469 124.705 102.01C124.556 101.55 124.16 101.215 123.683 101.143ZM114.702 109.274C114.406 109.565 114.271 109.981 114.339 110.39L115.738 118.811L108.162 114.878C107.794 114.687 107.356 114.687 106.988 114.878L99.4123 118.811L100.811 110.39C100.879 109.981 100.744 109.565 100.448 109.274L94.3671 103.284L102.808 102.013C103.218 101.951 103.572 101.693 103.758 101.322L107.575 93.6876L111.392 101.322C111.578 101.693 111.932 101.951 112.342 102.013L120.783 103.284L114.702 109.274Z" fill="#300099"/>
<path d="M136.204 133.555C133.239 132.355 130.854 130.037 129.561 127.129C134.364 121.735 137 114.823 137 107.575C137 91.3503 123.8 78.1504 107.575 78.1504C91.35 78.1504 78.1501 91.3503 78.1501 107.575C78.1501 123.8 91.3502 137 107.575 137C112.334 137 117.033 135.843 121.223 133.648C123.874 135.816 127.179 137 130.628 137C132.554 137 134.43 136.636 136.204 135.918C136.685 135.723 137 135.256 137 134.736C137 134.217 136.685 133.75 136.204 133.555ZM130.628 134.451C127.514 134.451 124.542 133.286 122.258 131.17C122.017 130.946 121.706 130.831 121.392 130.831C121.177 130.831 120.961 130.885 120.766 130.995C116.76 133.256 112.199 134.451 107.575 134.451C92.7556 134.451 80.699 122.395 80.699 107.575C80.699 92.7557 92.7556 80.6992 107.575 80.6992C122.394 80.6992 134.451 92.7557 134.451 107.575C134.451 114.446 131.858 120.986 127.15 125.989C126.818 126.342 126.714 126.852 126.883 127.306C127.945 130.167 129.863 132.614 132.329 134.335C131.769 134.412 131.201 134.451 130.628 134.451Z" fill="#300099"/>
</svg>
