<svg width="24" height="24" viewBox="0 0 24 24" fill="none" xmlns="http://www.w3.org/2000/svg">
<path d="M20.2845 5.27186H9.57543C9.28101 4.39741 8.4539 3.76562 7.48143 3.76562C6.50896 3.76562 5.68185 4.39741 5.38743 5.27186H3.71582C3.32751 5.27186 3.0127 5.58667 3.0127 5.97498C3.0127 6.3633 3.32751 6.67811 3.71582 6.67811H5.38748C5.6819 7.55256 6.50901 8.18434 7.48148 8.18434C8.45395 8.18434 9.28106 7.55256 9.57548 6.67811H20.2846C20.6729 6.67811 20.9877 6.3633 20.9877 5.97498C20.9877 5.58667 20.6729 5.27186 20.2845 5.27186ZM7.48143 6.77809C7.0386 6.77809 6.67832 6.41781 6.67832 5.97498C6.67832 5.53216 7.0386 5.17188 7.48143 5.17188C7.92426 5.17188 8.28454 5.53216 8.28454 5.97498C8.28454 6.41781 7.92426 6.77809 7.48143 6.77809Z" fill="black"/>
<path d="M20.2845 11.2969H18.6129C18.3185 10.4224 17.4913 9.79065 16.5189 9.79065C15.5465 9.79065 14.7194 10.4224 14.4249 11.2969H3.71582C3.32751 11.2969 3.0127 11.6117 3.0127 12C3.0127 12.3883 3.32751 12.7031 3.71582 12.7031H14.4249C14.7194 13.5776 15.5465 14.2094 16.5189 14.2094C17.4914 14.2094 18.3185 13.5776 18.6129 12.7031H20.2846C20.6729 12.7031 20.9877 12.3883 20.9877 12C20.9877 11.6117 20.6729 11.2969 20.2845 11.2969ZM16.5189 12.8031C16.0761 12.8031 15.7158 12.4428 15.7158 12C15.7158 11.5572 16.0761 11.1969 16.5189 11.1969C16.9618 11.1969 17.322 11.5572 17.322 12C17.322 12.4428 16.9618 12.8031 16.5189 12.8031Z" fill="black"/>
<path d="M20.2845 17.3219H12.5879C12.2935 16.4475 11.4664 15.8157 10.4939 15.8157C9.52148 15.8157 8.69437 16.4475 8.39995 17.3219H3.71582C3.32751 17.3219 3.0127 17.6367 3.0127 18.025C3.0127 18.4133 3.32751 18.7282 3.71582 18.7282H8.39995C8.69437 19.6026 9.52148 20.2344 10.4939 20.2344C11.4664 20.2344 12.2935 19.6026 12.5879 18.7282H20.2846C20.6729 18.7282 20.9877 18.4133 20.9877 18.025C20.9877 17.6367 20.6729 17.3219 20.2845 17.3219ZM10.4939 18.8282C10.0511 18.8282 9.69084 18.4679 9.69084 18.0251C9.69084 17.5823 10.0511 17.222 10.4939 17.222C10.9368 17.222 11.2971 17.5822 11.2971 18.025C11.2971 18.4679 10.9368 18.8282 10.4939 18.8282Z" fill="black"/>
</svg>
