<svg width="36" height="37" viewBox="0 0 36 37" fill="none" xmlns="http://www.w3.org/2000/svg">
<ellipse cx="18" cy="18.6444" rx="18" ry="17.8798" fill="#FFD7D7"/>
<path fill-rule="evenodd" clip-rule="evenodd" d="M17.9583 13.0984C15.2171 13.0984 13 15.3007 13 18.0236C13 21.7175 17.9583 27.1705 17.9583 27.1705C17.9583 27.1705 22.9167 21.7175 22.9167 18.0236C22.9167 15.3007 20.6996 13.0984 17.9583 13.0984ZM14.4167 18.0236C14.4167 16.0817 16.0033 14.5056 17.9583 14.5056C19.9133 14.5056 21.5 16.0817 21.5 18.0236C21.5 20.05 19.46 23.0825 17.9583 24.9752C16.485 23.0966 14.4167 20.0289 14.4167 18.0236ZM16.1875 18.0236C16.1875 17.0521 16.9803 16.2646 17.9583 16.2646C18.591 16.2646 19.1756 16.5999 19.4919 17.1441C19.8082 17.6883 19.8082 18.3589 19.4919 18.9031C19.1756 19.4474 18.591 19.7826 17.9583 19.7826C16.9803 19.7826 16.1875 18.9951 16.1875 18.0236Z" fill="#FF0000"/>
</svg>
