<svg width="40" height="40" viewBox="0 0 40 40" fill="none" xmlns="http://www.w3.org/2000/svg">
<rect x="0.5" y="0.5" width="39" height="39" rx="19.5" fill="white" stroke="#300099"/>
<path d="M28 19.5556C28.003 20.7288 27.7289 21.8861 27.2 22.9333C26.5728 24.1882 25.6086 25.2437 24.4155 25.9816C23.2223 26.7195 21.8473 27.1106 20.4444 27.1111C19.2712 27.1142 18.1139 26.8401 17.0667 26.3111L12 28L13.6889 22.9333C13.1599 21.8861 12.8858 20.7288 12.8889 19.5556C12.8894 18.1527 13.2805 16.7777 14.0184 15.5845C14.7563 14.3914 15.8118 13.4272 17.0667 12.8C18.1139 12.2711 19.2712 11.997 20.4444 12H20.8889C22.7416 12.1022 24.4916 12.8843 25.8037 14.1963C27.1157 15.5084 27.8978 17.2584 28 19.1111V19.5556Z" stroke="#300099" stroke-width="2" stroke-linecap="round" stroke-linejoin="round"/>
</svg>
