<svg width="34" height="34" viewBox="0 0 34 34" fill="none" xmlns="http://www.w3.org/2000/svg">
<path d="M34 17C34 26.3888 26.3888 34 17 34C7.61116 34 0 26.3888 0 17C0 7.61116 7.61116 0 17 0C26.3888 0 34 7.61116 34 17Z" fill="#300099"/>
<path d="M24.3948 16.5951L24.3898 16.5929L11.0423 11.0571C10.93 11.0101 10.8079 10.9917 10.6867 11.0035C10.5656 11.0152 10.4493 11.0569 10.3482 11.1246C10.2413 11.1946 10.1536 11.29 10.0928 11.4024C10.032 11.5147 10.0001 11.6403 10 11.7681V15.3085C10.0001 15.4831 10.061 15.6522 10.1724 15.7866C10.2837 15.9211 10.4385 16.0125 10.6101 16.0451L17.8898 17.391C17.9184 17.3965 17.9442 17.4117 17.9628 17.4341C17.9814 17.4565 17.9915 17.4847 17.9915 17.5139C17.9915 17.543 17.9814 17.5712 17.9628 17.5936C17.9442 17.616 17.9184 17.6313 17.8898 17.6367L10.6104 18.9827C10.4389 19.0152 10.2841 19.1064 10.1727 19.2408C10.0613 19.3751 10.0002 19.5441 10 19.7186V23.2597C9.99992 23.3816 10.0301 23.5017 10.0879 23.6091C10.1456 23.7165 10.2292 23.8078 10.331 23.875C10.4534 23.9563 10.5971 23.9998 10.7441 24C10.8463 23.9999 10.9475 23.9794 11.0417 23.9397L24.3888 18.4354L24.3948 18.4326C24.5744 18.3554 24.7275 18.2272 24.8351 18.0639C24.9427 17.9006 25 17.7094 25 17.5139C25 17.3183 24.9427 17.1271 24.8351 16.9638C24.7275 16.8005 24.5744 16.6723 24.3948 16.5951Z" fill="white"/>
</svg>
