<svg width="186" height="186" viewBox="0 0 186 186" fill="none" xmlns="http://www.w3.org/2000/svg">
<circle cx="93" cy="93" r="93" fill="#F5F4F6"/>
<path d="M113.312 88.9375C115.038 88.9375 116.438 87.5384 116.438 85.8125C116.438 84.0866 115.038 82.6875 113.312 82.6875C111.587 82.6875 110.188 84.0866 110.188 85.8125C110.188 87.5384 111.587 88.9375 113.312 88.9375Z" fill="#300099"/>
<path d="M120.5 59.25H116.438V56.125C116.438 54.3991 115.038 53 113.312 53C111.587 53 110.188 54.3991 110.188 56.125V59.25H95.9688V56.125C95.9688 54.3991 94.5697 53 92.8438 53C91.1178 53 89.7188 54.3991 89.7188 56.125V59.25H75.6562V56.125C75.6562 54.3991 74.2572 53 72.5312 53C70.8053 53 69.4062 54.3991 69.4062 56.125V59.25H65.5C58.6075 59.25 53 64.8575 53 71.75V120.5C53 127.392 58.6075 133 65.5 133H89.4062C91.1322 133 92.5312 131.601 92.5312 129.875C92.5312 128.149 91.1322 126.75 89.4062 126.75H65.5C62.0538 126.75 59.25 123.946 59.25 120.5V71.75C59.25 68.3038 62.0538 65.5 65.5 65.5H69.4062V68.625C69.4062 70.3509 70.8053 71.75 72.5312 71.75C74.2572 71.75 75.6562 70.3509 75.6562 68.625V65.5H89.7188V68.625C89.7188 70.3509 91.1178 71.75 92.8438 71.75C94.5697 71.75 95.9688 70.3509 95.9688 68.625V65.5H110.188V68.625C110.188 70.3509 111.587 71.75 113.312 71.75C115.038 71.75 116.438 70.3509 116.438 68.625V65.5H120.5C123.946 65.5 126.75 68.3038 126.75 71.75V89.5625C126.75 91.2884 128.149 92.6875 129.875 92.6875C131.601 92.6875 133 91.2884 133 89.5625V71.75C133 64.8575 127.392 59.25 120.5 59.25Z" fill="#300099"/>
<path d="M114.094 95.1875C103.669 95.1875 95.1875 103.669 95.1875 114.094C95.1875 124.519 103.669 133 114.094 133C124.519 133 133 124.519 133 114.094C133 103.669 124.519 95.1875 114.094 95.1875ZM114.094 126.75C107.115 126.75 101.438 121.073 101.438 114.094C101.438 107.115 107.115 101.438 114.094 101.438C121.072 101.438 126.75 107.115 126.75 114.094C126.75 121.073 121.072 126.75 114.094 126.75Z" fill="#300099"/>
<path d="M118.625 110.969H117.219V107.688C117.219 105.962 115.82 104.562 114.094 104.562C112.368 104.562 110.969 105.962 110.969 107.688V114.094C110.969 115.82 112.368 117.219 114.094 117.219H118.625C120.351 117.219 121.75 115.82 121.75 114.094C121.75 112.368 120.351 110.969 118.625 110.969Z" fill="#300099"/>
<path d="M99.7188 88.9375C101.445 88.9375 102.844 87.5384 102.844 85.8125C102.844 84.0866 101.445 82.6875 99.7188 82.6875C97.9929 82.6875 96.5938 84.0866 96.5938 85.8125C96.5938 87.5384 97.9929 88.9375 99.7188 88.9375Z" fill="#300099"/>
<path d="M86.125 102.531C87.8509 102.531 89.25 101.132 89.25 99.4062C89.25 97.6804 87.8509 96.2812 86.125 96.2812C84.3991 96.2812 83 97.6804 83 99.4062C83 101.132 84.3991 102.531 86.125 102.531Z" fill="#300099"/>
<path d="M72.5312 88.9375C74.2571 88.9375 75.6562 87.5384 75.6562 85.8125C75.6562 84.0866 74.2571 82.6875 72.5312 82.6875C70.8054 82.6875 69.4062 84.0866 69.4062 85.8125C69.4062 87.5384 70.8054 88.9375 72.5312 88.9375Z" fill="#300099"/>
<path d="M72.5312 102.531C74.2571 102.531 75.6562 101.132 75.6562 99.4062C75.6562 97.6804 74.2571 96.2812 72.5312 96.2812C70.8054 96.2812 69.4062 97.6804 69.4062 99.4062C69.4062 101.132 70.8054 102.531 72.5312 102.531Z" fill="#300099"/>
<path d="M72.5312 116.125C74.2571 116.125 75.6562 114.726 75.6562 113C75.6562 111.274 74.2571 109.875 72.5312 109.875C70.8054 109.875 69.4062 111.274 69.4062 113C69.4062 114.726 70.8054 116.125 72.5312 116.125Z" fill="#300099"/>
<path d="M86.125 116.125C87.8509 116.125 89.25 114.726 89.25 113C89.25 111.274 87.8509 109.875 86.125 109.875C84.3991 109.875 83 111.274 83 113C83 114.726 84.3991 116.125 86.125 116.125Z" fill="#300099"/>
<path d="M86.125 88.9375C87.8509 88.9375 89.25 87.5384 89.25 85.8125C89.25 84.0866 87.8509 82.6875 86.125 82.6875C84.3991 82.6875 83 84.0866 83 85.8125C83 87.5384 84.3991 88.9375 86.125 88.9375Z" fill="#300099"/>
</svg>
