<svg width="186" height="186" viewBox="0 0 186 186" fill="none" xmlns="http://www.w3.org/2000/svg">
<circle cx="93" cy="93" r="93" fill="#F5F4F6"/>
<path d="M124.113 63.8874C115.802 55.5767 104.753 51 93 51C81.2472 51 70.1977 55.5767 61.8874 63.8874C53.5767 72.1977 49 83.2472 49 95C49 106.753 53.5767 117.802 61.8874 126.113C70.1979 134.423 81.2472 139 93 139C104.753 139 115.802 134.423 124.113 126.113C132.423 117.802 137 106.753 137 95C137 83.2472 132.423 72.1977 124.113 63.8874ZM54.3426 95C54.3426 73.6842 71.6842 56.3426 93 56.3426C102.699 56.3426 111.574 59.9335 118.368 65.8546L109.186 75.036C104.206 72.6112 98.7021 71.3282 93 71.3282C83.1119 71.3282 73.8153 75.1789 66.8231 82.1711C65.7798 83.2142 65.7798 84.9056 66.8231 85.9487C67.8662 86.9918 69.5576 86.9918 70.6007 85.9487C76.5837 79.9657 84.5388 76.6706 93 76.6706C97.2379 76.6706 101.348 77.4975 105.148 79.0741L99.2657 84.9567C97.2469 84.4194 95.145 84.1408 93 84.1408C86.5341 84.1408 80.4552 86.6589 75.883 91.231C74.8397 92.2741 74.8397 93.9655 75.883 95.0086C76.4046 95.5302 77.0882 95.7911 77.7717 95.7911C78.4553 95.7911 79.139 95.5302 79.6604 95.0086C83.2236 91.4454 87.9608 89.4832 92.9997 89.4832C93.5589 89.4832 94.1144 89.5088 94.6653 89.5567L63.8546 120.368C57.9335 113.574 54.3426 104.699 54.3426 95ZM97.6399 103.708C100.198 106.266 100.198 110.429 97.6399 112.988C95.0814 115.546 90.9186 115.546 88.3602 112.988C85.8017 110.429 85.8017 106.266 88.3602 103.708C89.6393 102.429 91.3198 101.789 93 101.789C94.6804 101.789 96.3607 102.429 97.6399 103.708ZM93 133.657C83.3014 133.657 74.4262 130.066 67.6323 124.145L81.2953 110.482C81.7118 112.785 82.8058 114.989 84.5826 116.765C86.9034 119.086 89.9516 120.247 93.0002 120.247C96.0487 120.247 99.0971 119.086 101.418 116.765C106.059 112.124 106.059 104.572 101.418 99.9301C99.6413 98.1534 97.4378 97.0594 95.1349 96.6428L100.674 91.1038C102.759 92.0326 104.677 93.3462 106.339 95.0086C107.382 96.052 109.074 96.0517 110.117 95.0086C111.16 93.9655 111.16 92.2741 110.117 91.231C108.474 89.5882 106.636 88.2121 104.656 87.1213L110.103 81.674C111.995 82.8921 113.771 84.3199 115.399 85.9486C115.921 86.4702 116.604 86.7311 117.288 86.7311C117.972 86.7311 118.655 86.4702 119.177 85.9486C120.22 84.9054 120.22 83.214 119.177 82.1709C117.554 80.5481 115.806 79.0969 113.956 77.8213L122.145 69.6319C128.066 76.426 131.657 85.3011 131.657 94.9997C131.657 116.316 114.316 133.657 93 133.657Z" fill="#300099"/>
</svg>
