<svg width="127" height="127" viewBox="0 0 127 127" fill="none" xmlns="http://www.w3.org/2000/svg">
<circle cx="63.5" cy="63.5" r="63.5" fill="#F5F4F6"/>
<path d="M61.6656 34.1396H61.2336C59.4778 34.1396 57.9918 35.5504 57.9918 37.3027V40.3496L48.7814 37.6726C48.5226 37.5973 48.2444 37.6282 48.0091 37.7589C47.7734 37.89 47.6005 38.1093 47.5281 38.3685L35.5445 79.5866C35.3906 80.1295 35.7043 80.6948 36.2473 80.8518L77.5489 92.8191C78.0894 92.9761 78.6558 92.6681 78.8172 92.1297L80.0959 87.7398H90.4462C91.0186 87.7358 91.4836 87.2771 91.4946 86.7058V43.7854C91.4946 43.2216 91.0111 42.8178 90.4462 42.8178H66.3835L64.8969 42.3202V37.3027C64.8969 35.5504 63.4214 34.1396 61.6656 34.1396ZM60.0377 37.3027C60.0377 36.6766 60.6057 36.1816 61.2336 36.1816H61.6656C62.2935 36.1816 62.851 36.6766 62.851 37.3027V41.727L60.0377 40.9424V37.3027ZM80.6903 85.6978L89.4486 55.6649V85.6978H80.6903ZM89.4486 44.8597V49.44L73.4305 44.8597H89.4486ZM88.5815 51.3159L77.1493 90.5728L37.8077 79.1758L49.2484 39.9179L62.851 43.8532V50.8194C62.851 51.454 62.3355 51.968 61.7001 51.968C61.0642 51.968 60.5492 51.454 60.5492 50.8194V46.5775C60.5492 46.0137 60.0912 45.5566 59.5262 45.5566C58.9613 45.5566 58.5033 46.0137 58.5033 46.5775V50.8194C58.5033 52.5816 59.9343 54.0099 61.7001 54.0099C63.4654 54.0099 64.8969 52.5816 64.8969 50.8194V44.4464L88.5815 51.3159Z" fill="#300099"/>
</svg>
