<svg width="186" height="186" viewBox="0 0 186 186" fill="none" xmlns="http://www.w3.org/2000/svg">
<circle cx="93" cy="93" r="93" fill="#F5F4F6"/>
<path d="M126.893 51H60.1071C55.0774 51 51 55.0774 51 60.1071V126.893C51 131.923 55.0774 136 60.1071 136H126.893C131.923 136 136 131.923 136 126.893V60.1071C136 55.0774 131.923 51 126.893 51ZM129.928 126.893C129.928 128.57 128.569 129.929 126.893 129.929H60.1071C58.4305 129.929 57.0714 128.57 57.0714 126.893V60.1071C57.0714 58.4305 58.4305 57.0714 60.1071 57.0714H126.893C128.57 57.0714 129.929 58.4305 129.929 60.1071V126.893H129.928Z" fill="#300099"/>
<path d="M78.3216 69.2144H69.2145C67.5378 69.2144 66.1787 70.5735 66.1787 72.2501C66.1787 73.9268 67.5378 75.2859 69.2145 75.2859H78.3216C79.9983 75.2859 81.3574 73.9268 81.3574 72.2501C81.3574 70.5735 79.9983 69.2144 78.3216 69.2144Z" fill="#300099"/>
<path d="M117.786 69.2144H90.4645C88.7878 69.2144 87.4287 70.5735 87.4287 72.2501C87.4287 73.9268 88.7878 75.2859 90.4645 75.2859H117.786C119.463 75.2859 120.822 73.9268 120.822 72.2501C120.822 70.5735 119.462 69.2144 117.786 69.2144Z" fill="#300099"/>
<path d="M78.3216 90.4644H69.2145C67.5378 90.4644 66.1787 91.8235 66.1787 93.5001C66.1787 95.1768 67.5378 96.5357 69.2145 96.5357H78.3216C79.9983 96.5357 81.3574 95.1766 81.3574 93.4999C81.3574 91.8233 79.9983 90.4644 78.3216 90.4644Z" fill="#300099"/>
<path d="M117.786 90.4644H90.4645C88.7878 90.4644 87.4287 91.8235 87.4287 93.5001C87.4287 95.1768 88.7878 96.5357 90.4645 96.5357H117.786C119.463 96.5357 120.822 95.1766 120.822 93.4999C120.822 91.8233 119.462 90.4644 117.786 90.4644Z" fill="#300099"/>
<path d="M78.3216 111.714H69.2145C67.5378 111.714 66.1787 113.073 66.1787 114.75C66.1787 116.427 67.5378 117.786 69.2145 117.786H78.3216C79.9983 117.786 81.3574 116.427 81.3574 114.75C81.3574 113.073 79.9983 111.714 78.3216 111.714Z" fill="#300099"/>
<path d="M117.786 111.714H90.4645C88.7878 111.714 87.4287 113.073 87.4287 114.75C87.4287 116.427 88.7878 117.786 90.4645 117.786H117.786C119.463 117.786 120.822 116.427 120.822 114.75C120.822 113.073 119.462 111.714 117.786 111.714Z" fill="#300099"/>
</svg>
