<svg width="224" height="189" viewBox="0 0 224 189" fill="none" xmlns="http://www.w3.org/2000/svg">
<g clip-path="url(#clip0)">
<path d="M96.1397 28.3573H115.325V52.6181H96.1397V28.3573Z" fill="#2F2E41"/>
<path d="M95.8839 29.1235C97.6019 34.2012 100.236 38.8278 105.605 38.8278C110.973 38.8278 115.023 34.4745 115.325 29.1235C115.712 22.2859 111.097 19.3908 105.605 19.4192C99.1163 19.4526 93.8452 23.0974 95.8839 29.1235Z" fill="#2F2E41"/>
<path d="M100.827 36.6675C100.827 36.6675 102.362 45.8611 101.595 46.1164C100.827 46.3718 110.292 47.3933 110.292 47.3933C110.292 47.3933 107.479 40.4981 108.246 39.2213C109.013 37.9444 100.827 36.6675 100.827 36.6675Z" fill="#FFB8B8"/>
<path opacity="0.1" d="M100.827 36.6675C100.827 36.6675 102.362 45.8611 101.595 46.1164C100.827 46.3718 110.292 47.3933 110.292 47.3933C110.292 47.3933 107.479 40.4981 108.246 39.2213C109.013 37.9444 100.827 36.6675 100.827 36.6675Z" fill="black"/>
<path d="M81.7908 69.7394L77.5641 73.0886C77.5641 73.0886 81.0578 55.4205 81.1556 54.122C81.2533 52.8235 84.5391 43.9292 88.0584 45.2982C91.5776 46.6672 85.5614 56.4114 85.5614 56.4114L81.6306 70.531L81.7908 69.7394Z" fill="#FFB8B8"/>
<path d="M106.199 41.5198C102.102 41.5198 98.7809 38.204 98.7809 34.1138C98.7809 30.0236 102.102 26.7079 106.199 26.7079C110.297 26.7079 113.618 30.0236 113.618 34.1138C113.618 38.204 110.297 41.5198 106.199 41.5198Z" fill="#FFB8B8"/>
<path d="M106.199 44.8396L109.525 43.3074C109.525 43.3074 111.316 46.6273 112.339 46.6273C113.362 46.6273 122.06 48.4149 122.06 50.2026C122.06 51.9902 119.502 64.7591 119.502 64.7591C119.502 64.7591 114.385 77.0172 114.13 77.0172C113.874 77.0172 95.7113 74.7188 95.7113 74.7188L94.688 71.9096L93.1532 55.3101C93.1532 55.3101 99.2926 51.2241 99.2926 49.9472C99.2926 48.6703 99.8042 44.3289 100.827 44.3289C101.851 44.3289 103.641 45.8611 103.641 45.8611L106.199 44.8396Z" fill="#D0CDE1"/>
<path d="M95.4555 56.3316L93.1532 55.3101C93.1532 55.3101 91.3625 58.63 90.8509 58.8853C90.3393 59.1407 89.5718 60.4176 89.5718 60.9284C89.5718 61.4391 88.037 65.5251 86.7579 65.7805C85.4789 66.0359 83.4324 67.0574 83.6882 67.8235C83.8475 68.2343 83.8475 68.6896 83.6882 69.1004L82.665 67.8235L77.293 71.9096C77.293 71.9096 74.4791 80.5924 78.572 80.337C82.665 80.0816 86.2463 78.0386 88.037 77.0171C89.8277 75.9956 89.8277 76.5064 90.8509 74.9741C91.8741 73.4418 96.2229 70.6327 96.2229 70.6327L95.4555 56.3316Z" fill="#D0CDE1"/>
<path d="M114.13 74.7187L116.176 75.7402L115.664 79.5709C115.664 79.5709 144.059 179.934 139.966 180.7C135.873 181.466 124.362 183.509 118.223 185.042C112.083 186.574 103.386 186.829 103.386 185.042C103.386 183.254 100.827 119.665 100.827 119.665C100.827 119.665 100.06 187.085 97.7577 187.085C95.4554 187.085 76.5255 191.171 75.2464 187.085C73.9674 182.999 81.3859 91.0629 90.595 80.337C90.595 80.337 95.1996 74.4633 94.9438 73.6972C94.688 72.9311 95.1996 71.9096 95.1996 71.9096C95.1996 71.9096 94.9438 71.3988 97.7577 72.165C100.572 72.9311 101.851 72.9311 102.618 72.6757C103.386 72.4203 104.665 71.3988 105.432 72.165C106.199 72.9311 108.502 74.208 109.525 73.9526C110.548 73.6972 111.06 72.165 112.083 73.1865C112.687 73.7936 113.377 74.3098 114.13 74.7187Z" fill="#2F2E41"/>
<path d="M138.431 179.934C138.431 179.934 139.966 188.106 138.431 188.362C136.897 188.617 129.222 189.128 128.967 188.617C128.711 188.106 130.757 180.956 131.525 180.445C132.292 179.934 138.431 179.934 138.431 179.934Z" fill="#2F2E41"/>
<path d="M85.4788 180.956C85.4788 180.956 83.9439 188.106 85.4788 188.362C87.0136 188.617 94.6879 189.128 94.9437 188.617C95.1995 188.106 93.1531 181.977 92.3856 181.466C91.6182 180.956 85.4788 180.956 85.4788 180.956Z" fill="#2F2E41"/>
<path d="M136.769 70.7604C136.769 70.7604 126.281 73.5696 123.722 74.0803C121.164 74.5911 118.35 77.1449 118.095 78.1664C117.839 79.1879 115.537 83.7847 113.746 82.7632C111.955 81.7417 113.746 73.0588 115.025 72.8035C116.304 72.5481 131.908 68.2067 131.908 68.2067L136.769 70.7604Z" fill="#FFB8B8"/>
<path d="M119.246 49.6918H122.06L138.431 61.9499C138.431 61.9499 142.269 62.9714 142.013 63.7375C141.757 64.5036 145.85 69.1004 143.292 70.1219C140.734 71.1434 138.687 71.3988 137.664 72.165C136.641 72.9311 130.246 68.5897 130.246 68.5897L131.269 67.8235C131.269 67.8235 119.502 63.7375 118.478 64.2483C117.455 64.759 119.246 49.6918 119.246 49.6918Z" fill="#D0CDE1"/>
<path d="M111.699 45.7334L105.56 49.5641L106.072 63.3545L104.281 60.0345L103.258 63.3545V49.5641H98.9088L99.1646 47.2657L104.281 48.0318L110.932 44.4565L111.699 45.7334Z" fill="#F9A826"/>
<path d="M110.152 24.0159C110.152 24.0159 110.236 23.5472 113.535 24.7821C116.833 26.0169 118.81 35.1293 117.161 40.4802C116.497 42.6366 117.037 44.1914 117.92 45.2792C121.231 49.3614 119.928 55.4928 115.104 57.592C114.968 57.6513 114.829 57.7099 114.687 57.7678L112.626 59.0026C112.626 59.0026 115.254 55.5505 113.939 51.1347C112.797 47.3723 112.656 43.3778 113.529 39.5444C113.68 38.8978 113.852 38.2312 114.046 37.5509C115.696 31.7884 114.894 32.4539 109.121 26.6914C109.121 26.6914 105.823 29.161 102.937 30.3958C100.051 31.6307 97.5767 32.8655 99.6382 36.9816C101.7 41.0976 106.647 44.8021 103.349 50.153C100.051 55.5039 99.6382 53.4459 100.051 55.5039L100.463 57.562L97.989 55.0923L99.6382 58.3852C99.6382 58.3852 94.2783 58.3852 92.629 54.2691L91.8044 55.0923C91.8044 55.0923 88.506 49.3298 94.6906 43.9789C94.6906 43.9789 96.7521 42.7441 93.8659 38.628C90.9798 34.5119 93.1964 25.6624 96.9071 24.0159C100.618 22.3695 110.152 24.0159 110.152 24.0159Z" fill="#2F2E41"/>
<path d="M105.605 21.4621C103.486 21.4621 101.768 19.7471 101.768 17.6314C101.768 15.5158 103.486 13.8008 105.605 13.8008C107.724 13.8008 109.442 15.5158 109.442 17.6314C109.442 19.7471 107.724 21.4621 105.605 21.4621Z" fill="#2F2E41"/>
<path d="M110.209 15.5885C110.209 14.6389 109.856 13.7231 109.218 13.0189C108.58 12.3147 107.702 11.8722 106.756 11.7772C106.882 11.7646 107.01 11.7578 107.14 11.7578C108.157 11.7578 109.133 12.1614 109.853 12.8798C110.572 13.5982 110.977 14.5725 110.977 15.5885C110.977 16.6044 110.572 17.5788 109.853 18.2972C109.133 19.0155 108.157 19.4191 107.14 19.4191C107.01 19.4191 106.882 19.4123 106.756 19.3998C107.702 19.3048 108.58 18.8623 109.218 18.158C109.856 17.4538 110.209 16.5381 110.209 15.5885Z" fill="#2F2E41"/>
<path d="M98.6979 34.231C98.4153 34.231 98.1863 33.7737 98.1863 33.2095C98.1863 32.6453 98.4153 32.188 98.6979 32.188C98.9804 32.188 99.2095 32.6453 99.2095 33.2095C99.2095 33.7737 98.9804 34.231 98.6979 34.231Z" fill="#FFB8B8"/>
<path d="M187.869 172.216C186.154 178.547 180.277 182.468 180.277 182.468C180.277 182.468 177.183 176.124 178.898 169.793C180.614 163.462 186.49 159.542 186.49 159.542C186.49 159.542 189.585 165.885 187.869 172.216Z" fill="#3F3D56"/>
<path d="M185.348 170.855C180.641 175.43 180.066 182.463 180.066 182.463C180.066 182.463 187.123 182.078 191.831 177.503C196.538 172.929 197.113 165.896 197.113 165.896C197.113 165.896 190.056 166.281 185.348 170.855Z" fill="#F9A826"/>
<path d="M26.737 188.489H192.502V189H26.737V188.489Z" fill="#2F2E41"/>
<path d="M177.954 188.745H184.605V182.105H177.954V188.745ZM184.094 188.234H178.466V182.616H184.094V188.234Z" fill="#3F3D56"/>
<path d="M167.593 123.368H224V88.6368H159.792V112.982" fill="#F2F2F2"/>
<path d="M164.523 120.814H221.186V85.5723H156.466V110.173H156.978V86.083H220.674V120.304H164.523V120.814Z" fill="black"/>
<path d="M141.411 120.942H156.722V120.431H143.382L156.718 113.021L156.47 112.575L141.411 120.942Z" fill="black"/>
<path d="M163.885 97.8303H213.768V98.3411H163.885V97.8303Z" fill="black"/>
<path d="M163.885 102.938H213.768V103.449H163.885V102.938Z" fill="black"/>
<path d="M163.885 108.045H213.768V108.556H163.885V108.045Z" fill="black"/>
<path d="M142.4 122.692C141.241 122.692 140.3 121.753 140.3 120.595C140.3 119.437 141.241 118.499 142.4 118.499C143.56 118.499 144.5 119.437 144.5 120.595C144.5 121.753 143.56 122.692 142.4 122.692Z" fill="#F9A826"/>
<path d="M183.565 82.7203L184.615 82.3769C188.365 81.1149 190.828 80.309 191.705 78.3345C191.879 77.9618 191.976 77.5581 191.99 77.1473C192.005 76.7365 191.937 76.327 191.79 75.9431C191.643 75.5591 191.42 75.2084 191.135 74.9118C190.85 74.6153 190.508 74.3788 190.13 74.2164C189.685 74.0221 189.203 73.9268 188.717 73.9372C188.231 73.9476 187.753 74.0634 187.317 74.2766C187.182 73.8105 186.948 73.3792 186.63 73.0127C186.311 72.6462 185.917 72.3533 185.474 72.1542C185.099 71.9832 184.694 71.889 184.283 71.877C183.871 71.8651 183.462 71.9357 183.078 72.0847C182.694 72.2336 182.344 72.4579 182.049 72.7443C181.753 73.0307 181.519 73.3733 181.358 73.7519C180.481 75.7263 181.536 78.0904 183.115 81.7124L183.565 82.7203Z" fill="#FF6584"/>
<path d="M152.045 30.6071H175.908V46.9969H152.045V30.6071Z" fill="#F2F2F2"/>
<path d="M150.071 45.5371H174.445V28.6365H150.071V45.5371ZM173.934 45.0264H150.583V29.1472H173.934V45.0264Z" fill="black"/>
<path d="M162.355 37.3967L174.335 29.1018L174.044 28.6819L162.353 36.7769L150.471 28.6809L150.182 29.1028L162.355 37.3967Z" fill="black"/>
<path d="M162.354 39.1832C161.194 39.1832 160.254 38.2447 160.254 37.0869C160.254 35.9291 161.194 34.9905 162.354 34.9905C163.513 34.9905 164.453 35.9291 164.453 37.0869C164.453 38.2447 163.513 39.1832 162.354 39.1832Z" fill="#F9A826"/>
<path d="M165.726 24.9313L166.441 24.6975C168.993 23.8385 170.67 23.2899 171.267 21.946C171.385 21.6922 171.451 21.4174 171.461 21.1378C171.471 20.8582 171.424 20.5795 171.324 20.3181C171.224 20.0567 171.073 19.8181 170.879 19.6162C170.685 19.4143 170.452 19.2533 170.194 19.1428C169.891 19.0105 169.563 18.9457 169.233 18.9528C168.902 18.9598 168.577 19.0387 168.28 19.1838C168.188 18.8665 168.028 18.573 167.812 18.3235C167.595 18.074 167.327 17.8746 167.025 17.7391C166.77 17.6227 166.495 17.5586 166.214 17.5504C165.934 17.5423 165.655 17.5904 165.394 17.6918C165.133 17.7932 164.895 17.9459 164.694 18.1408C164.493 18.3357 164.333 18.5689 164.224 18.8266C163.627 20.1706 164.344 21.7797 165.419 24.2452L165.726 24.9313Z" fill="#FF6584"/>
<path d="M28.4885 114.371H52.3514V130.761H28.4885V114.371Z" fill="#F2F2F2"/>
<path d="M29.3285 116.218H34.4447V117.75H29.3285V116.218Z" fill="#F9A826"/>
<path d="M29.3286 120.559H41.0958V121.58H29.3286V120.559Z" fill="white"/>
<path d="M29.3285 122.602H46.4678V123.623H29.3285V122.602Z" fill="white"/>
<path d="M29.3285 124.645H46.4678V125.667H29.3285V124.645Z" fill="white"/>
<path d="M35.623 111.392L35.8587 110.905C36.6873 109.156 37.2399 108.014 36.8403 107.033C36.7675 106.846 36.6578 106.674 36.5175 106.53C36.3772 106.385 36.2093 106.27 36.0236 106.191C35.838 106.112 35.6384 106.071 35.4366 106.071C35.2349 106.07 35.0351 106.11 34.8491 106.188C34.6291 106.279 34.4315 106.417 34.27 106.591C34.1086 106.766 33.9871 106.974 33.9141 107.2C33.7036 107.089 33.4714 107.025 33.2337 107.012C32.9959 107 32.7583 107.039 32.5373 107.128C32.3496 107.201 32.1786 107.312 32.0345 107.453C31.8903 107.594 31.776 107.762 31.6982 107.948C31.6204 108.134 31.5807 108.333 31.5815 108.535C31.5824 108.736 31.6236 108.935 31.703 109.12C32.1025 110.101 33.2967 110.533 35.1137 111.208L35.623 111.392Z" fill="#FF6584"/>
<path d="M57.8526 53.3947H1.44521V18.6635H65.6536V43.0086" fill="#F2F2F2"/>
<path d="M4.25919 50.841H60.9224V50.3303H4.77081V16.1098H68.4675V40.1995H68.9791V15.599H4.25919V50.841Z" fill="black"/>
<path d="M68.7233 50.9686H84.0343L68.9755 42.6012L68.7269 43.0473L82.063 50.4579H68.7233V50.9686Z" fill="black"/>
<path d="M11.6776 27.8571H61.5605V28.3678H11.6776V27.8571Z" fill="black"/>
<path d="M11.6776 32.9646H61.5605V33.4754H11.6776V32.9646Z" fill="black"/>
<path d="M11.6776 38.0721H61.5605V38.5829H11.6776V38.0721Z" fill="black"/>
<path d="M83.0524 52.7182C81.8927 52.7182 80.9525 51.7796 80.9525 50.6218C80.9525 49.464 81.8927 48.5254 83.0524 48.5254C84.2122 48.5254 85.1523 49.464 85.1523 50.6218C85.1523 51.7796 84.2122 52.7182 83.0524 52.7182Z" fill="#F9A826"/>
<path d="M8.06747 8.7492L8.22802 7.84029C8.77411 4.58182 9.14996 2.45024 8.03722 1.02565C7.83027 0.750896 7.5702 0.520386 7.27242 0.347762C6.97463 0.175138 6.64519 0.0639107 6.30358 0.020663C5.96196 -0.0225847 5.61514 0.0030266 5.28362 0.0959812C4.9521 0.188936 4.64262 0.347344 4.37351 0.561829C4.0544 0.812989 3.79386 1.13047 3.60999 1.49225C3.42612 1.85402 3.32332 2.2514 3.30873 2.65682C2.91132 2.57212 2.50021 2.57478 2.10394 2.66463C1.70767 2.75448 1.33575 2.92935 1.01397 3.17711C0.740009 3.38538 0.510676 3.64639 0.339566 3.94472C0.168456 4.24304 0.0590258 4.5726 0.0177746 4.91389C-0.0234756 5.25518 0.004282 5.60127 0.0994015 5.93166C0.194521 6.26205 0.355074 6.57003 0.571549 6.83737C1.68431 8.26198 3.84672 8.41761 7.14534 8.68311L8.06747 8.7492Z" fill="#FF6584"/>
</g>
<defs>
<clipPath id="clip0">
<rect width="224" height="189" fill="white" transform="matrix(-1 0 0 1 224 0)"/>
</clipPath>
</defs>
</svg>
