<svg width="186" height="186" viewBox="0 0 186 186" fill="none" xmlns="http://www.w3.org/2000/svg">
<circle cx="93" cy="93" r="93" fill="#F5F4F6"/>
<path d="M124.113 61.8873C115.802 53.5768 104.753 49 93 49C81.2467 49 70.1977 53.5768 61.8873 61.8873C53.5768 70.1977 49 81.2467 49 93C49 104.753 53.5768 115.802 61.8873 124.113C70.1977 132.423 81.2467 137 93 137C104.753 137 115.802 132.423 124.113 124.113C132.423 115.802 137 104.753 137 93C137 81.2467 132.423 70.1977 124.113 61.8873ZM71.0584 125.035C72.8987 114.439 82.0806 106.624 93 106.624C103.92 106.624 113.101 114.439 114.942 125.035C108.694 129.327 101.136 131.844 93 131.844C84.8641 131.844 77.3057 129.327 71.0584 125.035ZM79.0096 87.4772C79.0096 79.7623 85.2858 73.4868 93 73.4868C100.714 73.4868 106.99 79.7629 106.99 87.4772C106.99 95.1914 100.714 101.468 93 101.468C85.2858 101.468 79.0096 95.1914 79.0096 87.4772ZM119.408 121.459C118.02 116.526 115.264 112.051 111.401 108.555C109.031 106.41 106.333 104.717 103.433 103.524C108.675 100.105 112.147 94.189 112.147 87.4772C112.147 76.9196 103.558 68.3306 93 68.3306C82.4424 68.3306 73.8534 76.9196 73.8534 87.4772C73.8534 94.189 77.3258 100.105 82.5673 103.524C79.6676 104.717 76.9693 106.409 74.5993 108.554C70.7368 112.05 67.9801 116.525 66.5923 121.458C58.9486 114.359 54.1562 104.23 54.1562 93C54.1562 71.5814 71.5814 54.1562 93 54.1562C114.419 54.1562 131.844 71.5814 131.844 93C131.844 104.23 127.051 114.36 119.408 121.459Z" fill="#300099"/>
</svg>
