<svg width="88" height="15" viewBox="0 0 88 15" fill="none" xmlns="http://www.w3.org/2000/svg">
<path d="M6.05157 2.99164C6.23498 2.62006 6.76486 2.62006 6.94827 2.99164L8.05745 5.23871C8.13022 5.38613 8.27081 5.48836 8.43349 5.51214L10.9147 5.8748C11.3247 5.93472 11.488 6.43865 11.1912 6.72773L9.39665 8.47567C9.27871 8.59054 9.22488 8.7561 9.25271 8.91837L9.67613 11.3871C9.74619 11.7956 9.31742 12.1071 8.9506 11.9142L6.73265 10.7478C6.58695 10.6712 6.41289 10.6712 6.26719 10.7478L4.04923 11.9142C3.68242 12.1071 3.25365 11.7956 3.32371 11.3871L3.74713 8.91837C3.77496 8.7561 3.72113 8.59054 3.60319 8.47567L1.80859 6.72773C1.51179 6.43864 1.67519 5.93472 2.08514 5.8748L4.56635 5.51214C4.72903 5.48836 4.86962 5.38613 4.94239 5.23871L6.05157 2.99164Z" fill="#2B33AE"/>
<path d="M18.5586 2.91387C18.7466 2.56012 19.2535 2.56012 19.4416 2.91387L20.6823 5.24786C20.7578 5.38994 20.8971 5.48699 21.0565 5.50863L23.7674 5.87656C24.1889 5.93376 24.351 6.45757 24.0356 6.74285L22.1237 8.47196C21.9951 8.58831 21.9359 8.76303 21.9674 8.9336L22.4249 11.4105C22.4995 11.8142 22.0827 12.1307 21.7139 11.9506L19.2195 10.7326C19.081 10.6649 18.9191 10.6649 18.7807 10.7326L16.2863 11.9506C15.9174 12.1307 15.5007 11.8142 15.5752 11.4105L16.0327 8.9336C16.0642 8.76303 16.0051 8.58831 15.8764 8.47196L13.9646 6.74285C13.6492 6.45757 13.8113 5.93376 14.2327 5.87656L16.9436 5.50863C17.1031 5.48699 17.2424 5.38994 17.3179 5.24786L18.5586 2.91387Z" fill="#2B33AE"/>
<path d="M31.0516 2.99164C31.235 2.62006 31.7649 2.62006 31.9483 2.99164L33.0574 5.23871C33.1302 5.38613 33.2708 5.48836 33.4335 5.51214L35.9147 5.8748C36.3247 5.93472 36.488 6.43865 36.1912 6.72773L34.3966 8.47567C34.2787 8.59054 34.2249 8.7561 34.2527 8.91837L34.6761 11.3871C34.7462 11.7956 34.3174 12.1071 33.9506 11.9142L31.7326 10.7478C31.587 10.6712 31.4129 10.6712 31.2672 10.7478L29.0492 11.9142C28.6824 12.1071 28.2536 11.7956 28.3237 11.3871L28.7471 8.91837C28.775 8.7561 28.7211 8.59054 28.6032 8.47567L26.8086 6.72773C26.5118 6.43864 26.6752 5.93472 27.0851 5.8748L29.5664 5.51214C29.729 5.48836 29.8696 5.38613 29.9424 5.23871L31.0516 2.99164Z" fill="#2B33AE"/>
<path d="M43.5586 2.91387C43.7466 2.56012 44.2535 2.56012 44.4416 2.91387L45.6823 5.24786C45.7578 5.38994 45.8971 5.48699 46.0565 5.50863L48.7674 5.87656C49.1889 5.93376 49.351 6.45757 49.0356 6.74285L47.1237 8.47196C46.9951 8.58831 46.9359 8.76303 46.9674 8.9336L47.4249 11.4105C47.4995 11.8142 47.0827 12.1307 46.7139 11.9506L44.2195 10.7326C44.081 10.6649 43.9191 10.6649 43.7807 10.7326L41.2863 11.9506C40.9174 12.1307 40.5007 11.8142 40.5752 11.4105L41.0327 8.9336C41.0642 8.76303 41.0051 8.58831 40.8764 8.47196L38.9646 6.74285C38.6492 6.45757 38.8113 5.93376 39.2327 5.87656L41.9436 5.50863C42.1031 5.48699 42.2424 5.38994 42.3179 5.24786L43.5586 2.91387Z" fill="#2B33AE"/>
<path d="M56.0516 2.99164C56.235 2.62006 56.7649 2.62006 56.9483 2.99164L58.0574 5.23871C58.1302 5.38613 58.2708 5.48836 58.4335 5.51214L60.9147 5.8748C61.3247 5.93472 61.488 6.43865 61.1912 6.72773L59.3966 8.47567C59.2787 8.59054 59.2249 8.7561 59.2527 8.91837L59.6761 11.3871C59.7462 11.7956 59.3174 12.1071 58.9506 11.9142L56.7326 10.7478C56.587 10.6712 56.4129 10.6712 56.2672 10.7478L54.0492 11.9142C53.6824 12.1071 53.2536 11.7956 53.3237 11.3871L53.7471 8.91837C53.775 8.7561 53.7211 8.59054 53.6032 8.47567L51.8086 6.72773C51.5118 6.43864 51.6752 5.93472 52.0851 5.8748L54.5664 5.51214C54.729 5.48836 54.8696 5.38613 54.9424 5.23871L56.0516 2.99164Z" fill="white" stroke="#2B33AE" stroke-linecap="round" stroke-linejoin="round"/>
<path d="M70.6989 10.2102H74.8068V12H75.8125V10.2102H77.0057V9.27273H75.8125V3.27273H74.5341L70.6989 9.34091V10.2102ZM74.8068 9.27273H71.8409V9.20455L74.7386 4.61932H74.8068V9.27273ZM78.9425 12.0682C79.3643 12.0682 79.7095 11.723 79.7095 11.3011C79.7095 10.8793 79.3643 10.5341 78.9425 10.5341C78.5206 10.5341 78.1754 10.8793 78.1754 11.3011C78.1754 11.723 78.5206 12.0682 78.9425 12.0682ZM83.8633 12.1193C85.7894 12.1193 86.8974 10.4872 86.8974 7.63636C86.8974 4.80682 85.7724 3.15341 83.8633 3.15341C81.9542 3.15341 80.8292 4.80682 80.8292 7.63636C80.8292 10.4872 81.9371 12.1193 83.8633 12.1193ZM83.8633 11.1818C82.5934 11.1818 81.8519 9.90767 81.8519 7.63636C81.8519 5.36932 82.6019 4.07386 83.8633 4.07386C85.1246 4.07386 85.8746 5.36932 85.8746 7.63636C85.8746 9.90767 85.1332 11.1818 83.8633 11.1818Z" fill="black"/>
</svg>
