<svg width="10" height="9" viewBox="0 0 10 9" fill="none" xmlns="http://www.w3.org/2000/svg">
<path d="M4.43883 0.754465C4.62645 0.39898 5.13558 0.39898 5.32321 0.754464L6.27544 2.55862C6.35071 2.70124 6.49014 2.79879 6.64991 2.82063L8.72221 3.10391C9.14254 3.16137 9.30482 3.68325 8.99119 3.96894L7.53657 5.29396C7.40897 5.41019 7.35034 5.58402 7.38147 5.75379L7.73046 7.65674C7.80457 8.06086 7.38668 8.37693 7.01799 8.1956L5.10169 7.25312C4.96253 7.18468 4.7995 7.18468 4.66035 7.25312L2.74405 8.1956C2.37536 8.37693 1.95747 8.06086 2.03158 7.65674L2.38056 5.75379C2.4117 5.58402 2.35307 5.41019 2.22547 5.29396L0.770847 3.96894C0.457214 3.68324 0.619496 3.16137 1.03983 3.10391L3.11213 2.82063C3.2719 2.79879 3.41132 2.70124 3.4866 2.55862L4.43883 0.754465Z" fill="#2B33AE"/>
</svg>
