<svg width="154" height="173" viewBox="0 0 154 173" fill="none" xmlns="http://www.w3.org/2000/svg">
<g clip-path="url(#clip0)">
<g opacity="0.2">
<path opacity="0.2" d="M114.393 157.898C114.254 158.155 114.094 158.4 113.915 158.63C112.328 157.521 110.714 156.431 109.073 155.362L109.179 155.153C109.559 154.423 110.127 153.807 110.826 153.369C111.732 152.815 112.753 152.693 113.593 153.144C114.433 153.594 114.902 154.495 114.952 155.547C114.978 156.366 114.785 157.177 114.393 157.898Z" fill="#3F3D56"/>
<path opacity="0.2" d="M116.603 153.774C117.601 151.9 117.244 149.766 115.805 149.008C114.365 148.25 112.39 149.155 111.391 151.029C110.393 152.903 110.751 155.037 112.19 155.795C113.629 156.553 115.605 155.649 116.603 153.774Z" fill="#3F3D56"/>
<path opacity="0.2" d="M118.812 149.627C119.81 147.753 119.453 145.619 118.014 144.861C116.575 144.103 114.599 145.008 113.601 146.882C112.602 148.756 112.96 150.89 114.399 151.648C115.838 152.406 117.814 151.501 118.812 149.627Z" fill="#3F3D56"/>
<path opacity="0.2" d="M121.021 145.48C122.019 143.606 121.662 141.472 120.223 140.714C118.784 139.956 116.808 140.86 115.81 142.735C114.812 144.609 115.169 146.743 116.608 147.501C118.047 148.259 120.023 147.354 121.021 145.48Z" fill="#3F3D56"/>
<path opacity="0.2" d="M123.228 141.335C124.226 139.461 123.869 137.327 122.43 136.569C120.991 135.811 119.015 136.715 118.017 138.59C117.019 140.464 117.376 142.598 118.815 143.356C120.254 144.114 122.23 143.209 123.228 141.335Z" fill="#3F3D56"/>
<path opacity="0.2" d="M125.974 106.433C125.853 105.795 125.778 105.149 125.748 104.5L133.203 106.996L125.768 103.149C125.876 101.238 126.375 99.3681 127.235 97.6551C128.095 95.9421 129.297 94.4218 130.769 93.1871L137.973 103.548L132.379 92.0249C134.023 91.0017 135.861 90.3261 137.779 90.0402C139.697 89.7543 141.653 89.8643 143.527 90.3633C145.4 90.8622 147.15 91.7396 148.668 92.9405C150.185 94.1415 151.438 95.6404 152.347 97.3438C153.257 99.0473 153.804 100.919 153.955 102.842C154.105 104.765 153.856 106.698 153.223 108.521C152.589 110.344 151.585 112.017 150.273 113.438C148.961 114.858 147.369 115.994 145.596 116.776C145.78 117.77 145.856 118.781 145.822 119.791L134.499 119.701L145.659 121.53C145.282 123.835 144.333 126.01 142.898 127.858C141.463 129.707 139.587 131.17 137.44 132.116C137.913 134.71 137.643 137.384 136.66 139.832C135.677 142.28 134.021 144.404 131.881 145.96C129.742 147.517 127.205 148.443 124.562 148.633C121.918 148.823 119.274 148.27 116.931 147.036C114.589 145.803 112.643 143.938 111.315 141.656C109.988 139.374 109.333 136.767 109.426 134.133C109.518 131.498 110.354 128.943 111.838 126.758C113.322 124.574 115.394 122.849 117.817 121.78C117.252 118.681 117.752 115.482 119.234 112.699C120.717 109.915 123.097 107.708 125.992 106.431L125.974 106.433Z" fill="#6C63FF"/>
<path opacity="0.1" d="M144.18 125.85C142.701 128.636 140.32 130.845 137.422 132.118C137.895 134.712 137.625 137.386 136.642 139.834C135.659 142.282 134.003 144.406 131.863 145.962C129.724 147.519 127.187 148.445 124.544 148.635C121.9 148.826 119.256 148.272 116.913 147.039C114.571 145.805 112.625 143.94 111.297 141.658C109.97 139.377 109.315 136.769 109.408 134.135C109.5 131.5 110.336 128.945 111.82 126.76C113.303 124.576 115.375 122.851 117.799 121.782C117.251 118.789 144.923 124.456 144.18 125.85Z" fill="black"/>
</g>
<g opacity="0.2">
<path opacity="0.2" d="M49.1443 140.03C49.2785 140.574 49.4596 141.106 49.6855 141.618C53.1747 140.289 56.7038 139.013 60.273 137.789C60.2413 137.645 60.2096 137.497 60.1734 137.339C59.811 135.799 59.0426 134.382 57.9472 133.235C56.5227 131.776 54.6747 131.064 52.8969 131.496C51.1191 131.929 49.8101 133.404 49.219 135.346C48.7742 136.873 48.7484 138.49 49.1443 140.03Z" fill="#3F3D56"/>
<path opacity="0.2" d="M54.2747 137.081C57.3209 136.341 59.0013 132.528 58.028 128.563C57.0547 124.598 53.7962 121.983 50.75 122.723C47.7038 123.463 46.0234 127.276 46.9967 131.241C47.97 135.206 51.2285 137.821 54.2747 137.081Z" fill="#3F3D56"/>
<path opacity="0.2" d="M52.1182 128.305C55.1644 127.565 56.8448 123.752 55.8715 119.787C54.8981 115.822 51.6397 113.208 48.5935 113.947C45.5473 114.687 43.8669 118.501 44.8402 122.465C45.8135 126.43 49.072 129.045 52.1182 128.305Z" fill="#3F3D56"/>
<path opacity="0.2" d="M49.9649 119.53C53.0111 118.79 54.6914 114.976 53.7181 111.012C52.7448 107.047 49.4864 104.432 46.4402 105.172C43.394 105.911 41.7136 109.725 42.6869 113.69C43.6602 117.655 46.9187 120.269 49.9649 119.53Z" fill="#3F3D56"/>
<path opacity="0.2" d="M47.8113 110.756C50.8575 110.017 52.5379 106.203 51.5646 102.238C50.5913 98.2732 47.3328 95.6587 44.2866 96.3983C41.2404 97.138 39.56 100.952 40.5333 104.917C41.5067 108.881 44.7651 111.496 47.8113 110.756Z" fill="#3F3D56"/>
<path opacity="0.2" d="M51.9479 38.5257C52.4683 37.3896 52.9079 36.2185 53.2637 35.0212L38.1921 36.1721L53.9001 32.476C54.6056 28.8567 54.5612 25.1323 53.7696 21.5307C52.9779 17.929 51.4556 14.5259 49.2959 11.5295L30.9246 27.4894L46.8365 8.6083C44.2531 5.93034 41.1432 3.80983 37.7003 2.37874C34.2573 0.947655 30.5551 0.236622 26.8239 0.289896C23.0928 0.343171 19.4126 1.15961 16.0124 2.68841C12.6122 4.2172 9.56478 6.42563 7.05979 9.17624C4.55481 11.9269 2.64586 15.1608 1.45178 18.6768C0.257704 22.1927 -0.195958 25.9155 0.119024 29.6134C0.434006 33.3112 1.51089 36.9051 3.28267 40.1712C5.05444 43.4373 7.48318 46.3057 10.4177 48.5981C9.6064 50.3675 8.99057 52.2192 8.58105 54.1207L29.7764 59.274L8.08054 57.4452C7.68621 61.9292 8.42285 66.4402 10.2237 70.5697C12.0246 74.6991 14.8328 78.3166 18.394 81.0944C16.2801 85.7136 15.5158 90.8311 16.1885 95.8619C16.8612 100.893 18.9437 105.634 22.198 109.543C25.4522 113.452 29.7469 116.372 34.5909 117.968C39.435 119.564 44.6329 119.773 49.5904 118.569C54.5479 117.366 59.065 114.8 62.6251 111.164C66.1852 107.528 68.6448 102.969 69.7225 98.0085C70.8002 93.0478 70.4527 87.8857 68.7196 83.1123C66.9864 78.3389 63.9377 74.1468 59.9219 71.0153C62.4484 65.4949 63.0358 59.2902 61.5896 53.3978C60.1434 47.5055 56.7477 42.2677 51.9479 38.5257Z" fill="#6C63FF"/>
<path opacity="0.1" d="M8.75548 66.2157C10.1929 72.1091 13.5892 77.3471 18.3941 81.0809C16.2802 85.7001 15.5159 90.8176 16.1886 95.8484C16.8613 100.879 18.9438 105.62 22.198 109.529C25.4523 113.439 29.7469 116.358 34.591 117.955C39.435 119.551 44.6329 119.759 49.5905 118.556C54.548 117.353 59.065 114.786 62.6252 111.15C66.1853 107.515 68.6448 102.956 69.7226 97.995C70.8003 93.0344 70.4527 87.8722 68.7196 83.0988C66.9865 78.3254 63.9378 74.1333 59.922 71.0018C62.3656 65.6774 8.03077 63.2674 8.75548 66.2157Z" fill="black"/>
</g>
<path d="M126.824 37.9086H126.318V10.8223C126.318 4.84919 121.375 0.0112305 115.276 0.0112305H53.4199C47.321 0.0112305 42.3772 4.8537 42.3772 10.8223V22.0501H42.3387H42.23C42.0592 22.0489 41.8949 22.1151 41.773 22.2341C41.6512 22.3532 41.5818 22.5154 41.58 22.6852V28.0908C41.5818 28.2606 41.6512 28.4229 41.773 28.5419C41.8949 28.661 42.0592 28.7271 42.23 28.7259H42.35H42.3885V34.2464H42.1892C42.1047 34.2458 42.021 34.2617 41.9427 34.2933C41.8645 34.3249 41.7932 34.3715 41.7331 34.4305C41.6729 34.4895 41.6251 34.5597 41.5922 34.6371C41.5593 34.7144 41.5421 34.7975 41.5415 34.8815V45.2174C41.5427 45.3872 41.6115 45.5497 41.7329 45.6692C41.8544 45.7886 42.0184 45.8554 42.1892 45.8548H42.3885V49.9089H42.2164C42.1317 49.908 42.0477 49.9238 41.9692 49.9552C41.8907 49.9867 41.8192 50.0333 41.7588 50.0923C41.6984 50.1513 41.6503 50.2216 41.6173 50.2991C41.5843 50.3766 41.567 50.4599 41.5664 50.5441V60.9813C41.567 61.0655 41.5843 61.1487 41.6173 61.2263C41.6503 61.3038 41.6984 61.3741 41.7588 61.4331C41.8192 61.4921 41.8907 61.5387 41.9692 61.5701C42.0477 61.6016 42.1317 61.6173 42.2164 61.6164H42.3885V156.299C42.3885 162.272 47.3324 167.11 53.4312 167.11H115.274C121.372 167.11 126.316 162.268 126.316 156.299V58.1659H126.824C126.994 58.1671 127.159 58.1009 127.28 57.9819C127.402 57.8628 127.472 57.7006 127.473 57.5308V38.5438C127.472 38.3739 127.402 38.2117 127.28 38.0926C127.159 37.9736 126.994 37.9074 126.824 37.9086Z" fill="url(#paint0_linear)"/>
<g opacity="0.9">
<path opacity="0.9" d="M125.841 38.573H124.439C124.152 38.573 123.92 38.8039 123.92 39.0888V58.0622C123.92 58.3471 124.152 58.578 124.439 58.578H125.841C126.127 58.578 126.359 58.3471 126.359 58.0622V39.0888C126.359 38.8039 126.127 38.573 125.841 38.573Z" fill="#E5E7EB"/>
<path opacity="0.9" d="M43.6657 22.9016H43.3328C43.0464 22.9016 42.8142 23.1325 42.8142 23.4174V28.9716C42.8142 29.2564 43.0464 29.4874 43.3328 29.4874H43.6657C43.9522 29.4874 44.1844 29.2564 44.1844 28.9716V23.4174C44.1844 23.1325 43.9522 22.9016 43.6657 22.9016Z" fill="#E5E7EB"/>
<path opacity="0.9" d="M43.7903 34.9583H43.283C42.9966 34.9583 42.7644 35.1892 42.7644 35.474V45.9045C42.7644 46.1893 42.9966 46.4203 43.283 46.4203H43.7903C44.0767 46.4203 44.3089 46.1893 44.3089 45.9045V35.474C44.3089 35.1892 44.0767 34.9583 43.7903 34.9583Z" fill="#E5E7EB"/>
<path opacity="0.9" d="M43.7405 50.4314H43.3079C43.0215 50.4314 42.7893 50.6623 42.7893 50.9472V61.4767C42.7893 61.7616 43.0215 61.9925 43.3079 61.9925H43.7405C44.0269 61.9925 44.2591 61.7616 44.2591 61.4767V50.9472C44.2591 50.6623 44.0269 50.4314 43.7405 50.4314Z" fill="#E5E7EB"/>
<path opacity="0.9" d="M116.406 1.13745H52.419C47.5422 1.13745 43.5889 5.06918 43.5889 9.91921V157.385C43.5889 162.235 47.5422 166.167 52.419 166.167H116.406C121.283 166.167 125.236 162.235 125.236 157.385V9.91921C125.236 5.06918 121.283 1.13745 116.406 1.13745Z" fill="white"/>
<path opacity="0.9" d="M87.0644 6.06567H77.4145C76.9305 6.06567 76.5381 6.45592 76.5381 6.93732V7.49589C76.5381 7.97729 76.9305 8.36754 77.4145 8.36754H87.0644C87.5485 8.36754 87.9409 7.97729 87.9409 7.49589V6.93732C87.9409 6.45592 87.5485 6.06567 87.0644 6.06567Z" fill="#E5E7EB"/>
<path opacity="0.9" d="M90.9754 8.52284C91.7008 8.52284 92.2889 7.93797 92.2889 7.2165C92.2889 6.49502 91.7008 5.91016 90.9754 5.91016C90.2499 5.91016 89.6619 6.49502 89.6619 7.2165C89.6619 7.93797 90.2499 8.52284 90.9754 8.52284Z" fill="#E5E7EB"/>
</g>
<path d="M113.711 5.43701H104.364V6.56317C104.364 7.97133 103.801 9.32161 102.8 10.3171C101.798 11.3126 100.44 11.8719 99.0243 11.8719H69.2253C67.8094 11.8719 66.4514 11.3126 65.45 10.3171C64.4486 9.32161 63.8857 7.97133 63.8851 6.56317V5.43701H55.1162C53.3966 5.43701 51.7474 6.11639 50.5314 7.3257C49.3154 8.535 48.6323 10.1752 48.6323 11.8854V155.421C48.6323 157.131 49.3154 158.771 50.5314 159.98C51.7474 161.19 53.3966 161.869 55.1162 161.869H113.711C115.431 161.869 117.08 161.19 118.296 159.98C119.512 158.771 120.195 157.131 120.195 155.421V11.8854C120.195 10.1752 119.512 8.535 118.296 7.3257C117.08 6.11639 115.431 5.43701 113.711 5.43701Z" fill="#ECECF3"/>
<path d="M19.7619 171.901C26.915 171.901 32.7138 170.926 32.7138 169.723C32.7138 168.52 26.915 167.545 19.7619 167.545C12.6088 167.545 6.81006 168.52 6.81006 169.723C6.81006 170.926 12.6088 171.901 19.7619 171.901Z" fill="#6C63FF"/>
<path d="M25.1177 166.16C25.6726 165.646 26.1935 165.034 26.352 164.306C26.5105 163.579 26.198 162.687 25.4891 162.419C24.6965 162.117 23.8495 162.662 23.2086 163.214C22.5677 163.766 21.8294 164.396 20.9892 164.279C21.4232 163.889 21.7477 163.393 21.9307 162.84C22.1137 162.287 22.1491 161.696 22.0332 161.126C21.997 160.891 21.8967 160.671 21.7433 160.488C21.304 160.02 20.5068 160.22 19.9791 160.59C18.3055 161.761 17.8367 164.025 17.8277 166.063C17.6578 165.326 17.8005 164.561 17.7959 163.811C17.7914 163.061 17.5853 162.22 16.9467 161.815C16.5475 161.603 16.0992 161.499 15.6467 161.513C14.8949 161.486 14.0614 161.561 13.5428 162.108C12.9019 162.784 13.0695 163.93 13.6244 164.68C14.1792 165.43 15.0262 165.899 15.8053 166.417C16.3964 166.811 16.9965 167.27 17.3611 167.894C17.4091 167.977 17.4478 168.066 17.4766 168.158H22.194C23.2543 167.625 24.2378 166.953 25.1177 166.16Z" fill="#6C63FF"/>
<g opacity="0.4">
<path opacity="0.4" d="M140.416 158.984C144.499 158.984 147.808 158.427 147.808 157.74C147.808 157.054 144.499 156.497 140.416 156.497C136.334 156.497 133.024 157.054 133.024 157.74C133.024 158.427 136.334 158.984 140.416 158.984Z" fill="#6C63FF"/>
<path opacity="0.4" d="M143.472 155.707C143.809 155.433 144.055 155.065 144.178 154.65C144.269 154.229 144.088 153.725 143.685 153.571C143.232 153.4 142.749 153.711 142.382 154.022C142.015 154.333 141.596 154.698 141.116 154.63C141.365 154.407 141.55 154.124 141.655 153.808C141.759 153.492 141.779 153.154 141.712 152.828C141.691 152.694 141.634 152.569 141.547 152.466C141.295 152.198 140.84 152.312 140.541 152.522C139.585 153.198 139.318 154.484 139.311 155.646C139.216 155.227 139.298 154.79 139.296 154.36C139.293 153.93 139.173 153.459 138.809 153.22C138.581 153.1 138.326 153.041 138.068 153.049C137.638 153.033 137.162 153.076 136.865 153.387C136.501 153.776 136.596 154.427 136.913 154.855C137.23 155.283 137.712 155.551 138.159 155.846C138.514 156.058 138.817 156.346 139.046 156.689C139.074 156.736 139.096 156.787 139.112 156.84H141.807C142.411 156.538 142.971 156.157 143.472 155.707Z" fill="#6C63FF"/>
</g>
<g opacity="0.4">
<path opacity="0.4" d="M27.1991 145.013C31.2816 145.013 34.5911 144.456 34.5911 143.77C34.5911 143.083 31.2816 142.526 27.1991 142.526C23.1166 142.526 19.8071 143.083 19.8071 143.77C19.8071 144.456 23.1166 145.013 27.1991 145.013Z" fill="#6C63FF"/>
<path opacity="0.4" d="M30.2565 141.736C30.5943 141.462 30.8401 141.093 30.9609 140.677C31.0514 140.258 30.8725 139.754 30.4671 139.6C30.0142 139.429 29.5318 139.74 29.1672 140.051C28.8026 140.362 28.3791 140.727 27.9012 140.659C28.1486 140.435 28.3335 140.152 28.4379 139.836C28.5423 139.52 28.5626 139.183 28.4969 138.857C28.4755 138.723 28.4184 138.597 28.3315 138.492C28.0802 138.227 27.6249 138.341 27.3237 138.551C26.368 139.227 26.1008 140.51 26.0963 141.673C25.9989 141.254 26.0804 140.817 26.0781 140.387C26.0759 139.956 25.9581 139.486 25.5935 139.26C25.3657 139.138 25.1094 139.078 24.8507 139.087C24.4227 139.071 23.9448 139.114 23.6504 139.427C23.2858 139.817 23.3809 140.468 23.6979 140.896C24.015 141.323 24.4974 141.589 24.9413 141.887C25.2975 142.097 25.601 142.385 25.829 142.729C25.8562 142.777 25.8789 142.828 25.897 142.88H28.5897C29.1945 142.575 29.7552 142.19 30.2565 141.736Z" fill="#6C63FF"/>
</g>
<path d="M65.6925 17.354H54.1221V28.8611H65.6925V17.354Z" fill="#D6D8E0"/>
<path d="M98.4716 18.1763H74.2302V20.3678H98.4716V18.1763Z" fill="#D6D8E0"/>
<path d="M114.173 22.012H74.2302V24.2035H114.173V22.012Z" fill="#D6D8E0"/>
<path d="M114.173 25.8474H74.2302V28.0389H114.173V25.8474Z" fill="#D6D8E0"/>
<path d="M65.7806 38.4492H54.2102V49.9563H65.7806V38.4492Z" fill="#D6D8E0"/>
<path d="M98.56 39.2712H74.3186V41.4627H98.56V39.2712Z" fill="#D6D8E0"/>
<path d="M114.261 43.1072H74.3186V45.2987H114.261V43.1072Z" fill="#D6D8E0"/>
<path d="M114.261 46.9404H74.3186V49.1319H114.261V46.9404Z" fill="#D6D8E0"/>
<path d="M65.869 59.5442H54.2986V71.0512H65.869V59.5442Z" fill="#D6D8E0"/>
<path d="M98.6506 60.3643H74.4092V62.5558H98.6506V60.3643Z" fill="#D6D8E0"/>
<path d="M114.352 64.2H74.4092V66.3914H114.352V64.2Z" fill="#D6D8E0"/>
<path d="M114.352 68.0356H74.4092V70.2271H114.352V68.0356Z" fill="#D6D8E0"/>
<path d="M65.9573 80.6372H54.387V92.1443H65.9573V80.6372Z" fill="#D6D8E0"/>
<path d="M98.739 81.4595H74.4976V83.651H98.739V81.4595Z" fill="#D6D8E0"/>
<path d="M114.44 85.2952H74.4976V87.4867H114.44V85.2952Z" fill="#D6D8E0"/>
<path d="M114.44 89.1306H74.4976V91.3221H114.44V89.1306Z" fill="#D6D8E0"/>
<path d="M66.0479 101.732H54.4775V113.239H66.0479V101.732Z" fill="#D6D8E0"/>
<path d="M98.8273 102.554H74.5859V104.746H98.8273V102.554Z" fill="#D6D8E0"/>
<path d="M114.529 106.39H74.5859V108.582H114.529V106.39Z" fill="#D6D8E0"/>
<path d="M114.529 110.226H74.5859V112.417H114.529V110.226Z" fill="#D6D8E0"/>
<path d="M66.1363 122.827H54.5659V134.334H66.1363V122.827Z" fill="#D6D8E0"/>
<path d="M98.9155 123.65H74.6741V125.841H98.9155V123.65Z" fill="#D6D8E0"/>
<path d="M114.617 127.485H74.6741V129.677H114.617V127.485Z" fill="#D6D8E0"/>
<path d="M114.617 131.321H74.6741V133.513H114.617V131.321Z" fill="#D6D8E0"/>
<path d="M66.2244 143.923H54.6541V155.43H66.2244V143.923Z" fill="#D6D8E0"/>
<path d="M99.0039 144.745H74.7625V146.936H99.0039V144.745Z" fill="#D6D8E0"/>
<path d="M114.705 148.581H74.7625V150.772H114.705V148.581Z" fill="#D6D8E0"/>
<path d="M114.705 152.416H74.7625V154.608H114.705V152.416Z" fill="#D6D8E0"/>
<path d="M133.722 52.0508H35.1052V76.4321H133.722V52.0508Z" fill="url(#paint1_linear)"/>
<path d="M133.446 52.6003H35.6555V75.887H133.446V52.6003Z" fill="white"/>
<path d="M66.0955 58.4902H54.5251V69.9973H66.0955V58.4902Z" fill="#6C63FF"/>
<g opacity="0.5">
<path opacity="0.5" d="M98.8771 59.3123H74.6357V61.5038H98.8771V59.3123Z" fill="#6C63FF"/>
<path opacity="0.5" d="M114.578 63.1479H74.6357V65.3394H114.578V63.1479Z" fill="#6C63FF"/>
<path opacity="0.5" d="M114.578 66.9836H74.6357V69.1751H114.578V66.9836Z" fill="#6C63FF"/>
</g>
<path d="M70.2466 73.333C69.6306 72.7272 68.607 72.5267 67.8664 72.9727C67.2912 73.3173 66.9741 73.9592 66.6843 74.5651C66.2608 75.466 65.6402 76.3083 65.45 77.2813C64.9268 79.9638 62.7799 82.0472 61.9193 84.6396C61.6113 85.5653 61.4664 86.5586 60.9795 87.4032C60.7494 87.773 60.492 88.1254 60.2095 88.4573C59.0952 89.8551 58.1098 91.3499 57.2654 92.9236C56.7762 93.0182 56.3414 93.4304 55.9246 93.7525C55.3907 94.1653 54.7723 94.4567 54.1129 94.6061C53.8474 94.6372 53.593 94.7298 53.3701 94.8764C53.0575 95.1354 53.0145 95.6016 52.7609 95.9147C52.5766 96.1199 52.3428 96.2749 52.0814 96.3652C52.0814 96.2863 52.0701 96.2075 52.0679 96.1264C52.0565 95.7097 52.0497 95.2908 52.0497 94.8719C52.78 94.0167 53.1798 92.9305 53.1773 91.8085C53.1749 90.6865 52.7702 89.6021 52.0361 88.7501C52.054 88.0979 52.1413 87.4493 52.2966 86.8154C52.3759 86.5068 52.3645 86.1284 52.1131 85.928C51.9886 85.8311 51.8278 85.7951 51.6942 85.7027C51.5059 85.5444 51.3518 85.3498 51.2412 85.1306C50.9058 84.6579 50.412 84.3195 49.8483 84.1763C49.2846 84.0331 48.6881 84.0943 48.1658 84.3491C47.3482 84.777 46.8522 85.6329 46.1275 86.214C45.7561 86.5113 45.3281 86.7343 44.9567 87.0338C44.2134 87.6789 43.685 88.5336 43.4416 89.4844C43.2035 90.4315 43.0653 91.4007 43.0294 92.3763C42.9907 92.6689 43.0022 92.9659 43.0634 93.2547C43.1366 93.4965 43.2491 93.7247 43.3963 93.9304C44.0865 95.0474 45.0565 95.9671 46.2113 96.5994C46.2159 96.6571 46.2159 96.7151 46.2113 96.7728C46.2113 96.8629 46.1819 96.9508 46.1615 97.0409L46.0302 97.0048C45.5455 96.8967 45.0224 96.9102 44.5875 96.6692C43.8447 96.2548 43.6205 95.2435 42.9094 94.7795C42.849 94.7405 42.7853 94.7066 42.7192 94.6782C42.6689 93.3971 42.4231 92.1311 41.9899 90.9236C41.7816 90.347 41.5257 89.7591 41.5574 89.1443C41.5845 88.5744 41.8586 88.0496 42.1032 87.5339C42.957 85.7545 43.5548 83.8671 44.1414 81.9864C44.5173 80.8047 44.8948 79.6222 45.2737 78.439C45.6426 78.1668 45.9764 77.8506 46.2679 77.4976C46.8723 76.7979 47.2711 75.9461 47.4207 75.0358C47.4925 74.5815 47.4732 74.1176 47.364 73.6707C47.2548 73.2239 47.0578 72.8029 46.7843 72.4321C46.6635 72.2549 46.5061 72.1054 46.3225 71.9935C46.139 71.8816 45.9335 71.81 45.7199 71.7834C45.5321 71.7875 45.3471 71.8295 45.1762 71.907C45.0053 71.9844 44.852 72.0956 44.7257 72.2339C44.3503 72.6598 44.0611 73.1539 43.8742 73.6889C43.5027 74.5605 43.1268 75.466 43.163 76.4119C43.1925 77.1957 43.4869 78.0719 43.0272 78.7093C41.5211 80.7972 40.3842 83.1982 39.1907 85.482C38.8891 86.0275 38.6301 86.5952 38.4162 87.1802C38.1277 88.1291 37.9909 89.1171 38.0108 90.1082C37.9995 91.9664 38.2554 93.8156 38.5091 95.6579C38.6246 96.489 38.7718 97.3719 39.1681 98.0904C38.9085 98.9808 38.7721 99.9022 38.7627 100.829C38.7522 101.043 38.7861 101.257 38.8624 101.458C38.9957 101.691 39.1645 101.902 39.3629 102.084C39.6284 102.384 39.8263 102.737 39.9435 103.119C40.0607 103.501 40.0944 103.904 40.0423 104.3C39.9759 105.046 40.0441 105.798 40.2438 106.521C40.6968 108.521 41.1497 110.519 41.5121 112.535C41.5981 112.909 41.6271 113.295 41.5981 113.679C41.5279 114.224 41.2245 114.742 41.2901 115.289C41.355 115.542 41.4034 115.8 41.4351 116.059C41.4203 116.257 41.3745 116.452 41.2992 116.636C40.7828 118.129 39.3946 121.553 39.4104 123.134L39.7728 123.048C39.4082 125.1 38.5544 127.062 38.106 129.107C37.7949 130.597 37.6536 132.117 37.6847 133.639C37.7146 134.322 37.7025 135.006 37.6485 135.688C37.5783 136.294 37.422 136.886 37.336 137.49C37.2385 138.299 37.2022 139.115 37.2272 139.929C37.2037 141.21 37.2794 142.49 37.4537 143.758C37.8002 145.921 37.1933 148.069 37.028 150.252C36.9442 151.779 36.7703 153.299 36.5071 154.806C36.3825 155.441 36.2262 156.072 36.1402 156.714C35.8865 158.619 36.2557 160.583 35.8571 162.464C35.6691 163.344 35.334 164.333 35.8277 165.085C35.9839 165.322 36.2081 165.507 36.378 165.734C36.471 165.842 36.5345 165.972 36.5623 166.111C36.5901 166.25 36.5812 166.394 36.5365 166.529C36.4391 166.736 36.2127 166.872 36.156 167.092C36.0655 167.439 36.4301 167.723 36.7562 167.872L36.849 167.908C36.8278 168.026 36.8325 168.148 36.863 168.265C36.8935 168.381 36.949 168.49 37.0257 168.583C37.2195 168.765 37.4602 168.89 37.721 168.944L41.9967 170.232C42.9502 170.52 43.9874 170.804 44.9408 170.57C44.9623 170.705 45.0211 170.831 45.1107 170.935C45.3045 171.116 45.5451 171.241 45.806 171.295L50.05 172.574C51.1416 172.903 52.3396 173.228 53.3882 172.782C53.6886 172.659 53.9522 172.461 54.1536 172.207C54.3202 171.964 54.4308 171.687 54.4778 171.396C54.5247 171.105 54.5069 170.808 54.4254 170.525C54.3723 170.237 54.2279 169.973 54.0132 169.772C53.7228 169.572 53.3795 169.46 53.0258 169.45C52.724 169.441 52.4282 169.364 52.1607 169.225C52.08 169.173 52.0125 169.103 51.9637 169.02C52.2083 168.78 52.4453 168.531 52.6748 168.272C52.4891 168.209 52.4234 167.944 52.4053 167.75C52.1358 164.88 53.2229 162.076 53.635 159.225C53.8432 157.794 53.8797 156.344 53.7437 154.905C53.6939 154.362 53.6192 153.822 53.5965 153.277C53.4901 150.439 54.8534 147.709 54.8059 144.869C54.7832 143.54 55.4853 142.229 55.8273 140.943C56.1262 139.803 56.1353 138.61 56.1421 137.429L56.1964 128.136C56.1964 126.879 56.1964 125.593 55.7933 124.406C55.5898 123.746 55.5342 123.05 55.6302 122.366C56.783 121.859 57.8746 121.109 59.1066 121.24C59.4349 120.373 59.0454 117.483 58.7374 116.607C57.5266 113.16 57.2915 109.448 58.058 105.877C58.3366 104.595 57.9538 103.232 58.2641 101.955C58.3211 101.656 58.4356 101.37 58.6015 101.113C58.6856 100.985 58.801 100.881 58.9369 100.809C59.0728 100.738 59.2247 100.702 59.3783 100.705C59.3783 99.9238 59.3625 99.1287 59.3104 98.3359C59.8106 97.9298 60.2372 97.4415 60.5718 96.8922C61.2512 95.7661 61.6385 94.498 62.1073 93.2727C62.9384 91.1105 64.0731 89.0812 65.0265 86.9663C65.9799 84.8514 66.0728 82.5382 66.8383 80.349C67.2598 79.1432 68.1315 78.1449 69.2728 77.5606C69.7258 77.3354 70.2081 77.1732 70.5365 76.8039C70.7851 76.4959 70.9378 76.1225 70.9759 75.7295C71.0465 75.3012 71.0175 74.8625 70.8911 74.447C70.7647 74.0316 70.5442 73.6505 70.2466 73.333ZM43.7496 166.383C43.8424 166.281 43.933 166.18 44.0191 166.07C43.7337 166.025 43.385 165.817 43.3782 165.529C43.3986 165.24 43.4612 164.956 43.5639 164.685C43.6979 164.196 43.7196 163.683 43.6273 163.184C43.5639 162.835 43.4461 162.509 43.3737 162.153C43.3045 161.767 43.2592 161.378 43.2378 160.986C43.1156 159.582 42.8392 158.195 42.4134 156.851C42.0035 155.547 42.5652 154.227 42.7101 152.869C42.7803 152.225 42.7486 151.56 42.9751 150.954C43.1087 150.594 43.3284 150.279 43.462 149.914C43.7722 149.078 43.5888 148.148 43.3986 147.276C44.7393 144.86 45.1832 141.977 45.6882 139.256C45.972 137.729 46.2559 136.203 46.5397 134.677C46.6643 134.001 46.8024 133.29 47.2191 132.744C47.6602 134.766 47.8338 136.836 47.7355 138.902C47.6833 139.502 47.6909 140.106 47.7581 140.704C47.8623 141.36 48.1363 141.979 48.2949 142.623C48.6482 144.044 48.4421 145.538 48.5213 146.999C48.5508 147.589 48.6278 148.18 48.6527 148.77C48.7636 151.38 47.8849 153.918 47.0176 156.385C46.4854 157.896 46.3676 159.615 46.1117 161.198C45.8716 162.714 45.6338 164.232 45.5115 165.761C45.4753 166.227 45.4459 166.707 45.3892 167.18C45.2436 167.148 45.0961 167.125 44.9476 167.11C44.6458 167.101 44.35 167.024 44.0825 166.885C43.9224 166.755 43.8062 166.58 43.7496 166.383Z" fill="url(#paint2_linear)"/>
<path d="M53.0304 169.473C53.3836 169.483 53.7265 169.594 54.0178 169.793C54.2318 169.992 54.3763 170.254 54.43 170.541C54.5113 170.822 54.5291 171.118 54.4821 171.407C54.4351 171.697 54.3246 171.972 54.1582 172.214C53.9564 172.466 53.6928 172.661 53.3928 172.782C52.3442 173.232 51.1462 172.905 50.0546 172.579L45.7788 171.297C45.5182 171.244 45.2775 171.12 45.0835 170.939C44.966 170.782 44.9011 170.592 44.8978 170.396C44.8946 170.2 44.9532 170.008 45.0654 169.847C45.2954 169.529 45.6088 169.281 45.9713 169.128C47.303 168.484 48.8022 168.336 50.2743 168.309C50.8178 168.297 51.3523 168.18 51.7214 168.597C51.9162 168.822 51.8822 169.061 52.1743 169.252C52.4391 169.39 52.7319 169.465 53.0304 169.473Z" fill="#3F3D56"/>
<path d="M44.9523 167.133C45.3055 167.14 45.6487 167.251 45.9397 167.45C46.1525 167.65 46.2967 167.912 46.3519 168.198C46.4333 168.48 46.4512 168.776 46.4042 169.065C46.3573 169.354 46.2466 169.63 46.0801 169.871C45.8785 170.124 45.6148 170.32 45.3146 170.441C44.2661 170.892 43.068 170.563 41.9765 170.236L37.7007 168.955C37.4397 168.903 37.1988 168.779 37.0054 168.597C36.8879 168.439 36.823 168.249 36.8197 168.053C36.8165 167.857 36.8751 167.665 36.9873 167.504C37.2168 167.186 37.5303 166.937 37.8932 166.786C39.2248 166.142 40.7218 165.993 42.1848 165.966C42.7261 165.966 43.2628 165.838 43.632 166.254C43.8267 166.479 43.7928 166.72 44.0849 166.91C44.3533 167.048 44.6499 167.125 44.9523 167.133Z" fill="#3F3D56"/>
<path d="M48.6662 120.985C46.1472 120.733 43.6132 120.663 41.084 120.773C40.917 120.771 40.7509 120.797 40.5925 120.85C40.0354 121.075 39.9494 121.801 39.895 122.395C39.6821 124.798 38.6155 127.039 38.0833 129.398C37.7719 130.878 37.6306 132.39 37.662 133.902C37.6916 134.578 37.6795 135.255 37.6258 135.929C37.5556 136.533 37.3993 137.121 37.3133 137.731C37.2158 138.535 37.1795 139.345 37.2045 140.155C37.1812 141.425 37.2569 142.695 37.431 143.954C37.7775 146.103 37.1706 148.234 37.0052 150.405C36.9213 151.922 36.7474 153.433 36.4844 154.93C36.3598 155.56 36.2035 156.187 36.1175 156.824C35.8638 158.718 36.233 160.671 35.8344 162.538C35.6464 163.412 35.3113 164.394 35.805 165.142C35.9612 165.378 36.1854 165.561 36.3553 165.786C36.4481 165.893 36.5115 166.022 36.5393 166.16C36.5671 166.299 36.5583 166.442 36.5138 166.576C36.4164 166.781 36.19 166.917 36.1333 167.135C36.0427 167.48 36.4074 167.763 36.7335 167.91C39.1907 169.011 42.359 168.234 44.0168 166.119C43.7314 166.074 43.3827 165.869 43.3759 165.583C43.3963 165.296 43.4588 165.013 43.5616 164.743C43.6957 164.257 43.7174 163.747 43.625 163.252C43.5616 162.907 43.4438 162.576 43.3713 162.227C43.3022 161.844 43.2569 161.458 43.2355 161.07C43.1133 159.674 42.8368 158.296 42.4111 156.961C42.0012 155.666 42.5628 154.355 42.7078 153.004C42.778 152.367 42.7463 151.704 42.9728 151.103C43.1064 150.745 43.326 150.427 43.4597 150.069C43.7699 149.238 43.5865 148.317 43.3963 147.45C44.737 145.047 45.1808 142.184 45.6859 139.481C45.9697 137.965 46.2536 136.448 46.5374 134.931C46.662 134.256 46.8001 133.555 47.2168 133.013C47.658 135.021 47.8316 137.079 47.7332 139.132C47.6818 139.724 47.6894 140.319 47.7558 140.909C47.86 141.56 48.134 142.175 48.2925 142.817C48.6458 144.227 48.4398 145.711 48.519 147.164C48.5485 147.749 48.6255 148.335 48.6504 148.923C48.7613 151.515 47.8826 154.038 47.0153 156.486C46.4831 157.988 46.3653 159.696 46.1094 161.268C45.8693 162.775 45.6315 164.281 45.5092 165.802C45.3983 167.198 45.3507 168.709 44.4765 169.806C45.2737 170.322 46.1003 170.847 47.0334 171.025C48.1238 171.194 49.2395 170.98 50.1881 170.419C51.1296 169.857 51.9713 169.145 52.6793 168.311C52.4936 168.248 52.4279 167.982 52.4098 167.79C52.1403 164.941 53.2273 162.16 53.6395 159.322C53.8477 157.9 53.8842 156.459 53.7482 155.029C53.6984 154.491 53.6237 153.955 53.601 153.414C53.4946 150.594 54.8579 147.88 54.8104 145.06C54.7877 143.74 55.4898 142.436 55.8318 141.159C56.1307 140.033 56.1398 138.842 56.1466 137.67L56.2009 128.436C56.2009 127.186 56.2009 125.909 55.7978 124.729C55.2996 123.312 55.868 121.681 55.9541 120.183C53.601 120.923 51.1249 121.195 48.6662 120.985Z" fill="#3F3D56"/>
<path d="M56.7421 94.4552C57.694 92.5191 58.8567 90.6928 60.2094 89.0091C60.4913 88.6798 60.7487 88.3305 60.9794 87.964C61.4663 87.1262 61.6113 86.1374 61.9193 85.2184C62.7798 82.6418 64.9268 80.5719 65.4499 77.9074C65.6402 76.9412 66.2607 76.1056 66.6842 75.2047C66.9741 74.6011 67.2911 73.9659 67.8664 73.6281C68.6069 73.1776 69.6306 73.3871 70.2466 73.9884C70.543 74.3025 70.7627 74.6801 70.8888 75.0922C71.0148 75.5042 71.0438 75.9396 70.9735 76.3646C70.9366 76.7559 70.7837 77.1275 70.5342 77.4322C70.2058 77.7993 69.7144 77.966 69.2705 78.1867C68.1305 78.7628 67.2583 79.7545 66.8359 80.9548C66.0795 83.1306 65.9844 85.4324 65.0242 87.5293C64.0639 89.6262 62.9361 91.642 62.105 93.7885C61.6362 95.007 61.258 96.266 60.5695 97.3922C59.881 98.5183 58.7985 99.4621 57.4986 99.631C57.5004 98.8171 57.3719 98.0082 57.1181 97.2345C56.8441 96.3404 56.33 95.284 56.7421 94.4552Z" fill="#A0616A"/>
<path d="M42.7192 96.1355C42.7771 94.5431 42.528 92.9544 41.9855 91.4552C41.7771 90.8808 41.5212 90.2975 41.5529 89.6871C41.5801 89.1218 41.8541 88.5992 42.0987 88.088C42.9525 86.3199 43.5504 84.4437 44.1369 82.5743L45.2693 79.0517C45.6375 78.7812 45.9713 78.4674 46.2635 78.117C46.8667 77.4227 47.2656 76.5763 47.4162 75.671C47.4879 75.2192 47.4685 74.7578 47.3593 74.3135C47.25 73.8692 47.0531 73.451 46.7798 73.0831C46.6588 72.9067 46.5012 72.7582 46.3176 72.6474C46.134 72.5367 45.9286 72.4664 45.7154 72.4412C45.5275 72.4444 45.3423 72.4861 45.1712 72.5636C45.0002 72.6411 44.847 72.7527 44.7212 72.8916C44.346 73.3143 44.0568 73.8053 43.8697 74.3376C43.4983 75.2025 43.1223 76.1034 43.1586 77.0404C43.188 77.8197 43.4824 78.6891 43.0227 79.322C41.5167 81.3964 40.3798 83.7815 39.1863 86.0496C38.8847 86.5912 38.6257 87.1552 38.4117 87.7366C38.1228 88.6807 37.986 89.6644 38.0064 90.6511C37.995 92.498 38.251 94.3336 38.5046 96.1648C38.6631 97.3089 38.876 98.5567 39.7479 99.318C40.6561 98.1716 41.5665 97.0409 42.7192 96.1355Z" fill="#A0616A"/>
<path d="M48.4827 97.0161C51.078 97.0161 53.182 94.9236 53.182 92.3425C53.182 89.7614 51.078 87.6689 48.4827 87.6689C45.8874 87.6689 43.7834 89.7614 43.7834 92.3425C43.7834 94.9236 45.8874 97.0161 48.4827 97.0161Z" fill="#A0616A"/>
<path d="M46.2001 97.2639C46.0869 98.1108 45.6317 98.8653 45.1878 99.595C44.9183 100.045 44.5786 100.525 44.0554 100.575C45.4157 101.286 46.8453 101.858 48.3221 102.282C48.825 102.45 49.3521 102.534 49.8825 102.532C50.3313 102.499 50.7707 102.387 51.1802 102.201C52.0761 101.81 52.8709 101.222 53.5042 100.481C54.1375 99.7392 54.5928 98.864 54.8354 97.9216C54.2511 97.9371 53.6667 97.8926 53.0916 97.7887C52.77 97.7301 52.4235 97.6355 52.2355 97.372C52.105 97.1426 52.0437 96.8806 52.0589 96.6175C52.0363 95.8382 52.0363 95.0589 52.0589 94.2796C50.9043 94.2057 49.7461 94.347 48.6437 94.6963C48.1908 94.8427 47.7378 95.0206 47.2736 95.1354C46.9882 95.2053 46.2024 95.1355 45.9917 95.2999C45.6724 95.5499 46.2839 96.6895 46.2001 97.2639Z" fill="#A0616A"/>
<path d="M48.2722 100.104C48.2199 99.4898 47.9749 98.9076 47.5718 98.4396C47.1686 97.9715 46.6277 97.6414 46.0256 97.4958C45.541 97.3899 45.0178 97.4012 44.583 97.1624C43.8402 96.7502 43.616 95.7457 42.9048 95.284C42.1937 94.8223 41.1791 95.079 40.5586 95.6646C39.9381 96.2502 39.6233 97.0791 39.3696 97.8899C38.9899 98.989 38.7843 100.14 38.7604 101.302C38.7499 101.515 38.7838 101.729 38.8601 101.928C38.994 102.16 39.1628 102.371 39.3606 102.552C39.6257 102.849 39.8237 103.198 39.9409 103.578C40.0581 103.957 40.0919 104.357 40.04 104.75C39.9736 105.493 40.0419 106.241 40.2415 106.96C40.6945 108.944 41.1474 110.931 41.5098 112.933C41.5947 113.302 41.6237 113.682 41.5958 114.059C41.5256 114.6 41.2222 115.116 41.2878 115.656C41.3527 115.909 41.4011 116.165 41.4328 116.424C41.418 116.62 41.3721 116.812 41.2969 116.994C40.7805 118.481 39.3923 121.882 39.4081 123.451C41.82 122.836 45.3756 122.699 47.8645 122.69C48.5504 122.681 49.2363 122.711 49.9186 122.78C51.556 122.954 53.2319 123.429 54.8195 122.99C56.2915 122.582 57.5982 121.413 59.1224 121.562C59.4508 120.699 59.0612 117.827 58.7532 116.958C57.5425 113.535 57.3074 109.845 58.0738 106.298C58.3524 105.023 57.9697 103.672 58.2799 102.404C58.3365 102.105 58.4511 101.82 58.6174 101.566C58.7017 101.438 58.8173 101.334 58.9531 101.263C59.089 101.192 59.2408 101.157 59.3942 101.16C59.4224 99.1242 59.2326 97.0909 58.828 95.0948C58.6763 94.3853 58.3615 93.5474 57.6435 93.4258C56.9958 93.3177 56.45 93.8605 55.9314 94.2614C55.396 94.6704 54.7779 94.9593 54.1197 95.1083C53.8544 95.1386 53.5999 95.2304 53.3768 95.3763C53.0643 95.6331 53.0213 96.0971 52.7676 96.4101C52.3147 96.971 51.3024 96.9214 50.9808 97.5678C50.9084 97.7606 50.8508 97.9587 50.8087 98.1602C50.6568 98.5432 50.3983 98.8752 50.0636 99.1174C49.5573 99.5881 48.942 99.927 48.2722 100.104Z" fill="#6C63FF"/>
<path d="M52.3012 87.374C52.3805 87.0654 52.3691 86.6983 52.1178 86.4911C51.9932 86.3942 51.8324 86.3582 51.6988 86.2658C51.5105 86.1084 51.3564 85.9146 51.2458 85.696C50.9071 85.2254 50.4114 84.8894 49.8471 84.748C49.2827 84.6065 48.6862 84.6687 48.1636 84.9235C47.346 85.3491 46.8501 86.2005 46.1253 86.7771C45.7539 87.0744 45.3259 87.2951 44.9545 87.5902C44.2121 88.2305 43.6836 89.0806 43.4394 90.0272C43.2019 90.969 43.0645 91.933 43.0295 92.9034C42.9908 93.1945 43.0023 93.49 43.0635 93.7773C43.1374 94.0153 43.2499 94.2397 43.3964 94.4417C44.1415 95.5679 45.1289 96.5927 46.3631 97.1715C47.5974 97.7504 49.0989 97.8472 50.3173 97.2413C50.4395 97.1903 50.5446 97.106 50.6208 96.9981C50.6906 96.8337 50.7065 96.6517 50.6661 96.4778C50.6017 95.79 50.7394 95.0983 51.0624 94.4868C51.2889 94.0363 51.6263 93.6489 51.8098 93.1804C51.9762 92.6581 52.0482 92.1106 52.0226 91.5633C52.0408 90.1511 51.9434 88.7389 52.3012 87.374Z" fill="#2D293D"/>
<path d="M66.0479 58.6277H54.4775V70.1348H66.0479V58.6277Z" fill="#6C63FF"/>
<path d="M61.8264 68.4297C61.6588 68.7512 61.3808 69.0022 61.0428 69.1369C60.8431 69.2096 60.6327 69.2491 60.42 69.254C60.1903 69.2708 59.9594 69.2425 59.7406 69.1707C59.4492 69.0567 59.1991 68.8582 59.0227 68.6009C58.8485 68.3436 58.7085 68.065 58.606 67.772C58.5372 67.6259 58.5083 67.4643 58.5222 67.3035C58.6108 67.2928 58.6964 67.2648 58.7741 67.2211C58.8519 67.1774 58.9202 67.119 58.9751 67.049C59.0077 66.9787 59.0255 66.9024 59.0275 66.825C59.0294 66.7475 59.0155 66.6705 58.9865 66.5986C58.9729 66.5535 58.9593 66.5107 58.9434 66.4702C58.9095 66.3711 58.7917 66.1841 58.8732 66.1008C58.9548 66.0175 59.145 66.0197 59.2197 65.9859C59.4413 65.8543 59.6777 65.7492 59.9241 65.6729C60.1474 65.6433 60.3745 65.6578 60.5921 65.7157C60.6219 65.7205 60.6504 65.7312 60.6759 65.7472C60.7046 65.7708 60.7258 65.8021 60.7371 65.8373C60.8005 65.9905 60.8367 66.1594 60.8866 66.317C60.93 66.4824 61.0159 66.6337 61.1357 66.7562C61.2391 66.8435 61.3561 66.9135 61.4822 66.9634L61.7857 67.1008C61.8389 67.1219 61.8874 67.1533 61.9283 67.1932C61.9671 67.2476 61.9906 67.3114 61.9963 67.3779C62.0525 67.7375 61.993 68.1056 61.8264 68.4297Z" fill="#A0616A"/>
<path opacity="0.1" d="M60.8843 66.3239C60.6433 66.5728 60.3262 66.7354 59.9824 66.7864C59.6387 66.8373 59.2877 66.7737 58.9842 66.6054C58.9706 66.5604 58.957 66.5176 58.9412 66.477C58.9072 66.3779 58.7894 66.191 58.871 66.1076C58.9525 66.0243 59.1427 66.0266 59.2175 65.9928C59.439 65.8611 59.6754 65.756 59.9218 65.6797C60.1452 65.6501 60.3722 65.6647 60.5899 65.7225C60.6196 65.7274 60.6481 65.7381 60.6737 65.754C60.7023 65.7777 60.7235 65.8089 60.7348 65.8441C60.7982 66.004 60.8345 66.1662 60.8843 66.3239Z" fill="black"/>
<path d="M59.7519 66.7361C60.6199 66.7361 61.3236 66.0362 61.3236 65.173C61.3236 64.3097 60.6199 63.6099 59.7519 63.6099C58.8839 63.6099 58.1802 64.3097 58.1802 65.173C58.1802 66.0362 58.8839 66.7361 59.7519 66.7361Z" fill="#A0616A"/>
<path d="M64.5192 70.1324H57.1226C56.8962 69.6302 56.6924 69.1257 56.4636 68.6234C56.488 68.5039 56.5333 68.3896 56.5972 68.2856C56.63 68.2348 56.6748 68.1928 56.7277 68.1633C56.7806 68.1339 56.8401 68.1178 56.9007 68.1166C56.9664 68.1166 57.0411 68.1414 57.0887 68.0941C57.1362 68.0468 57.1204 68.0085 57.1544 67.977C57.1883 67.9455 57.2699 67.9455 57.3333 67.95C57.4013 67.9521 57.4688 67.9374 57.5297 67.9071C57.5906 67.8768 57.643 67.832 57.682 67.7765C57.7063 67.7346 57.736 67.6959 57.7704 67.6617C57.8299 67.6329 57.8945 67.6161 57.9606 67.6121C58.144 67.5716 58.2527 67.3869 58.3909 67.272C58.4241 67.2348 58.4674 67.2079 58.5157 67.1947C58.5639 67.1815 58.615 67.1826 58.6627 67.1977C58.6848 67.2091 58.7042 67.2252 58.7193 67.245C58.7564 67.3017 58.7818 67.3653 58.794 67.4319C58.876 67.806 59.0847 68.1407 59.3851 68.3801C59.5447 68.5002 59.7293 68.5831 59.9254 68.6229C60.1214 68.6628 60.324 68.6584 60.5181 68.6103C60.7123 68.5621 60.8931 68.4713 61.0474 68.3446C61.2017 68.2179 61.3255 68.0584 61.4097 67.8779C61.5192 67.6057 61.582 67.3171 61.5954 67.0243C61.5954 67.0085 61.5954 66.9995 61.5954 66.986C61.6876 66.9632 61.7836 66.961 61.8768 66.9792C61.9699 66.9975 62.0579 67.036 62.1344 67.0918C62.2848 67.2063 62.4455 67.3066 62.6146 67.3914C62.8161 67.4702 63.0675 67.4702 63.2057 67.6166C63.2645 67.6752 63.3053 67.7563 63.38 67.7923C63.4265 67.8104 63.4753 67.8218 63.525 67.8261C63.6515 67.86 63.7685 67.9224 63.867 68.0083C63.9655 68.0941 64.043 68.2013 64.0934 68.3216C64.2574 68.683 64.3643 69.0674 64.4105 69.4613L64.5192 70.1324Z" fill="#F86D70"/>
<path d="M58.6671 62.6367C58.5577 62.7248 58.4649 62.8316 58.3931 62.952C58.2582 63.1733 58.0698 63.3576 57.845 63.488C57.7508 63.5208 57.6649 63.5739 57.5936 63.6435C57.5586 63.6963 57.5362 63.7564 57.528 63.8191C57.482 64.0377 57.4585 64.2603 57.4578 64.4836C57.4494 64.5959 57.468 64.7086 57.5121 64.8124C57.5574 64.907 57.6435 64.9881 57.6593 65.0917C57.6626 65.1737 57.6535 65.2557 57.6321 65.3349C57.6215 65.3765 57.6239 65.4203 57.6388 65.4605C57.6538 65.5007 57.6807 65.5355 57.7159 65.5602C57.757 65.5747 57.7995 65.5845 57.8428 65.5895C58.0692 65.639 58.1462 65.9048 58.1802 66.1233C58.2572 66.1233 58.2912 66.0309 58.3093 65.9588L58.5358 64.9115C58.5629 64.7989 58.6037 64.666 58.7192 64.6277C58.7983 64.6109 58.8802 64.6109 58.9593 64.6277C59.2718 64.6548 59.5345 64.4138 59.8402 64.3462C59.9387 64.3278 60.0392 64.3217 60.1392 64.3282C60.3792 64.3282 60.6601 64.4385 60.7122 64.6615C60.7122 64.6975 60.7257 64.7426 60.7597 64.7606C60.7945 64.7707 60.8314 64.7707 60.8662 64.7606C61.0179 64.7448 61.1085 64.916 61.1538 65.0557L61.3123 65.5669C61.3372 65.6435 61.378 65.7359 61.4618 65.7449C61.5001 65.7446 61.5371 65.7306 61.5658 65.7053C61.5946 65.6801 61.6131 65.6453 61.618 65.6075C61.6214 65.5311 61.6107 65.4548 61.5863 65.3822C61.5116 65.0489 61.6271 64.7066 61.6973 64.371C61.7675 64.0354 61.7788 63.6502 61.5433 63.3912C61.4572 63.2989 61.344 63.229 61.2647 63.1299C61.1855 63.0308 61.1492 62.925 61.0722 62.8326C60.7646 62.5643 60.3809 62.3974 59.9739 62.3551C59.5197 62.3152 59.064 62.4134 58.6671 62.6367Z" fill="#3F3D56"/>
<g opacity="0.1">
<path opacity="0.1" d="M61.4709 65.5016C61.3871 65.5016 61.3464 65.4002 61.3215 65.3236L61.1629 64.8124C61.1176 64.6727 61.027 64.5016 60.8753 64.5151C60.8405 64.5251 60.8036 64.5251 60.7689 64.5151C60.7349 64.4971 60.7304 64.4543 60.7213 64.416C60.6692 64.1907 60.3884 64.0939 60.1483 64.0826C60.0482 64.0758 59.9477 64.0826 59.8494 64.1029C59.5437 64.1682 59.281 64.4092 58.9684 64.3822C58.8891 64.3676 58.8077 64.3676 58.7284 64.3822C58.6129 64.4227 58.5721 64.5534 58.5449 64.6682C58.4657 65.0173 58.3887 65.3664 58.3185 65.7133C58.3003 65.7854 58.2664 65.8732 58.1894 65.8777C58.1554 65.6525 58.0784 65.3935 57.8519 65.3439C57.8085 65.34 57.7658 65.3302 57.7251 65.3146C57.695 65.2985 57.6716 65.2721 57.6594 65.2403C57.6594 65.2718 57.6458 65.3056 57.6413 65.3372C57.6307 65.3787 57.633 65.4225 57.648 65.4627C57.663 65.503 57.6898 65.5377 57.7251 65.5624C57.7661 65.5769 57.8087 65.5867 57.8519 65.5917C58.0784 65.6412 58.1554 65.907 58.1894 66.1255C58.2664 66.1255 58.3003 66.0331 58.3185 65.961C58.3977 65.6119 58.4747 65.2628 58.5449 64.9137C58.5721 64.8011 58.6129 64.6682 58.7284 64.6299C58.8075 64.6131 58.8893 64.6131 58.9684 64.6299C59.281 64.657 59.5437 64.416 59.8494 64.3484C59.9479 64.33 60.0483 64.324 60.1483 64.3304C60.3884 64.3304 60.6692 64.4407 60.7213 64.6637C60.7213 64.6998 60.7349 64.7448 60.7689 64.7628C60.8036 64.7729 60.8405 64.7729 60.8753 64.7628C61.027 64.7471 61.1176 64.9182 61.1629 65.0579L61.3215 65.5691C61.3464 65.6457 61.3871 65.7381 61.4709 65.7471C61.5093 65.7468 61.5462 65.7328 61.575 65.7075C61.6037 65.6823 61.6223 65.6475 61.6272 65.6097C61.632 65.5487 61.6243 65.4874 61.6045 65.4295C61.5916 65.453 61.5721 65.4723 61.5484 65.4851C61.5247 65.4979 61.4978 65.5036 61.4709 65.5016Z" fill="black"/>
<path opacity="0.1" d="M57.6595 64.8529C57.6437 64.7492 57.5576 64.6682 57.5123 64.5736C57.4826 64.5097 57.4649 64.441 57.4602 64.3708C57.4602 64.4091 57.4602 64.4452 57.4602 64.4835C57.4518 64.5958 57.4705 64.7085 57.5146 64.8123C57.5508 64.8889 57.6142 64.9565 57.6459 65.0375C57.6619 64.9773 57.6665 64.9147 57.6595 64.8529Z" fill="black"/>
<path opacity="0.1" d="M61.7065 64.1299C61.6166 64.4217 61.573 64.7257 61.5775 65.0308C61.6069 64.8092 61.65 64.5896 61.7065 64.3732C61.7442 64.2078 61.7572 64.0378 61.7451 63.8687C61.7379 63.9565 61.725 64.0437 61.7065 64.1299Z" fill="black"/>
</g>
<path d="M57.7137 70.1325H55.9495C56.0273 69.6601 56.1666 69.1998 56.3639 68.7631C56.3794 68.7182 56.405 68.6774 56.4386 68.6437C56.4459 68.6358 56.4543 68.6289 56.4636 68.6235C56.5156 68.5829 56.5881 68.5671 56.6447 68.5289C56.7014 68.4906 56.7081 68.45 56.7602 68.4343C56.9562 68.4297 57.1514 68.4618 57.3355 68.5289C57.3876 68.5347 57.4386 68.5476 57.4872 68.5672C57.602 68.6305 57.688 68.7353 57.7273 68.8599C57.8767 69.2631 57.7635 69.7001 57.7137 70.1325Z" fill="#F86D70"/>
</g>
<defs>
<linearGradient id="paint0_linear" x1="84.503" y1="167.115" x2="84.503" y2="-3.52114e-05" gradientUnits="userSpaceOnUse">
<stop stop-color="#808080" stop-opacity="0.25"/>
<stop offset="0.54" stop-color="#808080" stop-opacity="0.12"/>
<stop offset="1" stop-color="#808080" stop-opacity="0.1"/>
</linearGradient>
<linearGradient id="paint1_linear" x1="36793.5" y1="8326.08" x2="36793.5" y2="5686.56" gradientUnits="userSpaceOnUse">
<stop stop-color="#808080" stop-opacity="0.25"/>
<stop offset="0.54" stop-color="#808080" stop-opacity="0.12"/>
<stop offset="1" stop-color="#808080" stop-opacity="0.1"/>
</linearGradient>
<linearGradient id="paint2_linear" x1="14814.7" y1="61746.8" x2="20363.3" y2="61746.8" gradientUnits="userSpaceOnUse">
<stop stop-color="#808080" stop-opacity="0.25"/>
<stop offset="0.54" stop-color="#808080" stop-opacity="0.12"/>
<stop offset="1" stop-color="#808080" stop-opacity="0.1"/>
</linearGradient>
<clipPath id="clip0">
<rect width="154" height="173" fill="white"/>
</clipPath>
</defs>
</svg>
