<svg width="36" height="36" viewBox="0 0 36 36" fill="none" xmlns="http://www.w3.org/2000/svg">
<ellipse cx="18" cy="18.0451" rx="18" ry="17.8798" fill="#E0D1FF"/>
<path fill-rule="evenodd" clip-rule="evenodd" d="M17.9922 10.3823C13.7339 10.3823 10.2856 13.8152 10.2856 18.0451C10.2856 22.2749 13.7339 25.7079 17.9922 25.7079C22.2582 25.7079 25.7142 22.2749 25.7142 18.0451C25.7142 13.8152 22.2582 10.3823 17.9922 10.3823ZM18 24.1753C14.5903 24.1753 11.8286 21.4321 11.8286 18.0451C11.8286 14.6582 14.5903 11.9149 18 11.9149C21.4098 11.9149 24.1715 14.6582 24.1715 18.0451C24.1715 21.4321 21.4098 24.1753 18 24.1753ZM17.2288 14.2137H18.3859V18.2366L21.8573 20.2826L21.2788 21.2251L17.2288 18.8113V14.2137Z" fill="#300099"/>
</svg>
